STARTFONT 2.1
COMMENT
COMMENT Converted from OpenType font "Data70.ttf" by "otf2bdf 3.0".
COMMENT
FONT -FreeType-Data 70-Medium-R-Normal--56-560-72-72-P-230-ISO10646-1
SIZE 56 72 72
FONTBOUNDINGBOX 60 62 -4 -14
STARTPROPERTIES 19
FOUNDRY "FreeType"
FAMILY_NAME "Data 70"
WEIGHT_NAME "Medium"
SLANT "R"
SETWIDTH_NAME "Normal"
ADD_STYLE_NAME ""
PIXEL_SIZE 56
POINT_SIZE 560
RESOLUTION_X 72
RESOLUTION_Y 72
SPACING "P"
AVERAGE_WIDTH 230
CHARSET_REGISTRY "ISO10646"
CHARSET_ENCODING "1"
FONT_ASCENT 48
FONT_DESCENT 13
COPYRIGHT "Part of this font software is copyrighted ® 2005 - 2006 Linotype GmbH, www.linotype.com. All rights reserved. This font software may not be reproduced, modified, disclosed or transferred without the express written approval of Linotype GmbH. Copyright Esselte Letraset Ltd., 1990."
_OTF_FONTFILE "Data70.ttf"
_OTF_PSNAME "Data70"
ENDPROPERTIES
CHARS 384
STARTCHAR 0020
ENCODING 32
SWIDTH 214 0
DWIDTH 12 0
BBX 0 0 0 0
BITMAP
ENDCHAR
STARTCHAR 0021
ENCODING 33
SWIDTH 267 0
DWIDTH 15 0
BBX 9 38 3 0
BITMAP
2000
7800
F800
F800
F800
F800
F800
F800
F800
F800
F800
F800
F800
F800
FC00
FF00
FF80
FF80
FF80
FF80
FF80
FF80
FF80
FF80
FF80
FF80
7F80
7F80
3F00
0000
0000
3F00
7F80
7F80
7F80
7F80
7F80
3F00
ENDCHAR
STARTCHAR 0022
ENCODING 34
SWIDTH 357 0
DWIDTH 20 0
BBX 12 13 4 25
BITMAP
0040
F0F0
F1F0
F1F0
F1F0
F1F0
F1F0
F1F0
F1F0
F1F0
F1F0
F0F0
70E0
ENDCHAR
STARTCHAR 0023
ENCODING 35
SWIDTH 660 0
DWIDTH 37 0
BBX 33 33 2 2
BITMAP
0070070000
00F80F0000
00F80F8000
00F80F8000
00F80F8000
00F80F8000
00F80F8000
3FFFFFFF00
FFFFFFFF80
FFFFFFFF80
FFFFFFFF80
7FFFFFFF00
00F80F8000
00F80F8000
00F80F8000
00F80F8000
00F80F8000
00F80F8000
00F80F8000
7FFFFFFF00
FFFFFFFF80
FFFFFFFF80
FFFFFFFF80
3FFFFFFE00
00F80F8000
00F80F8000
00F80F8000
00F80F8000
00F80F8000
00F80F8000
00F80F8000
00F80F0000
0070060000
ENDCHAR
STARTCHAR 0024
ENCODING 36
SWIDTH 607 0
DWIDTH 34 0
BBX 29 49 3 -6
BITMAP
00020000
00078000
000F8000
000F8000
000F8000
000F8000
7FFFFFE0
FFFFFFF0
FFFFFFF0
FFFFFFF8
FE0003F8
F80001F8
F80000F8
F00000F8
F00000F8
F00000F0
F0000070
F0000000
F8000000
F8000000
FFFFFFE0
FFFFFFF0
FFFFFFF0
FFFFFFF8
7FFFFFF8
00001FF8
00000FF8
00000FF8
00000FF8
60000FF8
F0000FF8
F0000FF8
F0000FF8
F0000FF8
F0000FF8
F0000FF8
F8000FF8
F8001FF8
FFFFFFF8
FFFFFFF0
FFFFFFF0
FFFFFFF0
7FFFFFE0
000F8000
000F8000
000F8000
000F8000
000F8000
00070000
ENDCHAR
STARTCHAR 0025
ENCODING 37
SWIDTH 750 0
DWIDTH 42 0
BBX 36 39 3 -1
BITMAP
0000003C00
FFFC003C00
FFFC007C00
FFFC00FC00
E03C00F800
E01C01F800
E01C01F000
E01C03E000
E07C07E000
E0FC07C000
E0FC0FC000
E0FC0F8000
E0FC1F8000
E0FC1F0000
E0FC3E0000
E0FC7E0000
FFFC7C0000
FFFCFC0000
FFF8F80000
0001F00000
0003F3FFF0
0003E3FFF0
0007E3FFF0
0007C38070
000FC38070
000F838070
001F038070
003F0381F0
003E0383F0
007E0383F0
007C0383F0
00FC0383F0
01F80383F0
01F00383F0
03F00383F0
03E003FFF0
07E003FFF0
07C003FFE0
0380000000
ENDCHAR
STARTCHAR 0026
ENCODING 38
SWIDTH 642 0
DWIDTH 36 0
BBX 33 37 3 0
BITMAP
07FFFFF000
0FFFFFF000
0FFFFFF000
0FFFFFF000
0FE0000000
0F80000000
0F80000000
0F80006000
0F8000F000
0F8000F000
0F8000F800
0F8000F800
0F8000F800
1F8001F800
7FFFFFFE00
FFFFFFFF80
FFFFFFFF80
FFFFFFFF80
FFFFFFFF00
FF8001FC00
FF8001F800
FF8000F800
FF8000F800
FF8000F800
FF8000F800
FF8000F000
FF8000F000
FF8000F000
FF8000F000
FF8000F000
FF8000F000
FF8001F000
FFFFFFF000
FFFFFFF000
FFFFFFF000
FFFFFFF000
7FFFFFE000
ENDCHAR
STARTCHAR 0027
ENCODING 39
SWIDTH 214 0
DWIDTH 12 0
BBX 4 12 4 26
BITMAP
F0
F0
F0
F0
F0
F0
F0
F0
F0
F0
F0
60
ENDCHAR
STARTCHAR 0028
ENCODING 40
SWIDTH 464 0
DWIDTH 26 0
BBX 16 52 9 -8
BITMAP
7FFF
FFFF
FFFF
FFFF
FE00
F800
F800
F800
F800
F800
F800
F800
F800
F800
F800
F800
F800
F800
F800
F800
F800
F800
F800
F800
F800
F800
F800
F800
F800
F800
F800
F800
F800
F800
F800
F800
F800
F800
F800
F800
F800
F800
F800
F800
F800
F800
FC00
FFFE
FFFF
FFFF
7FFF
3FFE
ENDCHAR
STARTCHAR 0029
ENCODING 41
SWIDTH 464 0
DWIDTH 26 0
BBX 16 52 1 -8
BITMAP
FFFE
FFFF
FFFF
FFFF
007F
001F
001F
001F
001F
001F
001F
001F
001F
001F
001F
001F
001F
001F
001F
001F
001F
001F
001F
001F
001F
001F
001F
001F
001F
001F
001F
001F
001F
001F
001F
001F
001F
001F
001F
001F
001F
001F
001F
001F
001F
001F
003F
7FFF
FFFF
FFFF
FFFE
7FF8
ENDCHAR
STARTCHAR 002A
ENCODING 42
SWIDTH 339 0
DWIDTH 19 0
BBX 11 12 4 25
BITMAP
0E00
0E00
CE60
FFE0
FFE0
3F80
3F80
FFE0
FFE0
CE60
0E00
0E00
ENDCHAR
STARTCHAR 002B
ENCODING 43
SWIDTH 535 0
DWIDTH 30 0
BBX 26 26 2 0
BITMAP
003F0000
003F0000
003F0000
003F0000
003F0000
003F0000
003F0000
003F0000
003F0000
003F0000
FFFFFFC0
FFFFFFC0
FFFFFFC0
FFFFFFC0
FFFFFFC0
FFFFFFC0
003F0000
003F0000
003F0000
003F0000
003F0000
003F0000
003F0000
003F0000
003F0000
003F0000
ENDCHAR
STARTCHAR 002C
ENCODING 44
SWIDTH 250 0
DWIDTH 14 0
BBX 8 12 3 -5
BITMAP
3E
FF
FF
FF
FF
FF
7F
0F
07
07
07
07
ENDCHAR
STARTCHAR 002D
ENCODING 45
SWIDTH 464 0
DWIDTH 26 0
BBX 21 5 3 10
BITMAP
FFFFF0
FFFFF8
FFFFF8
FFFFF0
3FFFE0
ENDCHAR
STARTCHAR 002E
ENCODING 46
SWIDTH 250 0
DWIDTH 14 0
BBX 8 7 3 0
BITMAP
7E
FF
FF
FF
FF
FF
7E
ENDCHAR
STARTCHAR 002F
ENCODING 47
SWIDTH 517 0
DWIDTH 29 0
BBX 27 44 1 -3
BITMAP
000000C0
000001E0
000003E0
000003E0
000007C0
000007C0
00000F80
00001F80
00001F00
00003F00
00003E00
00007C00
0000FC00
0000F800
0001F800
0001F000
0003F000
0003E000
0007C000
000FC000
000F8000
001F8000
001F0000
003E0000
007E0000
007C0000
00FC0000
00F80000
01F80000
01F00000
03E00000
07E00000
07C00000
0FC00000
0F800000
1F800000
3F000000
3E000000
7E000000
7C000000
FC000000
F8000000
F0000000
F0000000
ENDCHAR
STARTCHAR 0030
ENCODING 48
SWIDTH 607 0
DWIDTH 34 0
BBX 29 37 3 0
BITMAP
7FFFFFE0
FFFFFFF0
FFFFFFF0
FFFFFFF0
FC0003F8
F80001F8
F00000F8
F00000F8
F00000F8
F00000F8
F00000F8
F00000F8
F00000F8
F00001F8
F00007F8
F0000FF8
F0000FF8
F0000FF8
F0000FF8
F0000FF8
F0000FF8
F0000FF8
F0000FF8
F0000FF8
F0000FF8
F0000FF8
F0000FF8
F0000FF8
F0000FF8
F0000FF8
F8000FF8
F8001FF8
FFFFFFF8
FFFFFFF0
FFFFFFF0
FFFFFFF0
7FFFFFE0
ENDCHAR
STARTCHAR 0031
ENCODING 49
SWIDTH 250 0
DWIDTH 14 0
BBX 9 38 2 0
BITMAP
0200
0780
0F80
0F80
0F80
0F80
0F80
0F80
0F80
0F80
0F80
0F80
0F80
0F80
0F80
3F80
7F80
FF80
FF80
FF80
FF80
FF80
FF80
FF80
FF80
FF80
FF80
FF80
FF80
FF80
FF80
FF80
FF80
FF80
FF80
FF80
7F00
3E00
ENDCHAR
STARTCHAR 0032
ENCODING 50
SWIDTH 571 0
DWIDTH 32 0
BBX 28 37 2 0
BITMAP
7FFFFFE0
7FFFFFF0
FFFFFFF0
FFFFFFF0
FE0007F0
F80001F0
F80001F0
F80001F0
F80001F0
F80001F0
F80001F0
700001F0
000001F0
000001F0
000001F0
000001F0
000001F0
000003F0
7FFFFFF0
7FFFFFF0
FFFFFFF0
FFFFFFE0
FFF00000
FFC00000
FF800000
FF800000
FF800000
FF800000
FF800000
FF800000
FF800000
FFC00000
FFFFFFE0
FFFFFFF0
FFFFFFF0
7FFFFFF0
3FFFFFE0
ENDCHAR
STARTCHAR 0033
ENCODING 51
SWIDTH 571 0
DWIDTH 32 0
BBX 28 37 2 0
BITMAP
7FFFFC00
FFFFFE00
FFFFFE00
FFFFFF00
FC007F00
F8003F00
F8001F00
F8001F00
F8001F00
F8001F00
F0001F00
F0001F00
00001F00
00003F00
07FFFFC0
0FFFFFE0
0FFFFFF0
0FFFFFF0
07FFFFF0
00003FF0
00001FF0
00001FF0
00001FF0
00001FF0
70001FF0
F0001FF0
F8001FF0
F8001FF0
F8001FF0
F8001FF0
F8001FF0
F8003FF0
FFFFFFF0
FFFFFFF0
FFFFFFE0
FFFFFFE0
3FFFFFC0
ENDCHAR
STARTCHAR 0034
ENCODING 52
SWIDTH 589 0
DWIDTH 33 0
BBX 31 37 2 0
BITMAP
7FFFFFC0
7FFFFFC0
FFFFFFE0
FFFFFFE0
FE000FE0
F80003E0
F80003E0
F80003E0
F80003E0
F80003E0
F80003E0
F80003E0
F80003E0
F80003E0
F80003E0
F80003E0
F80003E0
F80003E0
F80003E0
F80003E0
F80003E0
FC0007F0
FFFFFFFC
FFFFFFFE
FFFFFFFE
7FFFFFFE
3FFFFFFE
00007FF0
00003FE0
00003FE0
00003FE0
00003FE0
00003FE0
00003FE0
00003FE0
00001FC0
00000F80
ENDCHAR
STARTCHAR 0035
ENCODING 53
SWIDTH 571 0
DWIDTH 32 0
BBX 28 37 2 0
BITMAP
7FFFFFC0
7FFFFFC0
FFFFFFC0
FFFFFFC0
FE000000
F8000000
F8000000
F8000000
F8000000
F8000000
F8000000
F8000000
F8000000
FC000000
FFFFFF80
FFFFFFE0
FFFFFFF0
7FFFFFF0
3FFFFFF0
00003FF0
00001FF0
00001FF0
00001FF0
00001FF0
30001FF0
78001FF0
F8001FF0
F8001FF0
F8001FF0
F8001FF0
F8001FF0
FC003FF0
FFFFFFF0
FFFFFFF0
FFFFFFF0
7FFFFFE0
3FFFFFC0
ENDCHAR
STARTCHAR 0036
ENCODING 54
SWIDTH 607 0
DWIDTH 34 0
BBX 29 37 3 0
BITMAP
7FFFFFC0
FFFFFFE0
FFFFFFE0
FFFFFFE0
FE001FE0
F80003E0
F80003E0
F00003E0
F00003E0
F00003E0
F00003E0
F00001E0
F8000000
F8000000
FFFFFFC0
FFFFFFF0
FFFFFFF0
FFFFFFF8
FFFFFFF8
F8001FF8
F8001FF8
F0000FF8
F0000FF8
F0000FF8
F0000FF8
F0000FF8
F0000FF8
F0000FF8
F0000FF8
F0000FF8
F8000FF8
F8001FF8
FFFFFFF8
FFFFFFF0
FFFFFFF0
FFFFFFF0
7FFFFFE0
ENDCHAR
STARTCHAR 0037
ENCODING 55
SWIDTH 482 0
DWIDTH 27 0
BBX 23 37 1 0
BITMAP
7FFFFC
FFFFFE
FFFFFE
7FFFFE
0000FE
00003E
00003E
00003E
00003E
00003E
00003E
00003E
00003E
00007E
0000FE
0001FE
0003FE
0003FE
0003FE
0003FE
0003FE
0003FE
0003FE
0003FE
0003FE
0003FE
0003FE
0003FE
0003FE
0003FE
0003FE
0003FE
0003FE
0003FE
0003FE
0001FC
0000F8
ENDCHAR
STARTCHAR 0038
ENCODING 56
SWIDTH 589 0
DWIDTH 33 0
BBX 29 37 2 0
BITMAP
07FFFF00
0FFFFF00
0FFFFF80
0FFFFF80
0FE03F80
0F801F80
0F800F80
0F800F80
0F800F80
0F800F80
0F800F80
0F800F80
0F800F80
1F801FC0
7FFFFFE0
FFFFFFF0
FFFFFFF8
FFFFFFF8
FFFFFFF8
FC001FF8
F8000FF8
F8000FF8
F8000FF8
F8000FF8
F8000FF8
F8000FF8
F8000FF8
F8000FF8
F8000FF8
F8000FF8
F8000FF8
F8001FF8
FFFFFFF8
FFFFFFF8
FFFFFFF8
FFFFFFF0
3FFFFFE0
ENDCHAR
STARTCHAR 0039
ENCODING 57
SWIDTH 571 0
DWIDTH 32 0
BBX 27 37 2 0
BITMAP
7FFFFFC0
FFFFFFE0
FFFFFFE0
FFFFFFE0
FFFFFFE0
F80003E0
F00003E0
F00001E0
F00001E0
F00001E0
F00001E0
F00001E0
F00001E0
F00001E0
F00001E0
F00001E0
F80003E0
FC0007E0
FFFFFFE0
FFFFFFE0
FFFFFFE0
FFFFFFE0
1FFFFFE0
00003FE0
00003FE0
00003FE0
00003FE0
00003FE0
00003FE0
00003FE0
00003FE0
00003FE0
00003FE0
00001FE0
00001FE0
00001FE0
00000FC0
ENDCHAR
STARTCHAR 003A
ENCODING 58
SWIDTH 250 0
DWIDTH 14 0
BBX 8 26 3 0
BITMAP
FF
FF
FF
FF
FF
FF
00
00
00
00
00
00
00
00
00
00
00
00
00
7E
FF
FF
FF
FF
FF
7E
ENDCHAR
STARTCHAR 003B
ENCODING 59
SWIDTH 250 0
DWIDTH 14 0
BBX 8 31 3 -5
BITMAP
FF
FF
FF
FF
FF
FF
00
00
00
00
00
00
00
00
00
00
00
00
00
3E
FF
FF
FF
FF
FF
7F
0F
07
07
07
07
ENDCHAR
STARTCHAR 003C
ENCODING 60
SWIDTH 535 0
DWIDTH 30 0
BBX 26 26 2 0
BITMAP
00000040
000003C0
00001FC0
00007FC0
0003FFC0
000FFFC0
007FFF80
03FFFC00
0FFFE000
7FFF0000
FFF80000
FFE00000
FF000000
FF800000
FFF00000
FFFE0000
3FFF8000
07FFF000
01FFFE00
003FFFC0
000FFFC0
0001FFC0
00003FC0
00000FC0
000001C0
00000040
ENDCHAR
STARTCHAR 003D
ENCODING 61
SWIDTH 535 0
DWIDTH 30 0
BBX 26 17 2 5
BITMAP
FFFFFFC0
FFFFFFC0
FFFFFFC0
FFFFFFC0
FFFFFFC0
FFFFFFC0
00000000
00000000
00000000
00000000
00000000
00000000
FFFFFFC0
FFFFFFC0
FFFFFFC0
FFFFFFC0
FFFFFFC0
ENDCHAR
STARTCHAR 003E
ENCODING 62
SWIDTH 535 0
DWIDTH 30 0
BBX 26 25 2 0
BITMAP
80000000
F0000000
FE000000
FF800000
FFF00000
FFFC0000
7FFF8000
0FFFF000
01FFFC00
003FFF80
000FFFC0
0001FFC0
00003FC0
00007FC0
0003FFC0
001FFFC0
00FFFF00
03FFF800
1FFFE000
FFFF0000
FFF80000
FFE00000
FF000000
FC000000
E0000000
ENDCHAR
STARTCHAR 003F
ENCODING 63
SWIDTH 517 0
DWIDTH 29 0
BBX 25 37 3 0
BITMAP
FFFFFE00
FFFFFF00
FFFFFF00
FFFFFF00
0000FF80
00001F80
00000F80
00000F80
00000F80
00000F80
00000F80
00000F80
00000F80
00001F80
3FFFFF80
FFFFFF00
FFFFFF00
FFFFFF00
FFFFFE00
FFC00000
FF800000
FF800000
FF000000
FF000000
FF000000
FF000000
FF000000
7E000000
00000000
00000000
7E000000
FF000000
FF000000
FF000000
FF000000
FF000000
7E000000
ENDCHAR
STARTCHAR 0040
ENCODING 64
SWIDTH 589 0
DWIDTH 33 0
BBX 29 37 2 0
BITMAP
7FFFFFF0
7FFFFFF8
FFFFFFF8
FFFFFFF8
FF003FF8
F8000FF8
F8000FF8
F8000FF8
F8000FF8
F8000FF8
F80007F8
F80001F8
F80000F8
F8FFF8F8
F8FFFCF8
F8E01CF8
F8E01CF8
F8601CF8
F8001CF8
F87FFCF8
F8FFFCF8
F8FFFCF8
F8FC1CF8
F8F81CF8
F8F81CF8
F8F81CF8
F8F81FF8
F8FFFFF8
F8FFFFF0
F87FFFC0
F8000000
FC000000
FFFFE000
FFFFF800
FFFFF800
7FFFF800
3FFFF000
ENDCHAR
STARTCHAR 0041
ENCODING 65
SWIDTH 589 0
DWIDTH 33 0
BBX 29 37 2 0
BITMAP
07FFFF00
0FFFFF00
0FFFFF80
0FFFFF80
0FE03F80
0F801F80
0F800F80
0F800F80
0F800F80
0F800F80
0F800F80
0F800F80
0F800F80
1F801F80
7FFFFFF0
FFFFFFF0
FFFFFFF8
FFFFFFF8
FFFFFFF8
FFC001F8
FF8000F8
FF8000F8
FF8000F8
FF8000F8
FF8000F8
FF8000F8
FF8000F8
FF8000F8
FF8000F8
FF8000F8
FF8000F8
FF8000F8
FF8000F8
FF8000F8
FF0000F8
FF0000F8
3E000070
ENDCHAR
STARTCHAR 0042
ENCODING 66
SWIDTH 589 0
DWIDTH 33 0
BBX 29 37 3 0
BITMAP
7FFFFE00
FFFFFF00
FFFFFF00
FFFFFF00
FE003F80
F8001F80
F0000F80
F0000F80
F0000F80
F0000F80
F0000F80
F0000F80
F8001F80
F8001F80
FFFFFFE0
FFFFFFF0
FFFFFFF0
FFFFFFF8
FFFFFFF8
FF8001F8
FF8001F8
FF0000F8
FF0000F8
FF0000F8
FF0000F8
FF0000F8
FF0000F8
FF0000F8
FF0000F8
FF0000F8
FF8000F8
FF8001F8
FFFFFFF8
FFFFFFF0
FFFFFFF0
FFFFFFF0
7FFFFFE0
ENDCHAR
STARTCHAR 0043
ENCODING 67
SWIDTH 571 0
DWIDTH 32 0
BBX 27 37 3 0
BITMAP
7FFFFFC0
FFFFFFE0
FFFFFFE0
FFFFFFE0
FE000FE0
F80003E0
F80003E0
F00001E0
F00001E0
F00001E0
F00001E0
F0000000
F8000000
F8000000
FE000000
FF000000
FF000000
FF000000
FF000000
FF000000
FF000000
FF000000
FF000000
FF0000C0
FF0001E0
FF0001E0
FF0001E0
FF0001E0
FF0001E0
FF0003E0
FF8003E0
FF8003E0
FFFFFFE0
FFFFFFE0
FFFFFFE0
FFFFFFE0
7FFFFFC0
ENDCHAR
STARTCHAR 0044
ENCODING 68
SWIDTH 607 0
DWIDTH 34 0
BBX 29 37 3 0
BITMAP
7FFFFFE0
FFFFFFF0
FFFFFFF0
FFFFFFF0
FC0003F8
F80001F8
F00000F8
F00000F8
F00000F8
F00000F8
F00000F8
F00000F8
F00000F8
F80000F8
FE0000F8
FF0000F8
FF0000F8
FF0000F8
FF0000F8
FF0000F8
FF0000F8
FF0000F8
FF0000F8
FF0000F8
FF0000F8
FF0000F8
FF0000F8
FF0000F8
FF0000F8
FF0000F8
FF8000F8
FF8001F8
FFFFFFF8
FFFFFFF0
FFFFFFF0
FFFFFFF0
7FFFFFE0
ENDCHAR
STARTCHAR 0045
ENCODING 69
SWIDTH 482 0
DWIDTH 27 0
BBX 23 37 3 0
BITMAP
7FFFFC
FFFFFE
FFFFFC
FFFFFC
FE0000
F80000
F80000
F00000
F00000
F00000
F00000
F00000
F80000
F80000
FFFFF8
FFFFFC
FFFFFE
FFFFFC
FFFFFC
FF8000
FF8000
FF0000
FF0000
FF0000
FF0000
FF0000
FF0000
FF0000
FF0000
FF0000
FF8000
FF8000
FFFFF8
FFFFFC
FFFFFE
FFFFFC
7FFFFC
ENDCHAR
STARTCHAR 0046
ENCODING 70
SWIDTH 482 0
DWIDTH 27 0
BBX 23 37 3 0
BITMAP
7FFFFC
FFFFFC
FFFFFC
FFFFFC
FE0000
F80000
F80000
F00000
F00000
F00000
F00000
F00000
F80000
F80000
FFFFF8
FFFFFC
FFFFFE
FFFFFC
FFFFFC
FF8000
FF8000
FF0000
FF0000
FF0000
FF0000
FF0000
FF0000
FF0000
FF0000
FF0000
FF0000
FF0000
FF0000
FF0000
FF0000
FF0000
7E0000
ENDCHAR
STARTCHAR 0047
ENCODING 71
SWIDTH 607 0
DWIDTH 34 0
BBX 28 37 3 0
BITMAP
7FFFFFE0
FFFFFFF0
FFFFFFF0
FFFFFFF0
FE0007F0
F80001F0
F80001F0
F00001F0
F00001F0
F00001F0
F00000E0
F0000000
F8000000
F8000000
FE003FC0
FF007FE0
FF00FFF0
FF007FF0
FF007FF0
FF0003F0
FF0001F0
FF0001F0
FF0001F0
FF0001F0
FF0001F0
FF0001F0
FF0001F0
FF0001F0
FF0001F0
FF8001F0
FF8001F0
FF8003F0
FFFFFFF0
FFFFFFF0
FFFFFFF0
FFFFFFE0
3FFFFFC0
ENDCHAR
STARTCHAR 0048
ENCODING 72
SWIDTH 607 0
DWIDTH 34 0
BBX 28 38 3 0
BITMAP
00000040
F00000F0
F00000F0
F00001F0
F00001F0
F00001F0
F00001F0
F00001F0
F00001F0
F00001F0
F00001F0
F00001F0
F00001F0
F80001F0
F80001F0
FFFFFFF0
FFFFFFF0
FFFFFFF0
FFFFFFF0
FFFFFFF0
FFC003F0
FF8001F0
FF8001F0
FF0001F0
FF0001F0
FF0001F0
FF0001F0
FF0001F0
FF0001F0
FF0001F0
FF0001F0
FF0001F0
FF0001F0
FF0001F0
FF0001F0
FF0001F0
FF0001F0
7E0000F0
ENDCHAR
STARTCHAR 0049
ENCODING 73
SWIDTH 232 0
DWIDTH 13 0
BBX 8 37 3 1
BITMAP
F0
F0
F0
F0
F0
F0
F0
F0
F0
F0
F0
F0
F0
F8
FE
FF
FF
FF
FF
FF
FF
FF
FF
FF
FF
FF
FF
FF
FF
FF
FF
FF
FF
FF
FF
FF
7E
ENDCHAR
STARTCHAR 004A
ENCODING 74
SWIDTH 535 0
DWIDTH 30 0
BBX 26 38 2 0
BITMAP
00001000
00003C00
00007C00
00007C00
00007C00
00007C00
00007C00
00007C00
00007C00
00007C00
00007C00
00007C00
00007C00
00007C00
00007E00
00007F80
00007FC0
00007FC0
00007FC0
00007FC0
00007FC0
00007FC0
00007FC0
00007FC0
60007FC0
F0007FC0
F0007FC0
F0007FC0
F0007FC0
F0007FC0
F0007FC0
F0007FC0
F800FFC0
FFFFFFC0
FFFFFFC0
FFFFFFC0
FFFFFF80
7FFFFF00
ENDCHAR
STARTCHAR 004B
ENCODING 75
SWIDTH 589 0
DWIDTH 33 0
BBX 28 38 3 0
BITMAP
00001000
F0003C00
F0003C00
F0007C00
F0007C00
F0007C00
F0007C00
F0007C00
F0007C00
F0007C00
F0007C00
F0007C00
F0007C00
F8007C00
F8007E00
FFFFFFE0
FFFFFFF0
FFFFFFF0
FFFFFFF0
FFFFFFF0
FFC003F0
FF8001F0
FF8001F0
FF0001F0
FF0001F0
FF0001F0
FF0001F0
FF0001F0
FF0001F0
FF0001F0
FF0001F0
FF0001F0
FF0001F0
FF0001F0
FF0001F0
FF0001F0
FF0001F0
7E0000F0
ENDCHAR
STARTCHAR 004C
ENCODING 76
SWIDTH 482 0
DWIDTH 27 0
BBX 23 37 3 1
BITMAP
F00000
F00000
F00000
F00000
F00000
F00000
F00000
F00000
F00000
F00000
F00000
F00000
F00000
F80000
FE0000
FF0000
FF0000
FF0000
FF0000
FF0000
FF0000
FF0000
FF0000
FF0000
FF0000
FF0000
FF0000
FF0000
FF0000
FF0000
FF8000
FF8000
FFFFF8
FFFFFC
FFFFFE
FFFFFC
7FFFFC
ENDCHAR
STARTCHAR 004D
ENCODING 77
SWIDTH 803 0
DWIDTH 45 0
BBX 39 37 3 0
BITMAP
7FFFFFFFFC
FFFFFFFFFE
FFFFFFFFFE
FFFFFFFFFE
FE00FF807E
F8003E003E
F8003E003E
F0003E003E
F0003E001E
F0003E001E
F0003E001E
F0003E001E
F8003E001E
F8003E001E
FE003E001E
FF003E001E
FF003E001E
FF003E001E
FF003E001E
FF003E001E
FF003E001E
FF003E001E
FF003E001E
FF003E001E
FF003E001E
FF003E001E
FF003E001E
FF003E001E
FF003E001E
FF003E001E
FF003E001E
FF003E001E
FF003E001E
FF003E001E
FF003E001E
FF003E001E
7E001C001E
ENDCHAR
STARTCHAR 004E
ENCODING 78
SWIDTH 589 0
DWIDTH 33 0
BBX 27 37 3 0
BITMAP
7FFFFFC0
FFFFFFE0
FFFFFFE0
FFFFFFE0
FE000FE0
F80003E0
F00003E0
F00001E0
F00001E0
F00001E0
F00001E0
F00001E0
F80001E0
F80001E0
FE0001E0
FF0001E0
FF0001E0
FF0001E0
FF0001E0
FF0001E0
FF0001E0
FF0001E0
FF0001E0
FF0001E0
FF0001E0
FF0001E0
FF0001E0
FF0001E0
FF0001E0
FF0001E0
FF0001E0
FF0001E0
FF0001E0
FF0001E0
FF0001E0
FF0001E0
7E0001E0
ENDCHAR
STARTCHAR 004F
ENCODING 79
SWIDTH 607 0
DWIDTH 34 0
BBX 29 37 3 0
BITMAP
7FFFFFE0
FFFFFFF0
FFFFFFF0
FFFFFFF0
FE007FF8
F8001FF8
F0000FF8
F0000FF8
F0000FF8
F0000FF8
F0000FF8
F00003F8
F00001F8
F00000F8
F00000F8
F00000F8
F00000F8
F00000F8
F00000F8
F00000F8
F00000F8
F00000F8
F00000F8
F00000F8
F00000F8
F00000F8
F00000F8
F00000F8
F00000F8
F00000F8
F80000F8
F80001F8
FFFFFFF8
FFFFFFF0
FFFFFFF0
FFFFFFF0
7FFFFFE0
ENDCHAR
STARTCHAR 0050
ENCODING 80
SWIDTH 517 0
DWIDTH 29 0
BBX 25 37 3 0
BITMAP
7FFFFE00
FFFFFF00
FFFFFF00
FFFFFF00
FE007F00
F8001F80
F8000F80
F0000F80
F0000F80
F0000F80
F0000F80
F0000F80
F8001F80
F8001F80
FFFFFF00
FFFFFF00
FFFFFF00
FFFFFF00
FFFFFE00
FF800000
FF800000
FF000000
FF000000
FF000000
FF000000
FF000000
FF000000
FF000000
FF000000
FF000000
FF000000
FF000000
FF000000
FF000000
FF000000
FF000000
7E000000
ENDCHAR
STARTCHAR 0051
ENCODING 81
SWIDTH 607 0
DWIDTH 34 0
BBX 29 37 3 0
BITMAP
7FFFFFF0
FFFFFFF0
FFFFFFF0
FFFFFFF8
FE0003F8
F80001F8
F80000F8
F00000F8
F00000F8
F00000F8
F00000F8
F00000F8
F00000F8
F00000F8
F00000F8
F00000F8
F00000F8
F00000F8
F00000F8
F00000F8
F00000F8
F00000F8
F00000F8
F00000F8
F00000F8
F00000F8
F00000F8
F00001F8
F007FFF8
F00FFFF8
F81FFFF8
F81FFFF8
FFFFFFF8
FFFFFFF8
FFFFFFF0
FFFFFFF0
7FFFFFE0
ENDCHAR
STARTCHAR 0052
ENCODING 82
SWIDTH 589 0
DWIDTH 33 0
BBX 29 37 3 0
BITMAP
7FFFFE00
FFFFFF00
FFFFFF00
FFFFFF00
FC007F80
F8001F80
F8000F80
F0000F80
F0000F80
F0000F80
F0000F80
F0000F80
F8001F80
F8001F80
FFFFFFE0
FFFFFFF0
FFFFFFF8
FFFFFFF8
FFFFFFF8
FFC001F8
FF8001F8
FF0000F8
FF0000F8
FF0000F8
FF0000F8
FF0000F8
FF0000F8
FF0000F8
FF0000F8
FF0000F8
FF0000F8
FF0000F8
FF0000F8
FF0000F8
FF0000F8
FF0000F0
7E0000F0
ENDCHAR
STARTCHAR 0053
ENCODING 83
SWIDTH 589 0
DWIDTH 33 0
BBX 29 37 2 0
BITMAP
3FFFFFF0
7FFFFFF8
FFFFFFF8
FFFFFFF8
FE0003F8
F80000F8
F80000F8
F80000F8
F80000F8
F8000078
F8000070
F8000000
F8000000
FC000000
FFFFFFE0
FFFFFFF0
FFFFFFF8
7FFFFFF8
3FFFFFF8
00001FF8
00000FF8
00000FF8
00000FF8
70000FF8
78000FF8
F8000FF8
F8000FF8
F8000FF8
F8000FF8
F8000FF8
F8000FF8
FC000FF8
FFFFFFF8
FFFFFFF8
7FFFFFF8
7FFFFFF8
3FFFFFE0
ENDCHAR
STARTCHAR 0054
ENCODING 84
SWIDTH 535 0
DWIDTH 30 0
BBX 28 37 1 0
BITMAP
7FFFFFF0
FFFFFFF0
FFFFFFF0
7FFFFFE0
007FC000
001F0000
001F0000
001F0000
001F0000
001F0000
001F0000
001F0000
001F0000
001F8000
001FE000
001FF000
001FF000
001FF000
001FF000
001FF000
001FF000
001FF000
001FF000
001FF000
001FF000
001FF000
001FF000
001FF000
001FF000
001FF000
001FF000
001FF000
001FF000
001FF000
001FF000
000FE000
0007C000
ENDCHAR
STARTCHAR 0055
ENCODING 85
SWIDTH 589 0
DWIDTH 33 0
BBX 27 37 3 1
BITMAP
F00001E0
F00001E0
F00001E0
F00001E0
F00001E0
F00001E0
F00001E0
F00001E0
F00001E0
F00001E0
F00001E0
F00001E0
F80001E0
F80001E0
FE0001E0
FF0001E0
FF0001E0
FF0001E0
FF0001E0
FF0001E0
FF0001E0
FF0001E0
FF0001E0
FF0001E0
FF0001E0
FF0001E0
FF0001E0
FF0001E0
FF0001E0
FF0001E0
FF8003E0
FF8003E0
FFFFFFE0
FFFFFFE0
FFFFFFE0
FFFFFFE0
3FFFFFC0
ENDCHAR
STARTCHAR 0056
ENCODING 86
SWIDTH 571 0
DWIDTH 32 0
BBX 28 38 2 0
BITMAP
00000040
7F0001E0
FF0001F0
FF8001F0
FF8001F0
FF8001F0
FF8001F0
FF8001F0
FF8001F0
FF8001F0
FF8001F0
FF8001F0
FF8001F0
FF8001F0
FF8001F0
FF8001F0
FF8001F0
FF8003F0
FF8007F0
FF801FF0
FF801FF0
FF801FF0
FF801FE0
3F801FC0
1F801F00
0F801F00
0F801F00
0F801F00
0F801F00
0F801F00
0F801F00
0F801F00
0F803F00
0FFFFF00
0FFFFF00
0FFFFE00
07FFFE00
03FFFC00
ENDCHAR
STARTCHAR 0057
ENCODING 87
SWIDTH 803 0
DWIDTH 45 0
BBX 39 38 3 0
BITMAP
0000080008
F0001C001E
F0003E001E
F0003E003E
F0003E003E
F0003E003E
F0003E003E
F0003E003E
F0003E003E
F0003E003E
F0003E003E
F0003E003E
F0003E003E
F8003E003E
F8003E003E
FE003E003E
FF003E003E
FF003E003E
FF003E003E
FF003E003E
FF003E003E
FF003E003E
FF003E003E
FF003E003E
FF003E003E
FF003E003E
FF003E003E
FF003E003E
FF003E003E
FF003E003E
FF003E003E
FF803E003E
FF807F003E
FFFFFFFFFE
FFFFFFFFFE
FFFFFFFFFE
FFFFFFFFFE
7FFFFFFFF8
ENDCHAR
STARTCHAR 0058
ENCODING 88
SWIDTH 607 0
DWIDTH 34 0
BBX 28 38 3 0
BITMAP
00000040
F00000F0
F00001F0
F00001F0
F00001F0
F00001F0
F00001F0
F00001F0
F00001F0
F00001F0
F00001F0
F00001F0
F80001F0
F80001F0
FC0003F0
FFFFFFE0
7FFFFFE0
1FFFFF00
7FFFFFC0
FFFFFFE0
FFC003F0
FF8001F0
FF8001F0
FF0001F0
FF0001F0
FF0001F0
FF0001F0
FF0001F0
FF0001F0
FF0001F0
FF0001F0
FF0001F0
FF0001F0
FF0001F0
FF0001F0
FF0001F0
FF0001F0
7E0000F0
ENDCHAR
STARTCHAR 0059
ENCODING 89
SWIDTH 517 0
DWIDTH 29 0
BBX 26 38 2 0
BITMAP
40000100
F00003C0
F00007C0
F00007C0
F00007C0
F00007C0
F00007C0
F00007C0
F00007C0
F00007C0
F00007C0
F00007C0
F00007C0
F00007C0
F8000FC0
FFFFFFC0
FFFFFFC0
FFFFFFC0
FFFFFF80
3FFFFF00
01FFC000
00FF8000
00FF8000
00FF8000
00FF8000
00FF8000
00FF8000
00FF8000
00FF8000
00FF8000
00FF8000
00FF8000
00FF8000
00FF8000
00FF8000
007F8000
007F0000
003E0000
ENDCHAR
STARTCHAR 005A
ENCODING 90
SWIDTH 589 0
DWIDTH 33 0
BBX 28 37 2 0
BITMAP
3FFFFFE0
7FFFFFF0
7FFFFFF0
FFFFFFF0
FE0007F0
FC0001F0
F80001F0
F80001F0
780000F0
780000F0
700001F0
000001F0
000003F0
00003FF0
007FFFF0
3FFFFFF0
7FFFFFE0
7FFFFF80
FFFF8000
FFC00000
FFC00000
FF800000
FF800000
FF800060
FF8000F0
FF8000F0
FF8000F0
FF8000F0
FF8000F0
FF8001F0
FF8001F0
FFC001F0
FFFFFFF0
FFFFFFF0
7FFFFFF0
7FFFFFF0
3FFFFFE0
ENDCHAR
STARTCHAR 005B
ENCODING 91
SWIDTH 464 0
DWIDTH 26 0
BBX 16 52 9 -8
BITMAP
7FFF
FFFF
FFFF
FFFF
FE00
F800
F800
F800
F800
F800
F800
F800
F800
F800
F800
F800
F800
F800
F800
F800
F800
FE00
FF00
FF80
FF80
FF80
FF80
FF80
FF80
FF80
FF80
FF80
FF80
FF80
FF80
FF80
FF80
FF80
FF80
FF80
FF80
FF80
FF80
FF80
FF80
FF80
FFC0
FFFE
FFFF
FFFF
7FFF
3FFE
ENDCHAR
STARTCHAR 005C
ENCODING 92
SWIDTH 517 0
DWIDTH 29 0
BBX 27 44 1 -3
BITMAP
60000000
F0000000
F8000000
F8000000
FC000000
7C000000
3E000000
3F000000
1F000000
1F800000
0F800000
0FC00000
07C00000
03E00000
03F00000
01F00000
01F80000
00F80000
007C0000
007E0000
003E0000
003F0000
001F0000
001F8000
000F8000
0007C000
0007E000
0003E000
0003F000
0001F000
0001F800
0000F800
00007C00
00007E00
00003E00
00003F00
00001F00
00000F80
00000FC0
000007C0
000007E0
000003E0
000003E0
000001E0
ENDCHAR
STARTCHAR 005D
ENCODING 93
SWIDTH 464 0
DWIDTH 26 0
BBX 16 52 1 -8
BITMAP
FFFE
FFFF
FFFF
FFFF
07FF
01FF
01FF
01FF
01FF
01FF
01FF
01FF
01FF
01FF
01FF
01FF
01FF
01FF
01FF
01FF
01FF
01FF
01FF
01FF
01FF
01FF
01FF
01FF
01FF
00FF
003F
001F
001F
001F
001F
001F
001F
001F
001F
001F
001F
001F
001F
001F
001F
001F
003F
7FFF
FFFF
FFFF
FFFE
7FFC
ENDCHAR
STARTCHAR 005E
ENCODING 94
SWIDTH 535 0
DWIDTH 30 0
BBX 22 22 4 14
BITMAP
00FC00
00FC00
01FC00
01FE00
01FE00
03FF00
03FF00
07FF00
07DF80
07CF80
0FCFC0
0F8FC0
1F87E0
1F07E0
3F03E0
3F03F0
3E03F0
7E01F8
7E01F8
FC00F8
FC00FC
F800FC
ENDCHAR
STARTCHAR 005F
ENCODING 95
SWIDTH 500 0
DWIDTH 28 0
BBX 28 6 0 -13
BITMAP
FFFFFFF0
FFFFFFF0
FFFFFFF0
FFFFFFF0
FFFFFFF0
FFFFFFF0
ENDCHAR
STARTCHAR 0060
ENCODING 96
SWIDTH 267 0
DWIDTH 15 0
BBX 7 7 4 30
BITMAP
FE
FE
FE
7E
3E
1E
0E
ENDCHAR
STARTCHAR 0061
ENCODING 97
SWIDTH 446 0
DWIDTH 25 0
BBX 21 26 2 0
BITMAP
7FFFF0
FFFFF8
FFFFF8
FFFFF8
F800F8
F00078
F00078
700078
000078
0000F8
7FFFF8
7FFFF8
FFFFF8
FFFFF8
FF80F8
FF0078
FF0078
FF0078
FF0078
FF0078
FF0078
FF80F8
FFFFF8
FFFFF8
7FFFF0
7FFFF0
ENDCHAR
STARTCHAR 0062
ENCODING 98
SWIDTH 446 0
DWIDTH 25 0
BBX 21 37 2 0
BITMAP
700000
F00000
F00000
F00000
F00000
F00000
F00000
F00000
F00000
F80000
FC0000
FFFFF0
FFFFF8
FFFFF8
FFFFF8
F800F8
F00078
F00078
F00078
F00078
F00078
F80078
FF0078
FF0078
FF0078
FF0078
FF0078
FF0078
FF0078
FF0078
FF0078
FF0078
FF80F8
FFFFF8
FFFFF8
7FFFF0
3FFFF0
ENDCHAR
STARTCHAR 0063
ENCODING 99
SWIDTH 446 0
DWIDTH 25 0
BBX 21 26 2 0
BITMAP
7FFFF0
FFFFF8
FFFFF8
FFFFF8
F800F8
F00078
F00078
F00070
F00000
F00000
F80000
FE0000
FF0000
FF0000
FF0000
FF0000
FF0070
FF0078
FF0078
FF0078
FF0078
FF80F8
FFFFF8
FFFFF8
7FFFF0
7FFFF0
ENDCHAR
STARTCHAR 0064
ENCODING 100
SWIDTH 446 0
DWIDTH 25 0
BBX 21 37 2 0
BITMAP
000070
000078
000078
000078
000078
000078
000078
000078
000078
000078
0001F8
7FFFF8
FFFFF8
FFFFF8
FFFFF8
F800F8
F00078
F00078
F00078
F00078
F00078
F80078
FF0078
FF0078
FF0078
FF0078
FF0078
FF0078
FF0078
FF0078
FF0078
FF0078
FF80F8
FFFFF8
FFFFF8
7FFFF0
7FFFF0
ENDCHAR
STARTCHAR 0065
ENCODING 101
SWIDTH 446 0
DWIDTH 25 0
BBX 21 26 2 0
BITMAP
7FFFF0
FFFFF8
FFFFF8
FFFFF8
F800F8
F00078
F00078
F00078
F00078
F800F8
FFFFF8
FFFFF8
FFFFF0
FFFFF0
FF8000
FF0000
FF0000
FF0030
FF0078
FF0078
FF0078
FF80F8
FFFFF8
FFFFF8
7FFFF0
7FFFF0
ENDCHAR
STARTCHAR 0066
ENCODING 102
SWIDTH 285 0
DWIDTH 16 0
BBX 16 37 0 0
BITMAP
07FF
0FFF
0FFF
0FFE
0F80
0F00
0F00
0F00
0F00
0F00
1F80
FFF0
FFF0
FFF0
7FE0
0F00
0F00
0F00
0F00
0F00
0FC0
0FF0
0FF0
0FF0
0FF0
0FF0
0FF0
0FF0
0FF0
0FF0
0FF0
0FF0
0FF0
0FF0
0FF0
0FF0
07E0
ENDCHAR
STARTCHAR 0067
ENCODING 103
SWIDTH 446 0
DWIDTH 25 0
BBX 21 36 2 -10
BITMAP
7FFFF0
FFFFF8
FFFFF8
FFFFF8
F800F8
F00078
F00078
F00078
F00078
F00078
F80078
FF0078
FF0078
FF0078
FF0078
FF0078
FF0078
FF0078
FF0078
FF0078
FF0078
FF80F8
FFFFF8
FFFFF8
7FFFF8
7FFFF8
0000F8
000078
000078
000078
0000F8
0001F8
7FFFF8
FFFFF8
FFFFF0
3FFFE0
ENDCHAR
STARTCHAR 0068
ENCODING 104
SWIDTH 446 0
DWIDTH 25 0
BBX 21 37 2 0
BITMAP
700000
F00000
F00000
F00000
F00000
F00000
F00000
F00000
F00000
F80000
FC0000
FFFFF0
FFFFF8
FFFFF8
FFFFF8
F800F8
F00078
F00078
F00078
F00078
F80078
F80078
FF0078
FF0078
FF0078
FF0078
FF0078
FF0078
FF0078
FF0078
FF0078
FF0078
FF0078
FF0078
FF0078
7F0078
7E0070
ENDCHAR
STARTCHAR 0069
ENCODING 105
SWIDTH 214 0
DWIDTH 12 0
BBX 8 37 2 0
BITMAP
7E
FF
FF
FF
FF
7E
00
00
00
00
00
70
F0
F0
F0
F0
F0
F0
F0
F8
FC
FF
FF
FF
FF
FF
FF
FF
FF
FF
FF
FF
FF
FF
FF
7F
7E
ENDCHAR
STARTCHAR 006A
ENCODING 106
SWIDTH 214 0
DWIDTH 12 0
BBX 12 47 -2 -10
BITMAP
07E0
0FF0
0FF0
0FF0
0FF0
07E0
0000
0000
0000
0000
0000
0700
0F00
0F00
0F00
0F00
0F00
0F00
0F00
0F80
0FC0
0FF0
0FF0
0FF0
0FF0
0FF0
0FF0
0FF0
0FF0
0FF0
0FF0
0FF0
0FF0
0FF0
0FF0
07F0
07F0
01F0
00F0
00F0
00F0
00F0
03F0
FFF0
FFF0
FFF0
7FC0
ENDCHAR
STARTCHAR 006B
ENCODING 107
SWIDTH 446 0
DWIDTH 25 0
BBX 21 37 2 0
BITMAP
700000
F00000
F00000
F00000
F00000
F00000
F00000
F00000
F00000
F00000
F00000
F00780
F00780
F00780
F00780
F00780
F00780
F00780
F80780
FFFFC0
FFFFF0
FFFFF8
FFFFF8
FFFFF8
FF00F8
FF0078
FF0078
FF0078
FF0078
FF0078
FF0078
FF0078
FF0078
FF0078
FF0078
7F0078
7E0070
ENDCHAR
STARTCHAR 006C
ENCODING 108
SWIDTH 214 0
DWIDTH 12 0
BBX 8 37 2 0
BITMAP
70
F0
F0
F0
F0
F0
F0
F0
F0
F8
FC
FF
FF
FF
FF
FF
FF
FF
FF
FF
FF
FF
FF
FF
FF
FF
FF
FF
FF
FF
FF
FF
FF
FF
FF
7F
7E
ENDCHAR
STARTCHAR 006D
ENCODING 109
SWIDTH 607 0
DWIDTH 34 0
BBX 30 26 2 0
BITMAP
7FFFFFF8
FFFFFFF8
FFFFFFFC
FFFFFFFC
F807807C
F007807C
F007803C
F007803C
F007803C
F807803C
F807C03C
FF07F03C
FF07F83C
FF07F83C
FF07F83C
FF07F83C
FF07F83C
FF07F83C
FF07F83C
FF07F83C
FF07F83C
FF07F83C
FF07F83C
FF07F83C
7F07F038
7E03F038
ENDCHAR
STARTCHAR 006E
ENCODING 110
SWIDTH 446 0
DWIDTH 25 0
BBX 21 26 2 0
BITMAP
7FFFF0
FFFFF8
FFFFF8
FFFFF8
F800F8
F00078
F00078
F00078
F00078
F80078
F80078
FF0078
FF0078
FF0078
FF0078
FF0078
FF0078
FF0078
FF0078
FF0078
FF0078
FF0078
FF0078
FF0078
7F0078
7E0070
ENDCHAR
STARTCHAR 006F
ENCODING 111
SWIDTH 446 0
DWIDTH 25 0
BBX 21 26 2 0
BITMAP
7FFFF0
FFFFF8
FFFFF8
FFFFF8
F800F8
F00078
F00078
F00078
F00078
F00078
F80078
FF0078
FF0078
FF0078
FF0078
FF0078
FF0078
FF0078
FF0078
FF0078
FF0078
FF80F8
FFFFF8
FFFFF8
7FFFF0
7FFFF0
ENDCHAR
STARTCHAR 0070
ENCODING 112
SWIDTH 446 0
DWIDTH 25 0
BBX 21 36 2 -10
BITMAP
7FFFF0
FFFFF8
FFFFF8
FFFFF8
F800F8
F00078
F00078
F00078
F00078
F00078
F80078
FF0078
FF0078
FF0078
FF0078
FF0078
FF0078
FF0078
FF0078
FF0078
FF0078
FF80F8
FFFFF8
FFFFF8
FFFFF0
FFFFF0
F80000
F00000
F00000
F00000
F00000
F00000
F00000
F00000
F00000
700000
ENDCHAR
STARTCHAR 0071
ENCODING 113
SWIDTH 446 0
DWIDTH 25 0
BBX 21 36 2 -10
BITMAP
7FFFF0
FFFFF8
FFFFF8
FFFFF8
F800F8
F00078
F00078
F00078
F00078
F00078
F80078
FF0078
FF0078
FF0078
FF0078
FF0078
FF0078
FF0078
FF0078
FF0078
FF0078
FF80F8
FFFFF8
FFFFF8
7FFFF8
7FFFF8
0000F8
000078
000078
000078
000078
000078
000078
000078
000078
000070
ENDCHAR
STARTCHAR 0072
ENCODING 114
SWIDTH 321 0
DWIDTH 18 0
BBX 15 26 2 0
BITMAP
7FFE
FFFE
FFFE
FFFC
F800
F000
F000
F000
F800
FC00
FF00
FF00
FF00
FF00
FF00
FF00
FF00
FF00
FF00
FF00
FF00
FF00
FF00
FF00
7F00
7E00
ENDCHAR
STARTCHAR 0073
ENCODING 115
SWIDTH 446 0
DWIDTH 25 0
BBX 21 26 2 0
BITMAP
7FFFF0
FFFFF8
FFFFF8
FFFFF8
F800F8
F00078
F00078
F00070
F00000
F80000
FFFFF0
FFFFF8
FFFFF8
7FFFF8
000FF8
0007F8
0007F8
7007F8
F007F8
F007F8
F007F8
F80FF8
FFFFF8
FFFFF8
7FFFF0
7FFFF0
ENDCHAR
STARTCHAR 0074
ENCODING 116
SWIDTH 250 0
DWIDTH 14 0
BBX 12 36 0 0
BITMAP
0700
0F00
0F00
0F00
0F00
0F00
0F00
0F00
0F00
1F80
FFF0
FFF0
FFF0
7FE0
0F00
0F00
0F00
0F00
0F00
0FC0
0FF0
0FF0
0FF0
0FF0
0FF0
0FF0
0FF0
0FF0
0FF0
0FF0
0FF0
0FF0
0FF0
0FF0
0FF0
07E0
ENDCHAR
STARTCHAR 0075
ENCODING 117
SWIDTH 446 0
DWIDTH 25 0
BBX 21 26 2 0
BITMAP
700070
F00078
F00078
F00078
F00078
F00078
F00078
F00078
F80078
FC0078
FF0078
FF0078
FF0078
FF0078
FF0078
FF0078
FF0078
FF0078
FF0078
FF0078
FF0078
FF80F8
FFFFF8
FFFFF8
7FFFF0
7FFFF0
ENDCHAR
STARTCHAR 0076
ENCODING 118
SWIDTH 428 0
DWIDTH 24 0
BBX 20 26 2 0
BITMAP
FE00F0
FE00F0
FE00F0
FE00F0
FE00F0
FE00F0
FE00F0
FE00F0
FE00F0
FE00F0
FE00F0
FE00F0
FE01F0
FE07F0
FE0FF0
FE0FE0
1E0F80
1E0F80
1E0F00
1E0F00
1E0F00
1F0F00
1FFF00
1FFF00
1FFF00
0FFE00
ENDCHAR
STARTCHAR 0077
ENCODING 119
SWIDTH 607 0
DWIDTH 34 0
BBX 30 26 2 0
BITMAP
70078038
F007803C
F007803C
F007803C
F007803C
F007803C
F007803C
F007803C
F807803C
FC07E03C
FF07F03C
FF07F83C
FF07F83C
FF07F83C
FF07F83C
FF07F83C
FF07F83C
FF07F83C
FF07F83C
FF07F83C
FF07F87C
FF8FF87C
FFFFFFFC
FFFFFFFC
7FFFFFF8
7FFFFFF8
ENDCHAR
STARTCHAR 0078
ENCODING 120
SWIDTH 446 0
DWIDTH 25 0
BBX 21 26 2 0
BITMAP
700078
F00078
F00078
F00078
F00078
F00078
F00078
F00078
F00078
F800F8
FFFFF8
7FFFF0
1FFFE0
7FFFF0
FF80F8
FF0078
FF0078
FF0078
FF0078
FF0078
FF0078
FF0078
FF0078
FF0078
7F0078
7E0070
ENDCHAR
STARTCHAR 0079
ENCODING 121
SWIDTH 446 0
DWIDTH 25 0
BBX 21 36 2 -10
BITMAP
7E0070
FF0078
FF0078
FF0078
FF0078
FF0078
FF0078
FF0078
FF0078
FF0078
FF0078
FF0078
FF0078
FF0078
FF0078
FE0078
F80078
F00078
F00078
F00078
F00078
F800F8
FFFFF8
FFFFF8
7FFFF8
7FFFF8
0000F8
000078
000078
000078
000078
0001F8
7FFFF8
FFFFF8
FFFFF0
3FFFE0
ENDCHAR
STARTCHAR 007A
ENCODING 122
SWIDTH 446 0
DWIDTH 25 0
BBX 21 26 2 0
BITMAP
7FFFF0
FFFFF8
FFFFF8
FFFFF8
F800F8
F00078
F00078
700078
000078
0000F8
007FF8
3FFFF8
7FFFF0
FFFFE0
FFE000
FF0000
FF0020
FF0078
FF0078
FF0078
FF0078
FF80F8
FFFFF8
FFFFF8
7FFFF8
7FFFF0
ENDCHAR
STARTCHAR 007B
ENCODING 123
SWIDTH 464 0
DWIDTH 26 0
BBX 21 52 4 -8
BITMAP
03FFF8
07FFF8
07FFF8
07FFF8
07F000
07C000
07C000
07C000
07C000
07C000
07C000
07C000
07C000
07C000
07C000
07C000
07C000
07C000
07C000
07C000
07C000
7FF000
FFF800
FFFC00
FFFC00
7FFC00
07FC00
07FC00
07FC00
07FC00
07FC00
07FC00
07FC00
07FC00
07FC00
07FC00
07FC00
07FC00
07FC00
07FC00
07FC00
07FC00
07FC00
07FC00
07FC00
07FC00
07FE00
07FFF0
07FFF8
07FFF8
03FFF8
01FFF0
ENDCHAR
STARTCHAR 007C
ENCODING 124
SWIDTH 500 0
DWIDTH 28 0
BBX 4 50 12 -6
BITMAP
F0
F0
F0
F0
F0
F0
F0
F0
F0
F0
F0
F0
F0
F0
F0
F0
F0
F0
F0
F0
F0
F0
F0
F0
F0
F0
F0
F0
F0
F0
F0
F0
F0
F0
F0
F0
F0
F0
F0
F0
F0
F0
F0
F0
F0
F0
F0
F0
F0
F0
ENDCHAR
STARTCHAR 007D
ENCODING 125
SWIDTH 464 0
DWIDTH 26 0
BBX 21 52 4 -8
BITMAP
FFFE00
FFFF00
FFFF00
FFFF00
07FF00
01FF00
01FF00
01FF00
01FF00
01FF00
01FF00
01FF00
01FF00
01FF00
01FF00
01FF00
01FF00
01FF00
01FF00
01FF00
01FF00
01FF00
01FF00
01FF00
01FF00
01FF00
01FFF8
01FFF8
01FFF8
00FFF8
003F00
001F00
001F00
001F00
001F00
001F00
001F00
001F00
001F00
001F00
001F00
001F00
001F00
001F00
001F00
001F00
003F00
7FFF00
FFFF00
FFFF00
FFFE00
7FFC00
ENDCHAR
STARTCHAR 007E
ENCODING 126
SWIDTH 535 0
DWIDTH 30 0
BBX 26 9 2 9
BITMAP
03000000
1FF001C0
3FFC03C0
7FFFC7C0
7FFFFFC0
FFFFFF80
F07FFF80
F00FFF00
E001FC00
ENDCHAR
STARTCHAR 00A0
ENCODING 160
SWIDTH 214 0
DWIDTH 12 0
BBX 0 0 0 0
BITMAP
ENDCHAR
STARTCHAR 00A1
ENCODING 161
SWIDTH 267 0
DWIDTH 15 0
BBX 9 37 3 0
BITMAP
FF00
FF00
FF00
FF00
FF00
FF00
0000
0000
1800
7F00
FF00
FF00
FF00
FF80
FF80
FF80
FF80
FF80
FF80
FF80
FF80
FF80
3F80
1F80
0F80
0F80
0F80
0F80
0F80
0F80
0F80
0F80
0F80
0F80
0F00
0F00
0F00
ENDCHAR
STARTCHAR 00A2
ENCODING 162
SWIDTH 446 0
DWIDTH 25 0
BBX 20 37 3 0
BITMAP
00F000
00F000
00F000
00F000
00F000
7FFFE0
FFFFF0
FFFFF0
FFFFF0
F801F0
F000F0
F000F0
F000F0
F00060
F00000
F00000
FC0000
FE0000
FE0000
FE0000
FE0000
FE0060
FE00F0
FE00F0
FE00F0
FE00F0
FF00F0
FFFFF0
FFFFF0
FFFFF0
FFFFF0
1FFF80
00F000
00F000
00F000
00F000
00F000
ENDCHAR
STARTCHAR 00A3
ENCODING 163
SWIDTH 517 0
DWIDTH 29 0
BBX 28 37 0 0
BITMAP
03FFFFE0
07FFFFE0
07FFFFE0
07FFFFE0
07E00000
07C00000
07800000
07800000
07800000
07800000
0F800000
0F800000
0FC00000
0FC00000
7FFF8000
FFFFC000
FFFFC000
FFFFC000
7FFF8000
1FFC0000
0FFC0000
0FF80000
0FF80000
07F80000
07F80000
07F80000
07F80000
07F80000
07F80000
07F80000
07FC0000
07FC0000
07FFFFC0
07FFFFE0
07FFFFF0
07FFFFE0
03FFFFE0
ENDCHAR
STARTCHAR 00A4
ENCODING 164
SWIDTH 607 0
DWIDTH 34 0
BBX 28 28 3 1
BITMAP
000000C0
780001E0
7C0003F0
7FFFFFF0
7FFFFFE0
3FFFFFC0
1FFFFF80
0FC01F80
0F000F80
0F000780
0F000780
0F000780
0FE00780
0FF00780
0FF00780
0FF00780
0FF00780
0FF00780
0FF00780
0FF00F80
0FFFFF80
1FFFFF80
3FFFFFC0
7FFFFFE0
7FFFFFE0
FC0003F0
780001E0
300000C0
ENDCHAR
STARTCHAR 00A5
ENCODING 165
SWIDTH 535 0
DWIDTH 30 0
BBX 26 38 2 0
BITMAP
20000100
F00003C0
F80003C0
F80003C0
F80003C0
F80003C0
F80003C0
F80003C0
F80003C0
F80003C0
F80003C0
F80003C0
F80007C0
F80007C0
F80007C0
FFFFFFC0
FFFFFFC0
FFFFFFC0
7FFFFFC0
3FFFFF00
00FFC000
00FFC000
007FC000
007F8000
007F8000
3FFFFF00
3FFFFF80
3FFFFF00
3FFFFF00
007F8000
007F8000
007F8000
007F8000
007F8000
007F8000
007F8000
007F8000
003F0000
ENDCHAR
STARTCHAR 00A6
ENCODING 166
SWIDTH 500 0
DWIDTH 28 0
BBX 4 47 12 -9
BITMAP
F0
F0
F0
F0
F0
F0
F0
F0
F0
F0
F0
F0
F0
F0
F0
F0
F0
F0
F0
60
00
00
00
00
00
00
00
F0
F0
F0
F0
F0
F0
F0
F0
F0
F0
F0
F0
F0
F0
F0
F0
F0
F0
F0
60
ENDCHAR
STARTCHAR 00A7
ENCODING 167
SWIDTH 589 0
DWIDTH 33 0
BBX 29 47 2 -10
BITMAP
3FFFFFF0
7FFFFFF8
FFFFFFF8
FFFFFFF8
FE0003F8
F80000F8
F80000F8
F80000F8
F80000F8
F8000078
F8000070
F8000000
F8000000
FC000000
FFFFFFE0
FFFFFFF0
FFFFFFF8
FFFFFFF8
FFFFFFF8
F8001FF8
F8000FF8
F8000FF8
F8000FF8
F8000FF8
F8000FF8
F8000FF8
F8000FF8
FE001FF8
FFFFFFF8
FFFFFFF8
7FFFFFF8
7FFFFFF8
0FFFFFF8
000003F8
000001F8
300001F8
780001F8
F80001F8
F80001F8
F80001F8
F80001F8
FC0003F8
FFFFFFF8
FFFFFFF8
7FFFFFF8
7FFFFFF0
1FFFFFE0
ENDCHAR
STARTCHAR 00A8
ENCODING 168
SWIDTH 500 0
DWIDTH 28 0
BBX 20 7 4 30
BITMAP
380180
FE07E0
FE0FF0
FF0FF0
FF0FF0
FE0FF0
FE07E0
ENDCHAR
STARTCHAR 00A9
ENCODING 169
SWIDTH 607 0
DWIDTH 34 0
BBX 29 37 3 0
BITMAP
7FFFFFE0
FFFFFFF0
FFFFFFF0
FFFFFFF0
FE007FF8
F8001FF8
F0000FF8
F0000FF8
F0000FF8
F0000FF8
F0000FF8
F0FFF3F8
F0FFF9F8
F0FFF8F8
F0C038F8
F0C038F8
F0C010F8
F0C000F8
F0F000F8
F0F800F8
F0F800F8
F0F800F8
F0F838F8
F0F838F8
F0F838F8
F0F878F8
F0FFF8F8
F0FFF8F8
F00000F8
F00000F8
F80000F8
F80001F8
FFFFFFF8
FFFFFFF0
FFFFFFF0
FFFFFFF0
7FFFFFE0
ENDCHAR
STARTCHAR 00AA
ENCODING 170
SWIDTH 285 0
DWIDTH 16 0
BBX 14 18 1 20
BITMAP
3FF0
7FFC
FFFC
E01C
E01C
601C
001C
7FFC
7FFC
FFFC
FC1C
FC1C
FC1C
FC1C
FC1C
FFFC
7FFC
3FF0
ENDCHAR
STARTCHAR 00AB
ENCODING 171
SWIDTH 392 0
DWIDTH 22 0
BBX 17 20 3 3
BITMAP
040300
0E0700
1E0F00
3E1F00
7E3F00
FE7F00
FE7F00
FC7F00
E07000
E07000
E07000
E07000
F07C00
FE7F00
FE7F80
FE3F80
7E1F80
3E0F80
1E0780
0E0300
ENDCHAR
STARTCHAR 00AC
ENCODING 172
SWIDTH 535 0
DWIDTH 30 0
BBX 26 17 2 5
BITMAP
FFFFFFC0
FFFFFFC0
FFFFFFC0
FFFFFFC0
FFFFFFC0
FFFFFFC0
000007C0
000007C0
000007C0
000007C0
000007C0
000007C0
000007C0
000007C0
000007C0
000007C0
000007C0
ENDCHAR
STARTCHAR 00AD
ENCODING 173
SWIDTH 464 0
DWIDTH 26 0
BBX 21 5 3 10
BITMAP
FFFFF0
FFFFF8
FFFFF8
FFFFF0
3FFFE0
ENDCHAR
STARTCHAR 00AE
ENCODING 174
SWIDTH 607 0
DWIDTH 34 0
BBX 29 37 3 0
BITMAP
7FFFFFE0
FFFFFFF0
FFFFFFF0
FFFFFFF0
FE007FF8
F8001FF8
F0000FF8
F0000FF8
F0000FF8
F0000FF8
F0000FF8
F01FE3F8
F03FF1F8
F03FE0F8
F03800F8
F03800F8
F03800F8
F03800F8
F03E00F8
F03E00F8
F03E00F8
F03E00F8
F03E00F8
F03E00F8
F03E00F8
F03E00F8
F03E00F8
F03E00F8
F00000F8
F00000F8
F80000F8
F80001F8
FFFFFFF8
FFFFFFF0
FFFFFFF0
FFFFFFF0
7FFFFFE0
ENDCHAR
STARTCHAR 00AF
ENCODING 175
SWIDTH 500 0
DWIDTH 28 0
BBX 19 8 5 29
BITMAP
7FFFC0
FFFFE0
FFFFE0
FFFFC0
FFC000
FFC000
FF8000
7F8000
ENDCHAR
STARTCHAR 00B0
ENCODING 176
SWIDTH 357 0
DWIDTH 20 0
BBX 16 17 2 19
BITMAP
03E0
0FF8
3FFC
7FFE
7FFE
FC3F
F81F
F00F
F00F
F00F
F81F
FC3F
7FFE
3FFE
3FFC
0FF0
03C0
ENDCHAR
STARTCHAR 00B1
ENCODING 177
SWIDTH 535 0
DWIDTH 30 0
BBX 26 28 2 -1
BITMAP
003F0000
003F0000
003F0000
003F0000
003F0000
003F0000
003F0000
003F0000
FFFFFFC0
FFFFFFC0
FFFFFFC0
FFFFFFC0
FFFFFFC0
003F0000
003F0000
003F0000
003F0000
003F0000
003F0000
003F0000
003F0000
00000000
00000000
FFFFFFC0
FFFFFFC0
FFFFFFC0
FFFFFFC0
FFFFFFC0
ENDCHAR
STARTCHAR 00B2
ENCODING 178
SWIDTH 375 0
DWIDTH 21 0
BBX 19 25 1 13
BITMAP
1FFE00
7FFFC0
7FFFC0
FFFFC0
F001C0
F001C0
F001C0
6001C0
6001C0
0001C0
0001C0
0001C0
3FFFC0
7FFFC0
FFFFC0
FE0000
FC0000
FC0000
FC0000
FC0000
FC0000
FE0000
FFFFC0
7FFFE0
3FFFC0
ENDCHAR
STARTCHAR 00B3
ENCODING 179
SWIDTH 375 0
DWIDTH 21 0
BBX 18 25 1 13
BITMAP
1FF800
7FFE00
FFFF00
FFFF00
F00F00
E00F00
E00700
E00700
600F00
000F00
1FFFC0
1FFFC0
1FFFC0
000FC0
000FC0
0007C0
0007C0
E007C0
E007C0
E007C0
E00FC0
F01FC0
FFFFC0
FFFFC0
7FFF80
ENDCHAR
STARTCHAR 00B4
ENCODING 180
SWIDTH 267 0
DWIDTH 15 0
BBX 7 7 4 30
BITMAP
FE
FE
FE
FC
F8
F0
E0
ENDCHAR
STARTCHAR 00B5
ENCODING 181
SWIDTH 535 0
DWIDTH 30 0
BBX 21 35 4 -11
BITMAP
F800F8
F800F8
F800F8
F800F8
F800F8
F800F8
F800F8
F800F8
F800F8
F800F8
F800F8
F800F8
F800F8
F800F8
F800F8
F800F8
FC01F8
FC01F8
FE03F8
FF07F8
FFFFF8
FFFF78
FFFE78
F9FC78
F80000
F80000
F80000
F80000
F80000
F80000
F80000
F80000
F80000
F80000
F80000
ENDCHAR
STARTCHAR 00B6
ENCODING 182
SWIDTH 767 0
DWIDTH 43 0
BBX 38 47 3 -10
BITMAP
7FFFFFFFF8
FFFFFFFFF8
FFFFFFFFFC
FFFFFFFFFC
FFFFFF81FC
FFFFFF807C
FFFFFF807C
FFFFFF807C
FFFFFF807C
FFFFFF807C
FFFFFF807C
FFFFFF807C
FFFFFF807C
FFFFFF80FC
FFFFFF83FC
FFFFFF87FC
FFFFFF87FC
FFFFFF87FC
7FFFFF87FC
0001FF87FC
0001FF87FC
0000FF87FC
0000FF87FC
0000FF87FC
0000FF87FC
0000FF87FC
0000FF87FC
0000FF87FC
0000FF87FC
0000FF87FC
0000FF87FC
0000FF87FC
0000FF87FC
0000FF87FC
0000FF87FC
0000FF87FC
0000FF87FC
0000FF87FC
0000FF87FC
0000FF87FC
0000FF87FC
0000FF87FC
0000FF07FC
0000FF07FC
0000FF07FC
0000FF03F8
00003C01F0
ENDCHAR
STARTCHAR 00B7
ENCODING 183
SWIDTH 250 0
DWIDTH 14 0
BBX 8 7 3 15
BITMAP
7E
FF
FF
FF
FF
FF
7E
ENDCHAR
STARTCHAR 00B8
ENCODING 184
SWIDTH 500 0
DWIDTH 28 0
BBX 8 12 10 -11
BITMAP
70
70
70
70
7F
3F
0F
0F
0F
FF
FF
FE
ENDCHAR
STARTCHAR 00B9
ENCODING 185
SWIDTH 160 0
DWIDTH 9 0
BBX 6 25 1 13
BITMAP
08
1C
1C
1C
1C
1C
1C
1C
1C
1C
7C
FC
FC
FC
FC
FC
FC
FC
FC
FC
FC
FC
FC
7C
78
ENDCHAR
STARTCHAR 00BA
ENCODING 186
SWIDTH 285 0
DWIDTH 16 0
BBX 14 18 1 20
BITMAP
3FF0
7FFC
FFFC
E01C
E01C
E01C
E01C
F01C
F81C
F81C
FC1C
FC1C
FC1C
FC1C
FC1C
FFFC
7FFC
3FF0
ENDCHAR
STARTCHAR 00BB
ENCODING 187
SWIDTH 392 0
DWIDTH 22 0
BBX 17 20 3 3
BITMAP
C02000
E07000
F07C00
F87E00
FC7F00
FE7F00
FE7F80
7E3F80
0E0780
0E0780
0E0780
0E0780
1E0F80
FE7F80
FE7F00
FE7F00
FC7E00
F87C00
F07800
E07000
ENDCHAR
STARTCHAR 00BC
ENCODING 188
SWIDTH 785 0
DWIDTH 44 0
BBX 43 39 1 -1
BITMAP
080001E00000
1C0001E00000
1C0003E00000
1C0007E00000
1C0007C00000
1C000FC00000
1C000F800000
1C001F800000
1C001F000000
1C003E000000
7C007E000000
FC007C000000
FC00FC000000
FC00F8000000
FC01F9FFFF00
FC01F1FFFF00
FC03E1FFFF00
FC07E1C00700
FC07C1C00700
FC0FC1C00700
FC0F81C00700
FC1F01C00700
FC3F01C00700
7C3E01C00700
787E01C00700
007C01C00700
00FC01C00700
00F801C00700
01F001FFFFC0
03F001FFFFE0
03E001FFFFE0
07E000007FC0
07C000003F00
0F8000003F00
1F8000003F00
1F0000003F00
1F0000001F00
1E0000001E00
1C0000000000
ENDCHAR
STARTCHAR 00BD
ENCODING 189
SWIDTH 785 0
DWIDTH 44 0
BBX 42 39 1 -1
BITMAP
080001E00000
1C0001E00000
1C0003E00000
1C0007E00000
1C0007C00000
1C000FC00000
1C000F800000
1C001F800000
1C001F000000
1C003E000000
7C007E000000
FC007C000000
FC00FC000000
FC00F8000000
FC01F8FFFF80
FC01F0FFFF80
FC03E1FFFF80
FC07E1E00380
FC07C1E00380
FC0FC1E00380
FC0F81C00380
FC1F00C00380
FC3F00000380
7C3E00000380
787E00000380
007C003FFF80
00FC00FFFF80
00F801FFFF80
01F001FFFE00
03F001F80000
03E001F80000
07E001F80000
07C001F80000
0F8001F80000
1F8001FC0000
1F0001FFFF80
1F0000FFFFC0
1E0000FFFF80
1C0000000000
ENDCHAR
STARTCHAR 00BE
ENCODING 190
SWIDTH 982 0
DWIDTH 55 0
BBX 54 39 1 -1
BITMAP
1FF800001C0000
7FFE00003E0000
FFFF00007C0000
FFFF00007C0000
F00F0000FC0000
E00F0000F80000
E0070001F00000
E0070003F00000
600F0003E00000
000F0007E00000
1FFFC007C00000
1FFFC00F800000
1FFFC01F800000
000FC01F000000
000FC03F1FFFE0
0007C03E3FFFE0
0007C07E3FFFE0
E007C07C3C00E0
E007C0F83800E0
E007C1F83800E0
E00FC1F03800E0
F01FC3F03800E0
FFFFC3E03800E0
FFFFC7C03800E0
7FFF8FC03800E0
00000F803800E0
00001F803800E0
00001F003800F0
00003F003FFFF8
00003E003FFFFC
00007C001FFFFC
0000FC00000FF8
0000F8000007E0
0001F8000003E0
0001F0000003E0
0003F0000003E0
0003E0000003E0
0003C0000003E0
0003C000000000
ENDCHAR
STARTCHAR 00BF
ENCODING 191
SWIDTH 517 0
DWIDTH 29 0
BBX 25 37 2 0
BITMAP
00007F00
0000FF80
0000FF80
0000FF80
0000FF80
0000FF00
00000000
00000000
00001800
00007F00
0000FF00
0000FF80
0000FF80
0000FF80
0000FF80
0000FF80
0001FF80
0003FF80
7FFFFF80
FFFFFF80
FFFFFF00
FFFFFF00
FE000000
F8000000
F8000000
F8000000
F8000000
F8000000
F8000000
F8000000
F8000000
F8000000
FFFFFE00
FFFFFF00
FFFFFF80
FFFFFF80
3FFFFF00
ENDCHAR
STARTCHAR 00C0
ENCODING 192
SWIDTH 589 0
DWIDTH 33 0
BBX 29 48 2 0
BITMAP
003F0000
003F8000
003F8000
001F8000
000F8000
00078000
00038000
00018000
00000000
00000000
00000000
07FFFF00
0FFFFF00
0FFFFF80
0FFFFF80
0FE03F80
0F801F80
0F800F80
0F800F80
0F800F80
0F800F80
0F800F80
0F800F80
0F800F80
1F801F80
7FFFFFF0
FFFFFFF0
FFFFFFF8
FFFFFFF8
FFFFFFF8
FFC001F8
FF8000F8
FF8000F8
FF8000F8
FF8000F8
FF8000F8
FF8000F8
FF8000F8
FF8000F8
FF8000F8
FF8000F8
FF8000F8
FF8000F8
FF8000F8
FF8000F8
FF0000F8
FF0000F8
3E000070
ENDCHAR
STARTCHAR 00C1
ENCODING 193
SWIDTH 589 0
DWIDTH 33 0
BBX 29 48 2 0
BITMAP
0007E000
0007F000
000FF000
000FE000
000FC000
000F8000
000F0000
00060000
00000000
00000000
00000000
07FFFF00
0FFFFF00
0FFFFF80
0FFFFF80
0FE03F80
0F801F80
0F800F80
0F800F80
0F800F80
0F800F80
0F800F80
0F800F80
0F800F80
1F801F80
7FFFFFF0
FFFFFFF0
FFFFFFF8
FFFFFFF8
FFFFFFF8
FFC001F8
FF8000F8
FF8000F8
FF8000F8
FF8000F8
FF8000F8
FF8000F8
FF8000F8
FF8000F8
FF8000F8
FF8000F8
FF8000F8
FF8000F8
FF8000F8
FF8000F8
FF0000F8
FF0000F8
3E000070
ENDCHAR
STARTCHAR 00C2
ENCODING 194
SWIDTH 589 0
DWIDTH 33 0
BBX 29 48 2 0
BITMAP
001FC000
007FF000
00FFF800
01FDFC00
03F8FE00
03F8FE00
07F8FF00
03F07E00
00000000
00000000
00000000
07FFFF00
0FFFFF00
0FFFFF80
0FFFFF80
0FE03F80
0F801F80
0F800F80
0F800F80
0F800F80
0F800F80
0F800F80
0F800F80
0F800F80
1F801F80
7FFFFFF0
FFFFFFF0
FFFFFFF8
FFFFFFF8
FFFFFFF8
FFC001F8
FF8000F8
FF8000F8
FF8000F8
FF8000F8
FF8000F8
FF8000F8
FF8000F8
FF8000F8
FF8000F8
FF8000F8
FF8000F8
FF8000F8
FF8000F8
FF8000F8
FF0000F8
FF0000F8
3E000070
ENDCHAR
STARTCHAR 00C3
ENCODING 195
SWIDTH 589 0
DWIDTH 33 0
BBX 29 48 2 0
BITMAP
00FF0300
03FFC780
03FFC780
07FFE780
078FFF80
078FFF80
078FFF00
0303FC00
00000000
00000000
00000000
07FFFF00
0FFFFF00
0FFFFF80
0FFFFF80
0FE03F80
0F801F80
0F800F80
0F800F80
0F800F80
0F800F80
0F800F80
0F800F80
0F800F80
1F801F80
7FFFFFF0
FFFFFFF0
FFFFFFF8
FFFFFFF8
FFFFFFF8
FFC001F8
FF8000F8
FF8000F8
FF8000F8
FF8000F8
FF8000F8
FF8000F8
FF8000F8
FF8000F8
FF8000F8
FF8000F8
FF8000F8
FF8000F8
FF8000F8
FF8000F8
FF0000F8
FF0000F8
3E000070
ENDCHAR
STARTCHAR 00C4
ENCODING 196
SWIDTH 589 0
DWIDTH 33 0
BBX 29 47 2 0
BITMAP
03F83F80
03F83F80
07F83FC0
07F83F80
03F83F80
03F83F80
00000000
00000000
00000000
00000000
07FFFF00
0FFFFF00
0FFFFF80
0FFFFF80
0FE03F80
0F801F80
0F800F80
0F800F80
0F800F80
0F800F80
0F800F80
0F800F80
0F800F80
1F801F80
7FFFFFF0
FFFFFFF0
FFFFFFF8
FFFFFFF8
FFFFFFF8
FFC001F8
FF8000F8
FF8000F8
FF8000F8
FF8000F8
FF8000F8
FF8000F8
FF8000F8
FF8000F8
FF8000F8
FF8000F8
FF8000F8
FF8000F8
FF8000F8
FF8000F8
FF0000F8
FF0000F8
3E000070
ENDCHAR
STARTCHAR 00C5
ENCODING 197
SWIDTH 589 0
DWIDTH 33 0
BBX 29 48 2 0
BITMAP
001FC000
003FE000
003DE000
0038E000
0038E000
003FE000
003FE000
001FC000
00000000
00000000
00000000
07FFFF00
0FFFFF00
0FFFFF80
0FFFFF80
0FE03F80
0F801F80
0F800F80
0F800F80
0F800F80
0F800F80
0F800F80
0F800F80
0F800F80
1F801F80
7FFFFFF0
FFFFFFF0
FFFFFFF8
FFFFFFF8
FFFFFFF8
FFC001F8
FF8000F8
FF8000F8
FF8000F8
FF8000F8
FF8000F8
FF8000F8
FF8000F8
FF8000F8
FF8000F8
FF8000F8
FF8000F8
FF8000F8
FF8000F8
FF8000F8
FF0000F8
FF0000F8
3E000070
ENDCHAR
STARTCHAR 00C6
ENCODING 198
SWIDTH 839 0
DWIDTH 47 0
BBX 43 37 2 0
BITMAP
07FFFFFFFFC0
0FFFFFFFFFE0
0FFFFFFFFFE0
0FFFFFFFFFE0
0FE03FE00000
0F801F800000
0F800F800000
0F800F800000
0F800F800000
0F800F800000
0F800F800000
0F800F800000
0F800F800000
1F801F800000
7FFFFFFFFFC0
FFFFFFFFFFE0
FFFFFFFFFFE0
FFFFFFFFFFE0
FFFFFFFFFFC0
FFC01FFC0000
FF800FF80000
FF800FF80000
FF800FF80000
FF800FF80000
FF800FF80000
FF800FF80000
FF800FF80000
FF800FF80000
FF800FF80000
FF800FF80000
FF800FF80000
FF800FF80000
FF800FFFFF80
FF800FFFFFE0
FF000FFFFFE0
FF000FFFFFE0
7E0003FFFFC0
ENDCHAR
STARTCHAR 00C7
ENCODING 199
SWIDTH 571 0
DWIDTH 32 0
BBX 27 48 3 -11
BITMAP
7FFFFFC0
FFFFFFE0
FFFFFFE0
FFFFFFE0
FE000FE0
F80003E0
F80003E0
F00001E0
F00001E0
F00001E0
F00001E0
F0000000
F8000000
F8000000
FE000000
FF000000
FF000000
FF000000
FF000000
FF000000
FF000000
FF000000
FF000000
FF0000C0
FF0001E0
FF0001E0
FF0001E0
FF0001E0
FF0001E0
FF0003E0
FF8003E0
FF8003E0
FFFFFFE0
FFFFFFE0
FFFFFFE0
FFFFFFE0
7FFFFFC0
000C0000
000C0000
000E0000
000FE000
0007E000
0001E000
0001E000
0001E000
001FE000
001FE000
001FC000
ENDCHAR
STARTCHAR 00C8
ENCODING 200
SWIDTH 482 0
DWIDTH 27 0
BBX 23 48 3 0
BITMAP
01F800
01FC00
01FC00
00FC00
007C00
003C00
001C00
000C00
000000
000000
000000
7FFFFC
FFFFFE
FFFFFC
FFFFFC
FE0000
F80000
F80000
F00000
F00000
F00000
F00000
F00000
F80000
F80000
FFFFF8
FFFFFC
FFFFFE
FFFFFC
FFFFFC
FF8000
FF8000
FF0000
FF0000
FF0000
FF0000
FF0000
FF0000
FF0000
FF0000
FF0000
FF8000
FF8000
FFFFF8
FFFFFC
FFFFFE
FFFFFC
7FFFFC
ENDCHAR
STARTCHAR 00C9
ENCODING 201
SWIDTH 482 0
DWIDTH 27 0
BBX 23 48 3 0
BITMAP
003F00
007F80
007F80
007F00
007E00
007C00
007800
003000
000000
000000
000000
7FFFFC
FFFFFE
FFFFFC
FFFFFC
FE0000
F80000
F80000
F00000
F00000
F00000
F00000
F00000
F80000
F80000
FFFFF8
FFFFFC
FFFFFE
FFFFFC
FFFFFC
FF8000
FF8000
FF0000
FF0000
FF0000
FF0000
FF0000
FF0000
FF0000
FF0000
FF0000
FF8000
FF8000
FFFFF8
FFFFFC
FFFFFE
FFFFFC
7FFFFC
ENDCHAR
STARTCHAR 00CA
ENCODING 202
SWIDTH 482 0
DWIDTH 27 0
BBX 23 48 3 0
BITMAP
01FE00
03FF00
07FF80
0FCFC0
1FCFE0
3F8FF0
3F87F0
1F87E0
000000
000000
000000
7FFFFC
FFFFFE
FFFFFC
FFFFFC
FE0000
F80000
F80000
F00000
F00000
F00000
F00000
F00000
F80000
F80000
FFFFF8
FFFFFC
FFFFFE
FFFFFC
FFFFFC
FF8000
FF8000
FF0000
FF0000
FF0000
FF0000
FF0000
FF0000
FF0000
FF0000
FF0000
FF8000
FF8000
FFFFF8
FFFFFC
FFFFFE
FFFFFC
7FFFFC
ENDCHAR
STARTCHAR 00CB
ENCODING 203
SWIDTH 482 0
DWIDTH 27 0
BBX 23 47 3 0
BITMAP
3F03F8
7F87F8
7F87F8
7F87F8
7F87F8
3F03F0
000000
000000
000000
000000
7FFFFC
FFFFFE
FFFFFC
FFFFFC
FE0000
F80000
F80000
F00000
F00000
F00000
F00000
F00000
F80000
F80000
FFFFF8
FFFFFC
FFFFFE
FFFFFC
FFFFFC
FF8000
FF8000
FF0000
FF0000
FF0000
FF0000
FF0000
FF0000
FF0000
FF0000
FF0000
FF8000
FF8000
FFFFF8
FFFFFC
FFFFFE
FFFFFC
7FFFFC
ENDCHAR
STARTCHAR 00CC
ENCODING 204
SWIDTH 232 0
DWIDTH 13 0
BBX 8 48 3 0
BITMAP
FC
FE
FE
7E
3E
1E
0E
06
00
00
00
F0
F0
F0
F0
F0
F0
F0
F0
F0
F0
F0
F0
F0
F8
FE
FF
FF
FF
FF
FF
FF
FF
FF
FF
FF
FF
FF
FF
FF
FF
FF
FF
FF
FF
FF
FF
7E
ENDCHAR
STARTCHAR 00CD
ENCODING 205
SWIDTH 232 0
DWIDTH 13 0
BBX 9 48 3 0
BITMAP
3F00
3F80
7F80
7F00
7E00
7C00
7800
3000
0000
0000
0000
F000
F000
F000
F000
F000
F000
F000
F000
F000
F000
F000
F000
F000
F800
FE00
FF00
FF00
FF00
FF00
FF00
FF00
FF00
FF00
FF00
FF00
FF00
FF00
FF00
FF00
FF00
FF00
FF00
FF00
FF00
FF00
FF00
7E00
ENDCHAR
STARTCHAR 00CE
ENCODING 206
SWIDTH 232 0
DWIDTH 13 0
BBX 18 48 -3 0
BITMAP
03F800
0FFE00
1FFE00
3FBF00
7F1F80
FF1FC0
FF1FC0
7E0FC0
000000
000000
000000
03C000
03C000
03C000
03C000
03C000
03C000
03C000
03C000
03C000
03C000
03C000
03C000
03C000
03E000
03F800
03FC00
03FC00
03FC00
03FC00
03FC00
03FC00
03FC00
03FC00
03FC00
03FC00
03FC00
03FC00
03FC00
03FC00
03FC00
03FC00
03FC00
03FC00
03FC00
03FC00
03FC00
01F800
ENDCHAR
STARTCHAR 00CF
ENCODING 207
SWIDTH 232 0
DWIDTH 13 0
BBX 20 47 -4 0
BITMAP
7E07E0
FF0FF0
FF0FF0
FF0FF0
FF0FF0
7E07E0
000000
000000
000000
000000
01E000
01E000
01E000
01E000
01E000
01E000
01E000
01E000
01E000
01E000
01E000
01E000
01E000
01F000
01FC00
01FE00
01FE00
01FE00
01FE00
01FE00
01FE00
01FE00
01FE00
01FE00
01FE00
01FE00
01FE00
01FE00
01FE00
01FE00
01FE00
01FE00
01FE00
01FE00
01FE00
01FE00
00FC00
ENDCHAR
STARTCHAR 00D0
ENCODING 208
SWIDTH 607 0
DWIDTH 34 0
BBX 34 37 -2 0
BITMAP
03FFFFFF00
07FFFFFF80
07FFFFFF80
07FFFFFF80
07E0001FC0
07C0000FC0
07800007C0
07800007C0
07800007C0
07800007C0
07800007C0
07800007C0
07800007C0
07C00007C0
7FFFE007C0
FFFFE007C0
FFFFE007C0
FFFFC007C0
FFF80007C0
FFF80007C0
FFF80007C0
3FF80007C0
07F80007C0
07F80007C0
07F80007C0
07F80007C0
07F80007C0
07F80007C0
07F80007C0
07F80007C0
07FC0007C0
07FC000FC0
07FFFFFFC0
07FFFFFF80
07FFFFFF80
07FFFFFF80
03FFFFFF00
ENDCHAR
STARTCHAR 00D1
ENCODING 209
SWIDTH 589 0
DWIDTH 33 0
BBX 27 48 3 0
BITMAP
01FE0600
07FF8E00
0FFF8F00
0FFF8F00
0F3FFE00
0E1FFE00
0E1FFE00
0607F800
00000000
00000000
00000000
7FFFFFC0
FFFFFFE0
FFFFFFE0
FFFFFFE0
FE000FE0
F80003E0
F00003E0
F00001E0
F00001E0
F00001E0
F00001E0
F00001E0
F80001E0
F80001E0
FE0001E0
FF0001E0
FF0001E0
FF0001E0
FF0001E0
FF0001E0
FF0001E0
FF0001E0
FF0001E0
FF0001E0
FF0001E0
FF0001E0
FF0001E0
FF0001E0
FF0001E0
FF0001E0
FF0001E0
FF0001E0
FF0001E0
FF0001E0
FF0001E0
FF0001E0
7E0001E0
ENDCHAR
STARTCHAR 00D2
ENCODING 210
SWIDTH 607 0
DWIDTH 34 0
BBX 29 48 3 0
BITMAP
003F0000
007F8000
007F8000
003F8000
001F8000
000F8000
00078000
00030000
00000000
00000000
00000000
7FFFFFE0
FFFFFFF0
FFFFFFF0
FFFFFFF0
FE007FF8
F8001FF8
F0000FF8
F0000FF8
F0000FF8
F0000FF8
F0000FF8
F00003F8
F00001F8
F00000F8
F00000F8
F00000F8
F00000F8
F00000F8
F00000F8
F00000F8
F00000F8
F00000F8
F00000F8
F00000F8
F00000F8
F00000F8
F00000F8
F00000F8
F00000F8
F00000F8
F80000F8
F80001F8
FFFFFFF8
FFFFFFF0
FFFFFFF0
FFFFFFF0
7FFFFFE0
ENDCHAR
STARTCHAR 00D3
ENCODING 211
SWIDTH 607 0
DWIDTH 34 0
BBX 29 48 3 0
BITMAP
0007E000
000FE000
000FE000
000FC000
000F8000
000F0000
000E0000
000C0000
00000000
00000000
00000000
7FFFFFE0
FFFFFFF0
FFFFFFF0
FFFFFFF0
FE007FF8
F8001FF8
F0000FF8
F0000FF8
F0000FF8
F0000FF8
F0000FF8
F00003F8
F00001F8
F00000F8
F00000F8
F00000F8
F00000F8
F00000F8
F00000F8
F00000F8
F00000F8
F00000F8
F00000F8
F00000F8
F00000F8
F00000F8
F00000F8
F00000F8
F00000F8
F00000F8
F80000F8
F80001F8
FFFFFFF8
FFFFFFF0
FFFFFFF0
FFFFFFF0
7FFFFFE0
ENDCHAR
STARTCHAR 00D4
ENCODING 212
SWIDTH 607 0
DWIDTH 34 0
BBX 29 48 3 0
BITMAP
003FC000
007FE000
00FFF000
01F9F800
03F9FC00
07F8FE00
07F0FE00
03F07E00
00000000
00000000
00000000
7FFFFFE0
FFFFFFF0
FFFFFFF0
FFFFFFF0
FE007FF8
F8001FF8
F0000FF8
F0000FF8
F0000FF8
F0000FF8
F0000FF8
F00003F8
F00001F8
F00000F8
F00000F8
F00000F8
F00000F8
F00000F8
F00000F8
F00000F8
F00000F8
F00000F8
F00000F8
F00000F8
F00000F8
F00000F8
F00000F8
F00000F8
F00000F8
F00000F8
F80000F8
F80001F8
FFFFFFF8
FFFFFFF0
FFFFFFF0
FFFFFFF0
7FFFFFE0
ENDCHAR
STARTCHAR 00D5
ENCODING 213
SWIDTH 607 0
DWIDTH 34 0
BBX 29 48 3 0
BITMAP
01FE0600
07FF8F00
0FFF8F00
0FFFCF00
0F1FFF00
0F1FFF00
0F1FFE00
0607F800
00000000
00000000
00000000
7FFFFFE0
FFFFFFF0
FFFFFFF0
FFFFFFF0
FE007FF8
F8001FF8
F0000FF8
F0000FF8
F0000FF8
F0000FF8
F0000FF8
F00003F8
F00001F8
F00000F8
F00000F8
F00000F8
F00000F8
F00000F8
F00000F8
F00000F8
F00000F8
F00000F8
F00000F8
F00000F8
F00000F8
F00000F8
F00000F8
F00000F8
F00000F8
F00000F8
F80000F8
F80001F8
FFFFFFF8
FFFFFFF0
FFFFFFF0
FFFFFFF0
7FFFFFE0
ENDCHAR
STARTCHAR 00D6
ENCODING 214
SWIDTH 607 0
DWIDTH 34 0
BBX 29 47 3 0
BITMAP
07E07E00
0FF0FF00
0FF0FF00
0FF0FF00
0FF0FF00
07E07E00
00000000
00000000
00000000
00000000
7FFFFFE0
FFFFFFF0
FFFFFFF0
FFFFFFF0
FE007FF8
F8001FF8
F0000FF8
F0000FF8
F0000FF8
F0000FF8
F0000FF8
F00003F8
F00001F8
F00000F8
F00000F8
F00000F8
F00000F8
F00000F8
F00000F8
F00000F8
F00000F8
F00000F8
F00000F8
F00000F8
F00000F8
F00000F8
F00000F8
F00000F8
F00000F8
F00000F8
F80000F8
F80001F8
FFFFFFF8
FFFFFFF0
FFFFFFF0
FFFFFFF0
7FFFFFE0
ENDCHAR
STARTCHAR 00D7
ENCODING 215
SWIDTH 535 0
DWIDTH 30 0
BBX 26 25 2 0
BITMAP
08000400
1C000E00
3E001F00
7F003F80
7F807F80
3FC0FF00
1FE1FE00
0FF3FC00
07FFF800
03FFF000
01FFE000
00FFC000
007F8000
00FFC000
01FFE000
03FFF000
07FFF800
0FF3FC00
1FE1FE00
3FC0FF00
7F807F80
FF003FC0
7E001F80
3C000F00
18000600
ENDCHAR
STARTCHAR 00D8
ENCODING 216
SWIDTH 607 0
DWIDTH 34 0
BBX 34 45 0 -4
BITMAP
0000000380
00000007C0
00000007C0
0000000FC0
0FFFFFFF80
1FFFFFFF00
1FFFFFFF00
1FFFFFFE00
1FC00FFF00
1F0003FF00
1E0001FF00
1E0001FF00
1E0001FF00
1E0001FF00
1E0001FF00
1E00007F00
1E00003F00
1E00001F00
1E00001F00
1E00001F00
1E00001F00
1E00001F00
1E00001F00
1E00001F00
1E00001F00
1E00001F00
1E00001F00
1E00001F00
1E00001F00
1E00001F00
1E00001F00
1E00001F00
1E00001F00
1E00001F00
1F00001F00
1F00003F00
1FFFFFFF00
1FFFFFFE00
3FFFFFFE00
3FFFFFFE00
7FFFFFFC00
FC00000000
F800000000
F000000000
7000000000
ENDCHAR
STARTCHAR 00D9
ENCODING 217
SWIDTH 589 0
DWIDTH 33 0
BBX 27 48 3 0
BITMAP
003F0000
007F8000
007F8000
003F8000
001F8000
000F8000
00078000
00030000
00000000
00000000
00000000
F00001E0
F00001E0
F00001E0
F00001E0
F00001E0
F00001E0
F00001E0
F00001E0
F00001E0
F00001E0
F00001E0
F00001E0
F80001E0
F80001E0
FE0001E0
FF0001E0
FF0001E0
FF0001E0
FF0001E0
FF0001E0
FF0001E0
FF0001E0
FF0001E0
FF0001E0
FF0001E0
FF0001E0
FF0001E0
FF0001E0
FF0001E0
FF0001E0
FF8003E0
FF8003E0
FFFFFFE0
FFFFFFE0
FFFFFFE0
FFFFFFE0
3FFFFFC0
ENDCHAR
STARTCHAR 00DA
ENCODING 218
SWIDTH 589 0
DWIDTH 33 0
BBX 27 48 3 0
BITMAP
0007E000
000FF000
000FF000
000FE000
000FC000
000F8000
000F0000
00060000
00000000
00000000
00000000
F00001E0
F00001E0
F00001E0
F00001E0
F00001E0
F00001E0
F00001E0
F00001E0
F00001E0
F00001E0
F00001E0
F00001E0
F80001E0
F80001E0
FE0001E0
FF0001E0
FF0001E0
FF0001E0
FF0001E0
FF0001E0
FF0001E0
FF0001E0
FF0001E0
FF0001E0
FF0001E0
FF0001E0
FF0001E0
FF0001E0
FF0001E0
FF0001E0
FF8003E0
FF8003E0
FFFFFFE0
FFFFFFE0
FFFFFFE0
FFFFFFE0
3FFFFFC0
ENDCHAR
STARTCHAR 00DB
ENCODING 219
SWIDTH 589 0
DWIDTH 33 0
BBX 27 48 3 0
BITMAP
003FC000
007FE000
00FFF000
01FBF800
03F1FC00
07F1FC00
07F1FE00
07E0FC00
00000000
00000000
00000000
F00001E0
F00001E0
F00001E0
F00001E0
F00001E0
F00001E0
F00001E0
F00001E0
F00001E0
F00001E0
F00001E0
F00001E0
F80001E0
F80001E0
FE0001E0
FF0001E0
FF0001E0
FF0001E0
FF0001E0
FF0001E0
FF0001E0
FF0001E0
FF0001E0
FF0001E0
FF0001E0
FF0001E0
FF0001E0
FF0001E0
FF0001E0
FF0001E0
FF8003E0
FF8003E0
FFFFFFE0
FFFFFFE0
FFFFFFE0
FFFFFFE0
3FFFFFC0
ENDCHAR
STARTCHAR 00DC
ENCODING 220
SWIDTH 589 0
DWIDTH 33 0
BBX 27 47 3 0
BITMAP
0FE0FE00
0FE0FF00
0FE0FF00
0FE0FF00
0FE0FE00
0FE0FE00
00000000
00000000
00000000
00000000
F00001E0
F00001E0
F00001E0
F00001E0
F00001E0
F00001E0
F00001E0
F00001E0
F00001E0
F00001E0
F00001E0
F00001E0
F80001E0
F80001E0
FE0001E0
FF0001E0
FF0001E0
FF0001E0
FF0001E0
FF0001E0
FF0001E0
FF0001E0
FF0001E0
FF0001E0
FF0001E0
FF0001E0
FF0001E0
FF0001E0
FF0001E0
FF0001E0
FF8003E0
FF8003E0
FFFFFFE0
FFFFFFE0
FFFFFFE0
FFFFFFE0
3FFFFFC0
ENDCHAR
STARTCHAR 00DD
ENCODING 221
SWIDTH 517 0
DWIDTH 29 0
BBX 26 48 2 0
BITMAP
001F8000
003FC000
003FC000
003F8000
003F0000
003E0000
003C0000
00180000
00000000
00000000
40000100
F00003C0
F00007C0
F00007C0
F00007C0
F00007C0
F00007C0
F00007C0
F00007C0
F00007C0
F00007C0
F00007C0
F00007C0
F00007C0
F8000FC0
FFFFFFC0
FFFFFFC0
FFFFFFC0
FFFFFF80
3FFFFF00
01FFC000
00FF8000
00FF8000
00FF8000
00FF8000
00FF8000
00FF8000
00FF8000
00FF8000
00FF8000
00FF8000
00FF8000
00FF8000
00FF8000
00FF8000
007F8000
007F0000
003E0000
ENDCHAR
STARTCHAR 00DE
ENCODING 222
SWIDTH 517 0
DWIDTH 29 0
BBX 25 37 3 1
BITMAP
F0000000
F0000000
F0000000
F0000000
F0000000
F0000000
FFFFFE00
FFFFFF00
FFFFFF00
FFFFFF00
FFFFFF00
F8001F80
F8000F80
F8000F80
FE000F80
FF000F80
FF000F80
FF000F80
FF000F80
FF001F80
FFFFFF00
FFFFFF00
FFFFFF00
FFFFFF00
FFFFFE00
FFC00000
FF800000
FF800000
FF000000
FF000000
FF000000
FF000000
FF000000
FF000000
FF000000
FF000000
7E000000
ENDCHAR
STARTCHAR 00DF
ENCODING 223
SWIDTH 446 0
DWIDTH 25 0
BBX 21 38 2 0
BITMAP
1FFE00
7FFF80
FFFF80
FFFF80
FFFF80
F80780
F00780
F00780
F00780
F00780
F00780
F00780
F00780
F00780
F07FC0
F0FFF0
F0FFF8
F0FFF8
F001F8
F00078
F00078
F80078
F80078
FF0078
FF0078
FF0078
FF0078
FF0078
FF0078
FF0078
FF0078
FF0078
FF0078
FF00F8
FF3FF8
FF7FF8
7F7FF0
7E3FF0
ENDCHAR
STARTCHAR 00E0
ENCODING 224
SWIDTH 446 0
DWIDTH 25 0
BBX 21 37 2 0
BITMAP
03F800
07F800
03F800
01F800
00F800
007800
003800
000000
000000
000000
000000
7FFFF0
FFFFF8
FFFFF8
FFFFF8
F800F8
F00078
F00078
700078
000078
0000F8
7FFFF8
7FFFF8
FFFFF8
FFFFF8
FF80F8
FF0078
FF0078
FF0078
FF0078
FF0078
FF0078
FF80F8
FFFFF8
FFFFF8
7FFFF0
7FFFF0
ENDCHAR
STARTCHAR 00E1
ENCODING 225
SWIDTH 446 0
DWIDTH 25 0
BBX 21 37 2 0
BITMAP
007F00
00FF00
00FE00
00FC00
00F800
00F000
00E000
000000
000000
000000
000000
7FFFF0
FFFFF8
FFFFF8
FFFFF8
F800F8
F00078
F00078
700078
000078
0000F8
7FFFF8
7FFFF8
FFFFF8
FFFFF8
FF80F8
FF0078
FF0078
FF0078
FF0078
FF0078
FF0078
FF80F8
FFFFF8
FFFFF8
7FFFF0
7FFFF0
ENDCHAR
STARTCHAR 00E2
ENCODING 226
SWIDTH 446 0
DWIDTH 25 0
BBX 21 37 2 0
BITMAP
03FE00
07FF00
0FFF80
1F8FC0
3F8FE0
7F8FE0
7F8FE0
000000
000000
000000
000000
7FFFF0
FFFFF8
FFFFF8
FFFFF8
F800F8
F00078
F00078
700078
000078
0000F8
7FFFF8
7FFFF8
FFFFF8
FFFFF8
FF80F8
FF0078
FF0078
FF0078
FF0078
FF0078
FF0078
FF80F8
FFFFF8
FFFFF8
7FFFF0
7FFFF0
ENDCHAR
STARTCHAR 00E3
ENCODING 227
SWIDTH 446 0
DWIDTH 25 0
BBX 21 37 2 0
BITMAP
1FF070
7FF870
7FFC70
7BFC70
71FFF0
71FFF0
70FFF0
700000
000000
000000
000000
7FFFF0
FFFFF8
FFFFF8
FFFFF8
F800F8
F00078
F00078
700078
000078
0000F8
7FFFF8
7FFFF8
FFFFF8
FFFFF8
FF80F8
FF0078
FF0078
FF0078
FF0078
FF0078
FF0078
FF80F8
FFFFF8
FFFFF8
7FFFF0
7FFFF0
ENDCHAR
STARTCHAR 00E4
ENCODING 228
SWIDTH 446 0
DWIDTH 25 0
BBX 21 37 2 0
BITMAP
1801C0
7F07F0
FF07F0
FF0FF0
FF0FF0
FF07F0
7E07F0
000000
000000
000000
000000
7FFFF0
FFFFF8
FFFFF8
FFFFF8
F800F8
F00078
F00078
700078
000078
0000F8
7FFFF8
7FFFF8
FFFFF8
FFFFF8
FF80F8
FF0078
FF0078
FF0078
FF0078
FF0078
FF0078
FF80F8
FFFFF8
FFFFF8
7FFFF0
7FFFF0
ENDCHAR
STARTCHAR 00E5
ENCODING 229
SWIDTH 446 0
DWIDTH 25 0
BBX 21 38 2 0
BITMAP
01FE00
01FE00
01FE00
01C600
01C600
01FE00
01FE00
01FE00
000000
000000
000000
000000
7FFFF0
FFFFF8
FFFFF8
FFFFF8
F800F8
F00078
F00078
700078
000078
0000F8
7FFFF8
7FFFF8
FFFFF8
FFFFF8
FF80F8
FF0078
FF0078
FF0078
FF0078
FF0078
FF0078
FF80F8
FFFFF8
FFFFF8
7FFFF0
7FFFF0
ENDCHAR
STARTCHAR 00E6
ENCODING 230
SWIDTH 750 0
DWIDTH 42 0
BBX 37 26 2 0
BITMAP
7FFFFFFFF8
FFFFFFFFF8
FFFFFFFFF8
FFFFFFFFF8
F800F80078
F000780078
F000780078
7000780078
0000780078
0000F80078
7FFFFFFFF8
7FFFFFFFF8
FFFFFFFFF8
FFFFFFFFF0
FF80FF8000
FF007F8000
FF007F8000
FF007F8030
FF007F8078
FF007F8078
FF007F8078
FF80FF8078
FFFFFFFFF8
FFFFFFFFF8
7FFFFFFFF8
7FFFFFFFF0
ENDCHAR
STARTCHAR 00E7
ENCODING 231
SWIDTH 446 0
DWIDTH 25 0
BBX 21 37 2 -11
BITMAP
7FFFF0
FFFFF8
FFFFF8
FFFFF8
F800F8
F00078
F00078
F00070
F00000
F00000
F80000
FE0000
FF0000
FF0000
FF0000
FF0000
FF0070
FF0078
FF0078
FF0078
FF0078
FF80F8
FFFFF8
FFFFF8
7FFFF0
7FFFF0
007000
007000
007000
007F00
003F00
000F00
000F00
000F00
00FF00
00FF00
00FE00
ENDCHAR
STARTCHAR 00E8
ENCODING 232
SWIDTH 446 0
DWIDTH 25 0
BBX 21 37 2 0
BITMAP
03F800
03F800
03FC00
01FC00
00FC00
007C00
003800
000000
000000
000000
000000
7FFFF0
FFFFF8
FFFFF8
FFFFF8
F800F8
F00078
F00078
F00078
F00078
F800F8
FFFFF8
FFFFF8
FFFFF0
FFFFF0
FF8000
FF0000
FF0000
FF0030
FF0078
FF0078
FF0078
FF80F8
FFFFF8
FFFFF8
7FFFF0
7FFFF0
ENDCHAR
STARTCHAR 00E9
ENCODING 233
SWIDTH 446 0
DWIDTH 25 0
BBX 21 37 2 0
BITMAP
007F00
007F80
007F00
007E00
007C00
007800
007000
000000
000000
000000
000000
7FFFF0
FFFFF8
FFFFF8
FFFFF8
F800F8
F00078
F00078
F00078
F00078
F800F8
FFFFF8
FFFFF8
FFFFF0
FFFFF0
FF8000
FF0000
FF0000
FF0030
FF0078
FF0078
FF0078
FF80F8
FFFFF8
FFFFF8
7FFFF0
7FFFF0
ENDCHAR
STARTCHAR 00EA
ENCODING 234
SWIDTH 446 0
DWIDTH 25 0
BBX 21 37 2 0
BITMAP
03FE00
07FF00
0FFF80
1F8FC0
3F8FE0
7F8FE0
7F8FE0
000000
000000
000000
000000
7FFFF0
FFFFF8
FFFFF8
FFFFF8
F800F8
F00078
F00078
F00078
F00078
F800F8
FFFFF8
FFFFF8
FFFFF0
FFFFF0
FF8000
FF0000
FF0000
FF0030
FF0078
FF0078
FF0078
FF80F8
FFFFF8
FFFFF8
7FFFF0
7FFFF0
ENDCHAR
STARTCHAR 00EB
ENCODING 235
SWIDTH 446 0
DWIDTH 25 0
BBX 21 37 2 0
BITMAP
1C00C0
7F03F0
7F07F8
7F87F8
7F87F8
7F07F8
7F03F0
000000
000000
000000
000000
7FFFF0
FFFFF8
FFFFF8
FFFFF8
F800F8
F00078
F00078
F00078
F00078
F800F8
FFFFF8
FFFFF8
FFFFF0
FFFFF0
FF8000
FF0000
FF0000
FF0030
FF0078
FF0078
FF0078
FF80F8
FFFFF8
FFFFF8
7FFFF0
7FFFF0
ENDCHAR
STARTCHAR 00EC
ENCODING 236
SWIDTH 214 0
DWIDTH 12 0
BBX 9 37 1 0
BITMAP
FE00
FE00
FE00
7E00
3E00
1E00
0E00
0000
0000
0000
0000
3800
7800
7800
7800
7800
7800
7800
7800
7C00
7E00
7F80
7F80
7F80
7F80
7F80
7F80
7F80
7F80
7F80
7F80
7F80
7F80
7F80
7F80
3F80
3F00
ENDCHAR
STARTCHAR 00ED
ENCODING 237
SWIDTH 214 0
DWIDTH 12 0
BBX 8 37 2 0
BITMAP
FE
FF
FE
FC
F8
F0
E0
00
00
00
00
70
F0
F0
F0
F0
F0
F0
F0
F8
FC
FF
FF
FF
FF
FF
FF
FF
FF
FF
FF
FF
FF
FF
FF
7F
7E
ENDCHAR
STARTCHAR 00EE
ENCODING 238
SWIDTH 214 0
DWIDTH 12 0
BBX 18 37 -4 0
BITMAP
07FC00
0FFE00
1FFF00
3F3F80
7F3F80
FE1FC0
FE1FC0
000000
000000
000000
000000
01C000
03C000
03C000
03C000
03C000
03C000
03C000
03C000
03E000
03F000
03FC00
03FC00
03FC00
03FC00
03FC00
03FC00
03FC00
03FC00
03FC00
03FC00
03FC00
03FC00
03FC00
03FC00
01FC00
01F800
ENDCHAR
STARTCHAR 00EF
ENCODING 239
SWIDTH 214 0
DWIDTH 12 0
BBX 20 37 -3 0
BITMAP
380380
FE0FE0
FE0FE0
FE0FF0
FE0FF0
FE0FE0
FE0FE0
000000
000000
000000
000000
038000
078000
078000
078000
078000
078000
078000
078000
07C000
07E000
07F800
07F800
07F800
07F800
07F800
07F800
07F800
07F800
07F800
07F800
07F800
07F800
07F800
07F800
03F800
03F000
ENDCHAR
STARTCHAR 00F0
ENCODING 240
SWIDTH 446 0
DWIDTH 25 0
BBX 24 37 2 0
BITMAP
000070
000078
000078
007FFE
00FFFF
00FFFF
00FFFF
007FFE
000078
000078
0001F8
7FFFF8
FFFFF8
FFFFF8
FFFFF8
F800F8
F00078
F00078
F00078
F00078
F00078
F80078
FF0078
FF0078
FF0078
FF0078
FF0078
FF0078
FF0078
FF0078
FF0078
FF0078
FF80F8
FFFFF8
FFFFF8
7FFFF0
7FFFF0
ENDCHAR
STARTCHAR 00F1
ENCODING 241
SWIDTH 446 0
DWIDTH 25 0
BBX 21 37 2 0
BITMAP
1FF070
7FF870
7FF870
7BFCF0
71FFF0
71FFF0
70FFE0
600000
000000
000000
000000
7FFFF0
FFFFF8
FFFFF8
FFFFF8
F800F8
F00078
F00078
F00078
F00078
F80078
F80078
FF0078
FF0078
FF0078
FF0078
FF0078
FF0078
FF0078
FF0078
FF0078
FF0078
FF0078
FF0078
FF0078
7F0078
7E0070
ENDCHAR
STARTCHAR 00F2
ENCODING 242
SWIDTH 446 0
DWIDTH 25 0
BBX 21 37 2 0
BITMAP
03F800
03F800
03F800
01F800
00F800
007800
003800
000000
000000
000000
000000
7FFFF0
FFFFF8
FFFFF8
FFFFF8
F800F8
F00078
F00078
F00078
F00078
F00078
F80078
FF0078
FF0078
FF0078
FF0078
FF0078
FF0078
FF0078
FF0078
FF0078
FF0078
FF80F8
FFFFF8
FFFFF8
7FFFF0
7FFFF0
ENDCHAR
STARTCHAR 00F3
ENCODING 243
SWIDTH 446 0
DWIDTH 25 0
BBX 21 37 2 0
BITMAP
007F00
007F00
00FF00
00FE00
00FC00
00F800
007000
000000
000000
000000
000000
7FFFF0
FFFFF8
FFFFF8
FFFFF8
F800F8
F00078
F00078
F00078
F00078
F00078
F80078
FF0078
FF0078
FF0078
FF0078
FF0078
FF0078
FF0078
FF0078
FF0078
FF0078
FF80F8
FFFFF8
FFFFF8
7FFFF0
7FFFF0
ENDCHAR
STARTCHAR 00F4
ENCODING 244
SWIDTH 446 0
DWIDTH 25 0
BBX 21 37 2 0
BITMAP
03FE00
07FF00
0FFF80
1F8FC0
3F8FE0
3F8FF0
3F8FE0
000000
000000
000000
000000
7FFFF0
FFFFF8
FFFFF8
FFFFF8
F800F8
F00078
F00078
F00078
F00078
F00078
F80078
FF0078
FF0078
FF0078
FF0078
FF0078
FF0078
FF0078
FF0078
FF0078
FF0078
FF80F8
FFFFF8
FFFFF8
7FFFF0
7FFFF0
ENDCHAR
STARTCHAR 00F5
ENCODING 245
SWIDTH 446 0
DWIDTH 25 0
BBX 21 37 2 0
BITMAP
1FF070
7FF870
7FFC70
7BFC70
71FFF0
71FFF0
70FFF0
700000
000000
000000
000000
7FFFF0
FFFFF8
FFFFF8
FFFFF8
F800F8
F00078
F00078
F00078
F00078
F00078
F80078
FF0078
FF0078
FF0078
FF0078
FF0078
FF0078
FF0078
FF0078
FF0078
FF0078
FF80F8
FFFFF8
FFFFF8
7FFFF0
7FFFF0
ENDCHAR
STARTCHAR 00F6
ENCODING 246
SWIDTH 446 0
DWIDTH 25 0
BBX 21 37 2 0
BITMAP
1C00C0
7F07F0
7F07F8
7F87F8
7F07F8
7F07F8
7F03F0
000000
000000
000000
000000
7FFFF0
FFFFF8
FFFFF8
FFFFF8
F800F8
F00078
F00078
F00078
F00078
F00078
F80078
FF0078
FF0078
FF0078
FF0078
FF0078
FF0078
FF0078
FF0078
FF0078
FF0078
FF80F8
FFFFF8
FFFFF8
7FFFF0
7FFFF0
ENDCHAR
STARTCHAR 00F7
ENCODING 247
SWIDTH 535 0
DWIDTH 30 0
BBX 26 26 2 0
BITMAP
003F0000
007F0000
007F8000
007F8000
007F8000
003F0000
001E0000
00000000
00000000
00000000
FFFFFFC0
FFFFFFC0
FFFFFFC0
FFFFFFC0
FFFFFFC0
FFFFFFC0
00000000
00000000
000C0000
003F0000
007F0000
007F8000
007F8000
007F8000
003F0000
001E0000
ENDCHAR
STARTCHAR 00F8
ENCODING 248
SWIDTH 446 0
DWIDTH 25 0
BBX 23 30 1 -2
BITMAP
00000E
00001E
3FFFFE
7FFFFC
7FFFFC
7FFFFC
7C007C
78003C
78003C
78003C
78003C
7C003C
7C003C
7F803C
7F803C
7F803C
7F803C
7F803C
7F803C
7F803C
7F803C
7F803C
7F803C
7FC07C
7FFFFC
7FFFFC
FFFFF8
FFFFF8
F00000
E00000
ENDCHAR
STARTCHAR 00F9
ENCODING 249
SWIDTH 446 0
DWIDTH 25 0
BBX 21 37 2 0
BITMAP
03F800
07F800
03F800
01F800
00F800
007800
003800
000000
000000
000000
000000
700070
F00078
F00078
F00078
F00078
F00078
F00078
F00078
F80078
FC0078
FF0078
FF0078
FF0078
FF0078
FF0078
FF0078
FF0078
FF0078
FF0078
FF0078
FF0078
FF80F8
FFFFF8
FFFFF8
7FFFF0
7FFFF0
ENDCHAR
STARTCHAR 00FA
ENCODING 250
SWIDTH 446 0
DWIDTH 25 0
BBX 21 37 2 0
BITMAP
007F00
00FF00
00FE00
00FC00
00F800
00F000
00E000
000000
000000
000000
000000
700070
F00078
F00078
F00078
F00078
F00078
F00078
F00078
F80078
FC0078
FF0078
FF0078
FF0078
FF0078
FF0078
FF0078
FF0078
FF0078
FF0078
FF0078
FF0078
FF80F8
FFFFF8
FFFFF8
7FFFF0
7FFFF0
ENDCHAR
STARTCHAR 00FB
ENCODING 251
SWIDTH 446 0
DWIDTH 25 0
BBX 21 37 2 0
BITMAP
03FE00
07FF00
0FFF80
1F8FC0
3F8FE0
7F8FE0
3F8FE0
000000
000000
000000
000000
700070
F00078
F00078
F00078
F00078
F00078
F00078
F00078
F80078
FC0078
FF0078
FF0078
FF0078
FF0078
FF0078
FF0078
FF0078
FF0078
FF0078
FF0078
FF0078
FF80F8
FFFFF8
FFFFF8
7FFFF0
7FFFF0
ENDCHAR
STARTCHAR 00FC
ENCODING 252
SWIDTH 446 0
DWIDTH 25 0
BBX 21 37 2 0
BITMAP
1C01C0
7F07F0
7F07F0
7F07F8
7F07F8
7F07F0
7F07F0
000000
000000
000000
000000
700070
F00078
F00078
F00078
F00078
F00078
F00078
F00078
F80078
FC0078
FF0078
FF0078
FF0078
FF0078
FF0078
FF0078
FF0078
FF0078
FF0078
FF0078
FF0078
FF80F8
FFFFF8
FFFFF8
7FFFF0
7FFFF0
ENDCHAR
STARTCHAR 00FD
ENCODING 253
SWIDTH 446 0
DWIDTH 25 0
BBX 21 47 2 -10
BITMAP
007F00
007F00
007F00
007E00
007C00
007800
007000
000000
000000
000000
000000
7E0070
FF0078
FF0078
FF0078
FF0078
FF0078
FF0078
FF0078
FF0078
FF0078
FF0078
FF0078
FF0078
FF0078
FF0078
FE0078
F80078
F00078
F00078
F00078
F00078
F800F8
FFFFF8
FFFFF8
7FFFF8
7FFFF8
0000F8
000078
000078
000078
000078
0001F8
7FFFF8
FFFFF8
FFFFF0
3FFFE0
ENDCHAR
STARTCHAR 00FE
ENCODING 254
SWIDTH 446 0
DWIDTH 25 0
BBX 21 46 2 -10
BITMAP
700000
F00000
F00000
F00000
F00000
F00000
F00000
F00000
F00000
F80000
FFFFF0
FFFFF8
FFFFF8
FFFFF8
F800F8
F00078
F00078
F00078
F00078
F00078
F80078
FF0078
FF0078
FF0078
FF0078
FF0078
FF0078
FF0078
FF0078
FF0078
FF0078
FF80F8
FFFFF8
FFFFF8
FFFFF0
FFFFF0
F80000
F00000
F00000
F00000
F00000
F00000
F00000
F00000
F00000
700000
ENDCHAR
STARTCHAR 00FF
ENCODING 255
SWIDTH 446 0
DWIDTH 25 0
BBX 21 47 2 -10
BITMAP
1C01C0
7F07F0
7F07F0
FF07F8
FF07F8
7F07F0
7F07F0
000000
000000
000000
000000
7E0070
FF0078
FF0078
FF0078
FF0078
FF0078
FF0078
FF0078
FF0078
FF0078
FF0078
FF0078
FF0078
FF0078
FF0078
FE0078
F80078
F00078
F00078
F00078
F00078
F800F8
FFFFF8
FFFFF8
7FFFF8
7FFFF8
0000F8
000078
000078
000078
000078
0001F8
7FFFF8
FFFFF8
FFFFF0
3FFFE0
ENDCHAR
STARTCHAR 0100
ENCODING 256
SWIDTH 589 0
DWIDTH 33 0
BBX 29 48 2 0
BITMAP
01FFFE00
07FFFF00
07FFFF00
07FFFF00
07FF0000
07FE0000
07FE0000
03FC0000
00000000
00000000
00000000
07FFFF00
0FFFFF00
0FFFFF80
0FFFFF80
0FE03F80
0F801F80
0F800F80
0F800F80
0F800F80
0F800F80
0F800F80
0F800F80
0F800F80
1F801F80
7FFFFFF0
FFFFFFF0
FFFFFFF8
FFFFFFF8
FFFFFFF8
FFC001F8
FF8000F8
FF8000F8
FF8000F8
FF8000F8
FF8000F8
FF8000F8
FF8000F8
FF8000F8
FF8000F8
FF8000F8
FF8000F8
FF8000F8
FF8000F8
FF8000F8
FF0000F8
FF0000F8
3E000070
ENDCHAR
STARTCHAR 0101
ENCODING 257
SWIDTH 446 0
DWIDTH 25 0
BBX 21 37 2 0
BITMAP
3FFFE0
7FFFF0
7FFFF0
7FFFF0
7FE000
7FE000
7FC000
3FC000
000000
000000
000000
7FFFF0
FFFFF8
FFFFF8
FFFFF8
F800F8
F00078
F00078
700078
000078
0000F8
7FFFF8
7FFFF8
FFFFF8
FFFFF8
FF80F8
FF0078
FF0078
FF0078
FF0078
FF0078
FF0078
FF80F8
FFFFF8
FFFFF8
7FFFF0
7FFFF0
ENDCHAR
STARTCHAR 0102
ENCODING 258
SWIDTH 589 0
DWIDTH 33 0
BBX 29 48 2 0
BITMAP
01F00E00
03F81E00
07F81E00
07F81E00
07FFFE00
03FFFE00
03FFFE00
00000000
00000000
00000000
00000000
07FFFF00
0FFFFF00
0FFFFF80
0FFFFF80
0FE03F80
0F801F80
0F800F80
0F800F80
0F800F80
0F800F80
0F800F80
0F800F80
0F800F80
1F801F80
7FFFFFF0
FFFFFFF0
FFFFFFF8
FFFFFFF8
FFFFFFF8
FFC001F8
FF8000F8
FF8000F8
FF8000F8
FF8000F8
FF8000F8
FF8000F8
FF8000F8
FF8000F8
FF8000F8
FF8000F8
FF8000F8
FF8000F8
FF8000F8
FF8000F8
FF0000F8
FF0000F8
3E000070
ENDCHAR
STARTCHAR 0103
ENCODING 259
SWIDTH 446 0
DWIDTH 25 0
BBX 21 36 2 0
BITMAP
3F01E0
7F81E0
7F81E0
7FC1E0
7FFFE0
3FFFE0
3FFFC0
000000
000000
000000
7FFFF0
FFFFF8
FFFFF8
FFFFF8
F800F8
F00078
F00078
700078
000078
0000F8
7FFFF8
7FFFF8
FFFFF8
FFFFF8
FF80F8
FF0078
FF0078
FF0078
FF0078
FF0078
FF0078
FF80F8
FFFFF8
FFFFF8
7FFFF0
7FFFF0
ENDCHAR
STARTCHAR 0104
ENCODING 260
SWIDTH 589 0
DWIDTH 33 0
BBX 30 46 2 -9
BITMAP
07FFFF00
0FFFFF00
0FFFFF80
0FFFFF80
0FE03F80
0F801F80
0F800F80
0F800F80
0F800F80
0F800F80
0F800F80
0F800F80
0F800F80
1F801F80
7FFFFFF0
FFFFFFF0
FFFFFFF8
FFFFFFF8
FFFFFFF8
FFC001F8
FF8000F8
FF8000F8
FF8000F8
FF8000F8
FF8000F8
FF8000F8
FF8000F8
FF8000F8
FF8000F8
FF8000F8
FF8000F8
FF8000F8
FF8000F8
FF8000F8
FF0000F8
FF0001F8
3E0007F0
000007C0
00000780
00000780
00000780
00000780
00000780
000007C0
000007FC
000003F8
ENDCHAR
STARTCHAR 0105
ENCODING 261
SWIDTH 446 0
DWIDTH 25 0
BBX 21 35 2 -9
BITMAP
7FFFF0
FFFFF8
FFFFF8
FFFFF8
F800F8
F00078
F00078
700078
000078
0000F8
7FFFF8
7FFFF8
FFFFF8
FFFFF8
FF80F8
FF0078
FF0078
FF0078
FF0078
FF0078
FF0078
FF80F8
FFFFF8
FFFFF8
7FFFF0
7FFFF0
000780
000700
000700
000700
000700
000780
0007F8
0007F8
0003F0
ENDCHAR
STARTCHAR 0106
ENCODING 262
SWIDTH 571 0
DWIDTH 32 0
BBX 27 48 3 0
BITMAP
0007E000
000FE000
000FE000
000FC000
000F8000
000F0000
000E0000
000C0000
00000000
00000000
00000000
7FFFFFC0
FFFFFFE0
FFFFFFE0
FFFFFFE0
FE000FE0
F80003E0
F80003E0
F00001E0
F00001E0
F00001E0
F00001E0
F0000000
F8000000
F8000000
FE000000
FF000000
FF000000
FF000000
FF000000
FF000000
FF000000
FF000000
FF000000
FF0000C0
FF0001E0
FF0001E0
FF0001E0
FF0001E0
FF0001E0
FF0003E0
FF8003E0
FF8003E0
FFFFFFE0
FFFFFFE0
FFFFFFE0
FFFFFFE0
7FFFFFC0
ENDCHAR
STARTCHAR 0107
ENCODING 263
SWIDTH 446 0
DWIDTH 25 0
BBX 21 37 2 0
BITMAP
007F00
007F00
007F00
007E00
007C00
007800
007000
000000
000000
000000
000000
7FFFF0
FFFFF8
FFFFF8
FFFFF8
F800F8
F00078
F00078
F00070
F00000
F00000
F80000
FE0000
FF0000
FF0000
FF0000
FF0000
FF0070
FF0078
FF0078
FF0078
FF0078
FF80F8
FFFFF8
FFFFF8
7FFFF0
7FFFF0
ENDCHAR
STARTCHAR 0108
ENCODING 264
SWIDTH 571 0
DWIDTH 32 0
BBX 27 48 3 0
BITMAP
003FC000
007FE000
00FFF000
01FBF800
03F1FC00
07F1FE00
07F1FE00
07E0FC00
00000000
00000000
00000000
7FFFFFC0
FFFFFFE0
FFFFFFE0
FFFFFFE0
FE000FE0
F80003E0
F80003E0
F00001E0
F00001E0
F00001E0
F00001E0
F0000000
F8000000
F8000000
FE000000
FF000000
FF000000
FF000000
FF000000
FF000000
FF000000
FF000000
FF000000
FF0000C0
FF0001E0
FF0001E0
FF0001E0
FF0001E0
FF0001E0
FF0003E0
FF8003E0
FF8003E0
FFFFFFE0
FFFFFFE0
FFFFFFE0
FFFFFFE0
7FFFFFC0
ENDCHAR
STARTCHAR 0109
ENCODING 265
SWIDTH 446 0
DWIDTH 25 0
BBX 21 37 2 0
BITMAP
03FE00
07FF00
0FFF80
1F8FC0
3F8FE0
7F8FE0
7F0FE0
000000
000000
000000
000000
7FFFF0
FFFFF8
FFFFF8
FFFFF8
F800F8
F00078
F00078
F00070
F00000
F00000
F80000
FE0000
FF0000
FF0000
FF0000
FF0000
FF0070
FF0078
FF0078
FF0078
FF0078
FF80F8
FFFFF8
FFFFF8
7FFFF0
7FFFF0
ENDCHAR
STARTCHAR 010A
ENCODING 266
SWIDTH 571 0
DWIDTH 32 0
BBX 27 47 3 0
BITMAP
001FC000
001FC000
001FE000
001FE000
001FC000
001FC000
00000000
00000000
00000000
00000000
7FFFFFC0
FFFFFFE0
FFFFFFE0
FFFFFFE0
FE000FE0
F80003E0
F80003E0
F00001E0
F00001E0
F00001E0
F00001E0
F0000000
F8000000
F8000000
FE000000
FF000000
FF000000
FF000000
FF000000
FF000000
FF000000
FF000000
FF000000
FF0000C0
FF0001E0
FF0001E0
FF0001E0
FF0001E0
FF0001E0
FF0003E0
FF8003E0
FF8003E0
FFFFFFE0
FFFFFFE0
FFFFFFE0
FFFFFFE0
7FFFFFC0
ENDCHAR
STARTCHAR 010B
ENCODING 267
SWIDTH 446 0
DWIDTH 25 0
BBX 21 37 2 0
BITMAP
00FC00
01FC00
01FE00
01FE00
01FC00
01FC00
000000
000000
000000
000000
000000
7FFFF0
FFFFF8
FFFFF8
FFFFF8
F800F8
F00078
F00078
F00070
F00000
F00000
F80000
FE0000
FF0000
FF0000
FF0000
FF0000
FF0070
FF0078
FF0078
FF0078
FF0078
FF80F8
FFFFF8
FFFFF8
7FFFF0
7FFFF0
ENDCHAR
STARTCHAR 010C
ENCODING 268
SWIDTH 571 0
DWIDTH 32 0
BBX 27 48 3 0
BITMAP
03E0FC00
07F1FE00
07F1FE00
03F1FC00
01F9F800
00FFF000
007FE000
003FC000
00000000
00000000
00000000
7FFFFFC0
FFFFFFE0
FFFFFFE0
FFFFFFE0
FE000FE0
F80003E0
F80003E0
F00001E0
F00001E0
F00001E0
F00001E0
F0000000
F8000000
F8000000
FE000000
FF000000
FF000000
FF000000
FF000000
FF000000
FF000000
FF000000
FF000000
FF0000C0
FF0001E0
FF0001E0
FF0001E0
FF0001E0
FF0001E0
FF0003E0
FF8003E0
FF8003E0
FFFFFFE0
FFFFFFE0
FFFFFFE0
FFFFFFE0
7FFFFFC0
ENDCHAR
STARTCHAR 010D
ENCODING 269
SWIDTH 446 0
DWIDTH 25 0
BBX 21 37 2 0
BITMAP
3F87F0
3F8FF0
3F8FE0
1F8FC0
0FFF80
07FF00
03FE00
000000
000000
000000
000000
7FFFF0
FFFFF8
FFFFF8
FFFFF8
F800F8
F00078
F00078
F00070
F00000
F00000
F80000
FE0000
FF0000
FF0000
FF0000
FF0000
FF0070
FF0078
FF0078
FF0078
FF0078
FF80F8
FFFFF8
FFFFF8
7FFFF0
7FFFF0
ENDCHAR
STARTCHAR 010E
ENCODING 270
SWIDTH 607 0
DWIDTH 34 0
BBX 29 48 3 0
BITMAP
03F07E00
03F8FF00
03F8FF00
01F8FE00
00FCFC00
007FF800
003FF000
001FE000
00000000
00000000
00000000
7FFFFFE0
FFFFFFF0
FFFFFFF0
FFFFFFF0
FC0003F8
F80001F8
F00000F8
F00000F8
F00000F8
F00000F8
F00000F8
F00000F8
F00000F8
F80000F8
FE0000F8
FF0000F8
FF0000F8
FF0000F8
FF0000F8
FF0000F8
FF0000F8
FF0000F8
FF0000F8
FF0000F8
FF0000F8
FF0000F8
FF0000F8
FF0000F8
FF0000F8
FF0000F8
FF8000F8
FF8001F8
FFFFFFF8
FFFFFFF0
FFFFFFF0
FFFFFFF0
7FFFFFE0
ENDCHAR
STARTCHAR 010F
ENCODING 271
SWIDTH 446 0
DWIDTH 25 0
BBX 31 38 2 0
BITMAP
00000030
000070FE
000079FE
000079FE
000079FE
000078FE
0000787E
0000780E
0000780E
0000780E
0000780E
0001F800
7FFFF800
FFFFF800
FFFFF800
FFFFF800
F800F800
F0007800
F0007800
F0007800
F0007800
F0007800
F8007800
FF007800
FF007800
FF007800
FF007800
FF007800
FF007800
FF007800
FF007800
FF007800
FF007800
FF80F800
FFFFF800
FFFFF800
7FFFF000
7FFFF000
ENDCHAR
STARTCHAR 0110
ENCODING 272
SWIDTH 607 0
DWIDTH 34 0
BBX 34 37 -2 0
BITMAP
03FFFFFF00
07FFFFFF80
07FFFFFF80
07FFFFFF80
07E0001FC0
07C0000FC0
07800007C0
07800007C0
07800007C0
07800007C0
07800007C0
07800007C0
07800007C0
07C00007C0
7FFFE007C0
FFFFE007C0
FFFFE007C0
FFFFC007C0
FFF80007C0
FFF80007C0
FFF80007C0
3FF80007C0
07F80007C0
07F80007C0
07F80007C0
07F80007C0
07F80007C0
07F80007C0
07F80007C0
07F80007C0
07FC0007C0
07FC000FC0
07FFFFFFC0
07FFFFFF80
07FFFFFF80
07FFFFFF80
03FFFFFF00
ENDCHAR
STARTCHAR 0111
ENCODING 273
SWIDTH 446 0
DWIDTH 25 0
BBX 24 37 2 0
BITMAP
000070
000078
000078
007FFE
00FFFF
00FFFF
00FFFF
007FFE
000078
000078
0001F8
7FFFF8
FFFFF8
FFFFF8
FFFFF8
F800F8
F00078
F00078
F00078
F00078
F00078
F80078
FF0078
FF0078
FF0078
FF0078
FF0078
FF0078
FF0078
FF0078
FF0078
FF0078
FF80F8
FFFFF8
FFFFF8
7FFFF0
7FFFF0
ENDCHAR
STARTCHAR 0112
ENCODING 274
SWIDTH 482 0
DWIDTH 27 0
BBX 23 48 3 0
BITMAP
1FFFF0
3FFFF8
3FFFF8
7FFFF0
7FF000
3FE000
3FE000
1FE000
000000
000000
000000
7FFFFC
FFFFFE
FFFFFC
FFFFFC
FE0000
F80000
F80000
F00000
F00000
F00000
F00000
F00000
F80000
F80000
FFFFF8
FFFFFC
FFFFFE
FFFFFC
FFFFFC
FF8000
FF8000
FF0000
FF0000
FF0000
FF0000
FF0000
FF0000
FF0000
FF0000
FF0000
FF8000
FF8000
FFFFF8
FFFFFC
FFFFFE
FFFFFC
7FFFFC
ENDCHAR
STARTCHAR 0113
ENCODING 275
SWIDTH 446 0
DWIDTH 25 0
BBX 21 37 2 0
BITMAP
1FFFE0
7FFFF0
7FFFF0
7FFFF0
7FF000
7FE000
7FE000
3FC000
000000
000000
000000
7FFFF0
FFFFF8
FFFFF8
FFFFF8
F800F8
F00078
F00078
F00078
F00078
F800F8
FFFFF8
FFFFF8
FFFFF0
FFFFF0
FF8000
FF0000
FF0000
FF0030
FF0078
FF0078
FF0078
FF80F8
FFFFF8
FFFFF8
7FFFF0
7FFFF0
ENDCHAR
STARTCHAR 0114
ENCODING 276
SWIDTH 482 0
DWIDTH 27 0
BBX 23 48 3 0
BITMAP
1F80E0
3F80F0
3FC0F0
3FC0F0
3FFFF0
3FFFF0
1FFFE0
000000
000000
000000
000000
7FFFFC
FFFFFE
FFFFFC
FFFFFC
FE0000
F80000
F80000
F00000
F00000
F00000
F00000
F00000
F80000
F80000
FFFFF8
FFFFFC
FFFFFE
FFFFFC
FFFFFC
FF8000
FF8000
FF0000
FF0000
FF0000
FF0000
FF0000
FF0000
FF0000
FF0000
FF0000
FF8000
FF8000
FFFFF8
FFFFFC
FFFFFE
FFFFFC
7FFFFC
ENDCHAR
STARTCHAR 0115
ENCODING 277
SWIDTH 446 0
DWIDTH 25 0
BBX 21 36 2 0
BITMAP
3F81E0
3F81E0
7F81E0
7FC1E0
7FFFE0
3FFFE0
1FFFC0
000000
000000
000000
7FFFF0
FFFFF8
FFFFF8
FFFFF8
F800F8
F00078
F00078
F00078
F00078
F800F8
FFFFF8
FFFFF8
FFFFF0
FFFFF0
FF8000
FF0000
FF0000
FF0030
FF0078
FF0078
FF0078
FF80F8
FFFFF8
FFFFF8
7FFFF0
7FFFF0
ENDCHAR
STARTCHAR 0116
ENCODING 278
SWIDTH 482 0
DWIDTH 27 0
BBX 23 47 3 0
BITMAP
00FE00
00FE00
00FE00
00FE00
00FE00
00FE00
000000
000000
000000
000000
7FFFFC
FFFFFE
FFFFFC
FFFFFC
FE0000
F80000
F80000
F00000
F00000
F00000
F00000
F00000
F80000
F80000
FFFFF8
FFFFFC
FFFFFE
FFFFFC
FFFFFC
FF8000
FF8000
FF0000
FF0000
FF0000
FF0000
FF0000
FF0000
FF0000
FF0000
FF0000
FF8000
FF8000
FFFFF8
FFFFFC
FFFFFE
FFFFFC
7FFFFC
ENDCHAR
STARTCHAR 0117
ENCODING 279
SWIDTH 446 0
DWIDTH 25 0
BBX 21 37 2 0
BITMAP
01FC00
01FC00
01FE00
01FE00
01FC00
01FC00
000000
000000
000000
000000
000000
7FFFF0
FFFFF8
FFFFF8
FFFFF8
F800F8
F00078
F00078
F00078
F00078
F800F8
FFFFF8
FFFFF8
FFFFF0
FFFFF0
FF8000
FF0000
FF0000
FF0030
FF0078
FF0078
FF0078
FF80F8
FFFFF8
FFFFF8
7FFFF0
7FFFF0
ENDCHAR
STARTCHAR 0118
ENCODING 280
SWIDTH 482 0
DWIDTH 27 0
BBX 23 46 3 -9
BITMAP
7FFFFC
FFFFFE
FFFFFC
FFFFFC
FE0000
F80000
F80000
F00000
F00000
F00000
F00000
F00000
F80000
F80000
FFFFF8
FFFFFC
FFFFFE
FFFFFC
FFFFFC
FF8000
FF8000
FF0000
FF0000
FF0000
FF0000
FF0000
FF0000
FF0000
FF0000
FF0000
FF8000
FF8000
FFFFF8
FFFFFC
FFFFFE
FFFFFC
7FFFFC
000780
000700
000700
000700
000700
000780
0007F0
0007F8
0003F0
ENDCHAR
STARTCHAR 0119
ENCODING 281
SWIDTH 446 0
DWIDTH 25 0
BBX 21 35 2 -9
BITMAP
7FFFF0
FFFFF8
FFFFF8
FFFFF8
F800F8
F00078
F00078
F00078
F00078
F800F8
FFFFF8
FFFFF8
FFFFF0
FFFFF0
FF8000
FF0000
FF0000
FF0030
FF0078
FF0078
FF0078
FF80F8
FFFFF8
FFFFF8
7FFFF0
7FFFF0
007800
007000
007000
007000
007000
007000
007F00
007F80
007F00
ENDCHAR
STARTCHAR 011A
ENCODING 282
SWIDTH 482 0
DWIDTH 27 0
BBX 23 48 3 0
BITMAP
1F03E0
3F87F0
3F8FF0
1FCFE0
0FCFC0
07FF80
03FF00
01FE00
000000
000000
000000
7FFFFC
FFFFFE
FFFFFC
FFFFFC
FE0000
F80000
F80000
F00000
F00000
F00000
F00000
F00000
F80000
F80000
FFFFF8
FFFFFC
FFFFFE
FFFFFC
FFFFFC
FF8000
FF8000
FF0000
FF0000
FF0000
FF0000
FF0000
FF0000
FF0000
FF0000
FF0000
FF8000
FF8000
FFFFF8
FFFFFC
FFFFFE
FFFFFC
7FFFFC
ENDCHAR
STARTCHAR 011B
ENCODING 283
SWIDTH 446 0
DWIDTH 25 0
BBX 21 37 2 0
BITMAP
3F0FE0
7F8FE0
3F8FE0
1F8FC0
0FFF80
07FF00
03FE00
000000
000000
000000
000000
7FFFF0
FFFFF8
FFFFF8
FFFFF8
F800F8
F00078
F00078
F00078
F00078
F800F8
FFFFF8
FFFFF8
FFFFF0
FFFFF0
FF8000
FF0000
FF0000
FF0030
FF0078
FF0078
FF0078
FF80F8
FFFFF8
FFFFF8
7FFFF0
7FFFF0
ENDCHAR
STARTCHAR 011C
ENCODING 284
SWIDTH 607 0
DWIDTH 34 0
BBX 28 48 3 0
BITMAP
003FC000
007FE000
00FFF000
01F9F800
03F9FC00
07F8FE00
07F0FE00
03F07E00
00000000
00000000
00000000
7FFFFFE0
FFFFFFF0
FFFFFFF0
FFFFFFF0
FE0007F0
F80001F0
F80001F0
F00001F0
F00001F0
F00001F0
F00000E0
F0000000
F8000000
F8000000
FE003FC0
FF007FE0
FF00FFF0
FF007FF0
FF007FF0
FF0003F0
FF0001F0
FF0001F0
FF0001F0
FF0001F0
FF0001F0
FF0001F0
FF0001F0
FF0001F0
FF0001F0
FF8001F0
FF8001F0
FF8003F0
FFFFFFF0
FFFFFFF0
FFFFFFF0
FFFFFFE0
3FFFFFC0
ENDCHAR
STARTCHAR 011D
ENCODING 285
SWIDTH 446 0
DWIDTH 25 0
BBX 21 47 2 -10
BITMAP
03FE00
07FF00
0FFF80
1FCFC0
3F8FE0
3F8FF0
3F87F0
000000
000000
000000
000000
7FFFF0
FFFFF8
FFFFF8
FFFFF8
F800F8
F00078
F00078
F00078
F00078
F00078
F80078
FF0078
FF0078
FF0078
FF0078
FF0078
FF0078
FF0078
FF0078
FF0078
FF0078
FF80F8
FFFFF8
FFFFF8
7FFFF8
7FFFF8
0000F8
000078
000078
000078
0000F8
0001F8
7FFFF8
FFFFF8
FFFFF0
3FFFE0
ENDCHAR
STARTCHAR 011E
ENCODING 286
SWIDTH 607 0
DWIDTH 34 0
BBX 28 48 3 0
BITMAP
03F01C00
07F01E00
07F81E00
07F81E00
07FFFE00
07FFFE00
03FFFC00
00000000
00000000
00000000
00000000
7FFFFFE0
FFFFFFF0
FFFFFFF0
FFFFFFF0
FE0007F0
F80001F0
F80001F0
F00001F0
F00001F0
F00001F0
F00000E0
F0000000
F8000000
F8000000
FE003FC0
FF007FE0
FF00FFF0
FF007FF0
FF007FF0
FF0003F0
FF0001F0
FF0001F0
FF0001F0
FF0001F0
FF0001F0
FF0001F0
FF0001F0
FF0001F0
FF0001F0
FF8001F0
FF8001F0
FF8003F0
FFFFFFF0
FFFFFFF0
FFFFFFF0
FFFFFFE0
3FFFFFC0
ENDCHAR
STARTCHAR 011F
ENCODING 287
SWIDTH 446 0
DWIDTH 25 0
BBX 21 46 2 -10
BITMAP
3F80E0
3F81E0
3FC1F0
3FC1F0
3FFFF0
3FFFE0
1FFFE0
000000
000000
000000
7FFFF0
FFFFF8
FFFFF8
FFFFF8
F800F8
F00078
F00078
F00078
F00078
F00078
F80078
FF0078
FF0078
FF0078
FF0078
FF0078
FF0078
FF0078
FF0078
FF0078
FF0078
FF80F8
FFFFF8
FFFFF8
7FFFF8
7FFFF8
0000F8
000078
000078
000078
0000F8
0001F8
7FFFF8
FFFFF8
FFFFF0
3FFFE0
ENDCHAR
STARTCHAR 0120
ENCODING 288
SWIDTH 607 0
DWIDTH 34 0
BBX 28 47 3 0
BITMAP
001F8000
003FC000
003FC000
003FC000
003FC000
001F8000
00000000
00000000
00000000
00000000
7FFFFFE0
FFFFFFF0
FFFFFFF0
FFFFFFF0
FE0007F0
F80001F0
F80001F0
F00001F0
F00001F0
F00001F0
F00000E0
F0000000
F8000000
F8000000
FE003FC0
FF007FE0
FF00FFF0
FF007FF0
FF007FF0
FF0003F0
FF0001F0
FF0001F0
FF0001F0
FF0001F0
FF0001F0
FF0001F0
FF0001F0
FF0001F0
FF0001F0
FF8001F0
FF8001F0
FF8003F0
FFFFFFF0
FFFFFFF0
FFFFFFF0
FFFFFFE0
3FFFFFC0
ENDCHAR
STARTCHAR 0121
ENCODING 289
SWIDTH 446 0
DWIDTH 25 0
BBX 21 47 2 -10
BITMAP
01FC00
01FC00
01FC00
01FC00
01FC00
01FC00
000000
000000
000000
000000
000000
7FFFF0
FFFFF8
FFFFF8
FFFFF8
F800F8
F00078
F00078
F00078
F00078
F00078
F80078
FF0078
FF0078
FF0078
FF0078
FF0078
FF0078
FF0078
FF0078
FF0078
FF0078
FF80F8
FFFFF8
FFFFF8
7FFFF8
7FFFF8
0000F8
000078
000078
000078
0000F8
0001F8
7FFFF8
FFFFF8
FFFFF0
3FFFE0
ENDCHAR
STARTCHAR 0122
ENCODING 290
SWIDTH 607 0
DWIDTH 34 0
BBX 28 51 3 -14
BITMAP
7FFFFFE0
FFFFFFF0
FFFFFFF0
FFFFFFF0
FE0007F0
F80001F0
F80001F0
F00001F0
F00001F0
F00001F0
F00000E0
F0000000
F8000000
F8000000
FE003FC0
FF007FE0
FF00FFF0
FF007FF0
FF007FF0
FF0003F0
FF0001F0
FF0001F0
FF0001F0
FF0001F0
FF0001F0
FF0001F0
FF0001F0
FF0001F0
FF0001F0
FF8001F0
FF8001F0
FF8003F0
FFFFFFF0
FFFFFFF0
FFFFFFF0
FFFFFFE0
3FFFFFC0
00000000
00000000
00000000
001FC000
001FC000
001FE000
001FE000
001FE000
000FE000
0001E000
0001E000
0000C000
0000C000
0000C000
ENDCHAR
STARTCHAR 0123
ENCODING 291
SWIDTH 446 0
DWIDTH 25 0
BBX 21 50 2 -10
BITMAP
01C000
01C000
01C000
01C000
01F000
01FC00
01FE00
01FE00
01FE00
01FC00
007000
000000
000000
000000
7FFFF0
FFFFF8
FFFFF8
FFFFF8
F800F8
F00078
F00078
F00078
F00078
F00078
F80078
FF0078
FF0078
FF0078
FF0078
FF0078
FF0078
FF0078
FF0078
FF0078
FF0078
FF80F8
FFFFF8
FFFFF8
7FFFF8
7FFFF8
0000F8
000078
000078
000078
0000F8
0001F8
7FFFF8
FFFFF8
FFFFF0
3FFFE0
ENDCHAR
STARTCHAR 0124
ENCODING 292
SWIDTH 607 0
DWIDTH 34 0
BBX 28 48 3 0
BITMAP
003FC000
007FE000
00FFF000
01F9F800
03F1FC00
07F1FE00
07F1FE00
07E0FC00
00000000
00000000
00000040
F00000F0
F00000F0
F00001F0
F00001F0
F00001F0
F00001F0
F00001F0
F00001F0
F00001F0
F00001F0
F00001F0
F00001F0
F80001F0
F80001F0
FFFFFFF0
FFFFFFF0
FFFFFFF0
FFFFFFF0
FFFFFFF0
FFC003F0
FF8001F0
FF8001F0
FF0001F0
FF0001F0
FF0001F0
FF0001F0
FF0001F0
FF0001F0
FF0001F0
FF0001F0
FF0001F0
FF0001F0
FF0001F0
FF0001F0
FF0001F0
FF0001F0
7E0000F0
ENDCHAR
STARTCHAR 0125
ENCODING 293
SWIDTH 446 0
DWIDTH 25 0
BBX 21 47 2 0
BITMAP
07FC00
0FFE00
1FFF00
3F1F80
7F1FC0
FF1FC0
FF1FC0
000000
000000
000000
700000
F00000
F00000
F00000
F00000
F00000
F00000
F00000
F00000
F80000
FC0000
FFFFF0
FFFFF8
FFFFF8
FFFFF8
F800F8
F00078
F00078
F00078
F00078
F80078
F80078
FF0078
FF0078
FF0078
FF0078
FF0078
FF0078
FF0078
FF0078
FF0078
FF0078
FF0078
FF0078
FF0078
7F0078
7E0070
ENDCHAR
STARTCHAR 0126
ENCODING 294
SWIDTH 607 0
DWIDTH 34 0
BBX 28 38 3 0
BITMAP
00000040
F00000F0
F00000F0
F00001F0
F00001F0
F80001F0
FFFFFFF0
FFFFFFF0
FFFFFFF0
FFFFFFF0
FF8001F0
FF0001F0
FF0001F0
FF8001F0
FF8001F0
FFFFFFF0
FFFFFFF0
FFFFFFF0
FFFFFFF0
FFFFFFF0
FFC003F0
FF8001F0
FF8001F0
FF0001F0
FF0001F0
FF0001F0
FF0001F0
FF0001F0
FF0001F0
FF0001F0
FF0001F0
FF0001F0
FF0001F0
FF0001F0
FF0001F0
FF0001F0
FF0001F0
7E0000F0
ENDCHAR
STARTCHAR 0127
ENCODING 295
SWIDTH 446 0
DWIDTH 25 0
BBX 24 37 -1 0
BITMAP
0E0000
1E0000
1E0000
7FFE00
FFFF00
FFFF00
FFFF00
7FFE00
1E0000
1F0000
1F8000
1FFFFE
1FFFFF
1FFFFF
1FFFFF
1F001F
1E000F
1E000F
1E000F
1E000F
1F000F
1F000F
1FE00F
1FE00F
1FE00F
1FE00F
1FE00F
1FE00F
1FE00F
1FE00F
1FE00F
1FE00F
1FE00F
1FE00F
1FE00F
0FE00F
0FC00E
ENDCHAR
STARTCHAR 0128
ENCODING 296
SWIDTH 232 0
DWIDTH 13 0
BBX 19 48 -4 0
BITMAP
3FE0E0
7FF8E0
FFF8E0
FFF8E0
E3FFE0
E3FFE0
E1FFE0
607F00
000000
000000
000000
01E000
01E000
01E000
01E000
01E000
01E000
01E000
01E000
01E000
01E000
01E000
01E000
01E000
01F000
01FC00
01FE00
01FE00
01FE00
01FE00
01FE00
01FE00
01FE00
01FE00
01FE00
01FE00
01FE00
01FE00
01FE00
01FE00
01FE00
01FE00
01FE00
01FE00
01FE00
01FE00
01FE00
00FC00
ENDCHAR
STARTCHAR 0129
ENCODING 297
SWIDTH 214 0
DWIDTH 12 0
BBX 19 37 -4 0
BITMAP
3FE0E0
FFF8E0
FFF8E0
F3F8E0
E3FFE0
E1FFE0
E1FFE0
600000
000000
000000
000000
01C000
03C000
03C000
03C000
03C000
03C000
03C000
03C000
03E000
03F000
03FC00
03FC00
03FC00
03FC00
03FC00
03FC00
03FC00
03FC00
03FC00
03FC00
03FC00
03FC00
03FC00
03FC00
01FC00
01F800
ENDCHAR
STARTCHAR 012A
ENCODING 298
SWIDTH 232 0
DWIDTH 13 0
BBX 20 48 -4 0
BITMAP
3FFFC0
7FFFE0
FFFFF0
FFFFE0
FFE000
FFC000
7FC000
7F8000
000000
000000
000000
01E000
01E000
01E000
01E000
01E000
01E000
01E000
01E000
01E000
01E000
01E000
01E000
01E000
01F000
01FC00
01FE00
01FE00
01FE00
01FE00
01FE00
01FE00
01FE00
01FE00
01FE00
01FE00
01FE00
01FE00
01FE00
01FE00
01FE00
01FE00
01FE00
01FE00
01FE00
01FE00
01FE00
00FC00
ENDCHAR
STARTCHAR 012B
ENCODING 299
SWIDTH 214 0
DWIDTH 12 0
BBX 19 37 -3 0
BITMAP
7FFFC0
FFFFE0
FFFFE0
FFFFE0
FFC000
FFC000
FF8000
7F8000
000000
000000
000000
038000
078000
078000
078000
078000
078000
078000
078000
07C000
07E000
07F800
07F800
07F800
07F800
07F800
07F800
07F800
07F800
07F800
07F800
07F800
07F800
07F800
07F800
03F800
03F000
ENDCHAR
STARTCHAR 012E
ENCODING 302
SWIDTH 232 0
DWIDTH 13 0
BBX 9 45 3 -7
BITMAP
F000
F000
F000
F000
F000
F000
F000
F000
F000
F000
F000
F000
F000
F800
FE00
FF00
FF00
FF00
FF00
FF00
FF00
FF00
FF00
FF00
FF00
FF00
FF00
FF00
FF00
FF00
FF00
FF00
FF00
FF00
FF00
FF00
7E00
7000
7000
7000
7000
7000
7800
7F80
7F80
ENDCHAR
STARTCHAR 012F
ENCODING 303
SWIDTH 214 0
DWIDTH 12 0
BBX 9 46 2 -9
BITMAP
7E00
FE00
FF00
FF00
FE00
FE00
0000
0000
0000
0000
0000
7000
F000
F000
F000
F000
F000
F000
F000
F800
FC00
FF00
FF00
FF00
FF00
FF00
FF00
FF00
FF00
FF00
FF00
FF00
FF00
FF00
FF00
FF00
FE00
F000
F000
F000
F000
F000
F000
FF00
FF80
3F00
ENDCHAR
STARTCHAR 0130
ENCODING 304
SWIDTH 232 0
DWIDTH 13 0
BBX 9 47 2 0
BITMAP
7E00
FF00
FF00
FF00
FF00
7E00
0000
0000
0000
0000
7800
7800
7800
7800
7800
7800
7800
7800
7800
7800
7800
7800
7800
7C00
7F00
7F80
7F80
7F80
7F80
7F80
7F80
7F80
7F80
7F80
7F80
7F80
7F80
7F80
7F80
7F80
7F80
7F80
7F80
7F80
7F80
7F80
3F00
ENDCHAR
STARTCHAR 0131
ENCODING 305
SWIDTH 214 0
DWIDTH 12 0
BBX 8 26 2 0
BITMAP
70
F0
F0
F0
F0
F0
F0
F0
F8
FC
FF
FF
FF
FF
FF
FF
FF
FF
FF
FF
FF
FF
FF
FF
7F
7E
ENDCHAR
STARTCHAR 0132
ENCODING 306
SWIDTH 767 0
DWIDTH 43 0
BBX 38 38 3 0
BITMAP
0000000100
F000000780
F0000007C0
F0000007C0
F0000007C0
F0000007C0
F0000007C0
F0000007C0
F0000007C0
F0000007C0
F0000007C0
F0000007C0
F0000007C0
F0000007C0
F8000007C0
FE000007F0
FF000007F8
FF000007FC
FF000007FC
FF000007FC
FF000007FC
FF000007FC
FF000007FC
FF000007FC
FF0E0007FC
FF1E0007FC
FF1F0007FC
FF1F0007FC
FF1F0007FC
FF1F0007FC
FF1F0007FC
FF1F0007FC
FF1F800FFC
FF1FFFFFFC
FF1FFFFFFC
FF1FFFFFF8
FF0FFFFFF8
7E07FFFFF0
ENDCHAR
STARTCHAR 0133
ENCODING 307
SWIDTH 410 0
DWIDTH 23 0
BBX 19 47 2 -10
BITMAP
7E0FC0
FF1FE0
FF1FE0
FF1FE0
FF1FE0
7E0FC0
000000
000000
000000
000000
000000
701E00
F01E00
F01E00
F01E00
F01E00
F01E00
F01E00
F01E00
F81E00
FC1F80
FF1FE0
FF1FE0
FF1FE0
FF1FE0
FF1FE0
FF1FE0
FF1FE0
FF1FE0
FF1FE0
FF1FE0
FF1FE0
FF1FE0
FF1FE0
FF1FE0
7F1FE0
7E0FE0
0003E0
0001E0
0001E0
0001E0
0003E0
0007E0
01FFE0
01FFE0
01FFC0
00FF80
ENDCHAR
STARTCHAR 0134
ENCODING 308
SWIDTH 535 0
DWIDTH 30 0
BBX 28 48 2 0
BITMAP
0001FE00
0003FF00
0007FF80
000FDFC0
001F8FE0
003F8FF0
003F8FF0
003F07E0
00000000
00000000
00001000
00003C00
00007C00
00007C00
00007C00
00007C00
00007C00
00007C00
00007C00
00007C00
00007C00
00007C00
00007C00
00007C00
00007E00
00007F80
00007FC0
00007FC0
00007FC0
00007FC0
00007FC0
00007FC0
00007FC0
00007FC0
60007FC0
F0007FC0
F0007FC0
F0007FC0
F0007FC0
F0007FC0
F0007FC0
F0007FC0
F800FFC0
FFFFFFC0
FFFFFFC0
FFFFFFC0
FFFFFF80
7FFFFF00
ENDCHAR
STARTCHAR 0135
ENCODING 309
SWIDTH 214 0
DWIDTH 12 0
BBX 18 47 -3 -10
BITMAP
07FC00
0FFE00
1FFF00
3F3F80
7F1FC0
FF1FC0
FE1FC0
000000
000000
000000
000000
038000
078000
078000
078000
078000
078000
078000
078000
07C000
07E000
07F800
07F800
07F800
07F800
07F800
07F800
07F800
07F800
07F800
07F800
07F800
07F800
07F800
07F800
03F800
03F800
00F800
007800
007800
007800
007800
01F800
7FF800
7FF800
7FF800
3FE000
ENDCHAR
STARTCHAR 0136
ENCODING 310
SWIDTH 589 0
DWIDTH 33 0
BBX 28 52 3 -14
BITMAP
00001000
F0003C00
F0003C00
F0007C00
F0007C00
F0007C00
F0007C00
F0007C00
F0007C00
F0007C00
F0007C00
F0007C00
F0007C00
F8007C00
F8007E00
FFFFFFE0
FFFFFFF0
FFFFFFF0
FFFFFFF0
FFFFFFF0
FFC003F0
FF8001F0
FF8001F0
FF0001F0
FF0001F0
FF0001F0
FF0001F0
FF0001F0
FF0001F0
FF0001F0
FF0001F0
FF0001F0
FF0001F0
FF0001F0
FF0001F0
FF0001F0
FF0001F0
7E0000F0
00000000
00000000
00000000
001FC000
001FC000
003FC000
003FC000
001FC000
001FC000
0001C000
0001C000
0001C000
0001C000
00008000
ENDCHAR
STARTCHAR 0137
ENCODING 311
SWIDTH 446 0
DWIDTH 25 0
BBX 21 51 2 -14
BITMAP
700000
F00000
F00000
F00000
F00000
F00000
F00000
F00000
F00000
F00000
F00000
F00780
F00780
F00780
F00780
F00780
F00780
F00780
F80780
FFFFC0
FFFFF0
FFFFF8
FFFFF8
FFFFF8
FF00F8
FF0078
FF0078
FF0078
FF0078
FF0078
FF0078
FF0078
FF0078
FF0078
FF0078
7F0078
7E0070
000000
000000
000000
00FC00
01FE00
01FE00
01FE00
01FE00
00FE00
000E00
000E00
000E00
000E00
000400
ENDCHAR
STARTCHAR 0139
ENCODING 313
SWIDTH 482 0
DWIDTH 27 0
BBX 23 48 3 0
BITMAP
3F0000
3F8000
7F8000
7F0000
7E0000
7C0000
380000
300000
000000
000000
000000
F00000
F00000
F00000
F00000
F00000
F00000
F00000
F00000
F00000
F00000
F00000
F00000
F00000
F80000
FE0000
FF0000
FF0000
FF0000
FF0000
FF0000
FF0000
FF0000
FF0000
FF0000
FF0000
FF0000
FF0000
FF0000
FF0000
FF0000
FF8000
FF8000
FFFFF8
FFFFFC
FFFFFE
FFFFFC
7FFFFC
ENDCHAR
STARTCHAR 013A
ENCODING 314
SWIDTH 214 0
DWIDTH 12 0
BBX 8 46 2 0
BITMAP
7E
FF
FE
FE
FC
F8
F0
40
00
70
F0
F0
F0
F0
F0
F0
F0
F0
F8
FC
FF
FF
FF
FF
FF
FF
FF
FF
FF
FF
FF
FF
FF
FF
FF
FF
FF
FF
FF
FF
FF
FF
FF
FF
7F
7E
ENDCHAR
STARTCHAR 013B
ENCODING 315
SWIDTH 482 0
DWIDTH 27 0
BBX 23 51 3 -13
BITMAP
F00000
F00000
F00000
F00000
F00000
F00000
F00000
F00000
F00000
F00000
F00000
F00000
F00000
F80000
FE0000
FF0000
FF0000
FF0000
FF0000
FF0000
FF0000
FF0000
FF0000
FF0000
FF0000
FF0000
FF0000
FF0000
FF0000
FF0000
FF8000
FF8000
FFFFF8
FFFFFC
FFFFFE
FFFFFC
7FFFFC
000000
000000
000000
01F800
03FC00
03FC00
03FC00
03FC00
01FC00
003C00
001C00
001C00
001C00
000800
ENDCHAR
STARTCHAR 013C
ENCODING 316
SWIDTH 214 0
DWIDTH 12 0
BBX 8 51 2 -14
BITMAP
70
F0
F0
F0
F0
F0
F0
F0
F0
F8
FC
FF
FF
FF
FF
FF
FF
FF
FF
FF
FF
FF
FF
FF
FF
FF
FF
FF
FF
FF
FF
FF
FF
FF
FF
7F
7E
00
00
00
7F
FF
FF
FF
7F
7F
07
07
07
07
02
ENDCHAR
STARTCHAR 013D
ENCODING 317
SWIDTH 482 0
DWIDTH 27 0
BBX 23 38 3 0
BITMAP
003000
F1FC00
F1FE00
F1FE00
F1FE00
F1FE00
F07E00
F01E00
F00E00
F00E00
F00C00
F00000
F00000
F00000
F80000
FE0000
FF0000
FF0000
FF0000
FF0000
FF0000
FF0000
FF0000
FF0000
FF0000
FF0000
FF0000
FF0000
FF0000
FF0000
FF0000
FF8000
FF8000
FFFFF8
FFFFFC
FFFFFE
FFFFFC
7FFFFC
ENDCHAR
STARTCHAR 013E
ENCODING 318
SWIDTH 214 0
DWIDTH 12 0
BBX 16 38 2 0
BITMAP
0018
70FE
F0FF
F0FF
F0FF
F0FF
F03F
F00F
F007
F007
F806
FC00
FF00
FF00
FF00
FF00
FF00
FF00
FF00
FF00
FF00
FF00
FF00
FF00
FF00
FF00
FF00
FF00
FF00
FF00
FF00
FF00
FF00
FF00
FF00
FF00
7F00
7E00
ENDCHAR
STARTCHAR 013F
ENCODING 319
SWIDTH 482 0
DWIDTH 27 0
BBX 23 37 3 1
BITMAP
F00000
F00000
F00000
F00000
F00000
F00000
F00000
F00000
F00000
F00000
F00000
F00000
F00000
F80000
FE0000
FF03F0
FF07F8
FF07F8
FF07F8
FF07F8
FF03F8
FF01E0
FF0000
FF0000
FF0000
FF0000
FF0000
FF0000
FF0000
FF0000
FF8000
FF8000
FFFFF8
FFFFFC
FFFFFE
FFFFFC
7FFFFC
ENDCHAR
STARTCHAR 0140
ENCODING 320
SWIDTH 303 0
DWIDTH 17 0
BBX 17 37 2 0
BITMAP
700000
F00000
F00000
F00000
F00000
F00000
F00000
F00000
F00000
F80000
FC0000
FF0000
FF0000
FF0000
FF0000
FF3F00
FF7F00
FF7F80
FF7F80
FF7F00
FF7F00
FF1C00
FF0000
FF0000
FF0000
FF0000
FF0000
FF0000
FF0000
FF0000
FF0000
FF0000
FF0000
FF0000
FF0000
7F0000
7E0000
ENDCHAR
STARTCHAR 0141
ENCODING 321
SWIDTH 482 0
DWIDTH 27 0
BBX 28 37 -2 1
BITMAP
07800000
07800000
07800000
07800000
07800000
07800000
07800000
07800000
07800000
07800000
07800000
07800000
07800000
07C00000
3FFFC000
FFFFE000
FFFFE000
FFFFE000
FFF80000
FFF80000
FFF80000
7FF80000
07F80000
07F80000
07F80000
07F80000
07F80000
07F80000
07F80000
07F80000
07FC0000
07FC0000
07FFFFC0
07FFFFE0
07FFFFF0
07FFFFE0
03FFFFE0
ENDCHAR
STARTCHAR 0142
ENCODING 322
SWIDTH 214 0
DWIDTH 12 0
BBX 20 37 -3 0
BITMAP
038000
078000
078000
078000
078000
078000
078000
078000
078000
07C000
1FFFC0
7FFFF0
7FFFF0
7FFFF0
FFFF80
7FF800
7FF800
7FF800
07F800
07F800
07F800
07F800
07F800
07F800
07F800
07F800
07F800
07F800
07F800
07F800
07F800
07F800
07F800
07F800
07F800
03F800
03F000
ENDCHAR
STARTCHAR 0143
ENCODING 323
SWIDTH 589 0
DWIDTH 33 0
BBX 27 48 3 0
BITMAP
000FC000
001FE000
001FE000
001FC000
001F8000
001F0000
001E0000
000C0000
00000000
00000000
00000000
7FFFFFC0
FFFFFFE0
FFFFFFE0
FFFFFFE0
FE000FE0
F80003E0
F00003E0
F00001E0
F00001E0
F00001E0
F00001E0
F00001E0
F80001E0
F80001E0
FE0001E0
FF0001E0
FF0001E0
FF0001E0
FF0001E0
FF0001E0
FF0001E0
FF0001E0
FF0001E0
FF0001E0
FF0001E0
FF0001E0
FF0001E0
FF0001E0
FF0001E0
FF0001E0
FF0001E0
FF0001E0
FF0001E0
FF0001E0
FF0001E0
FF0001E0
7E0001E0
ENDCHAR
STARTCHAR 0144
ENCODING 324
SWIDTH 446 0
DWIDTH 25 0
BBX 21 37 2 0
BITMAP
007F00
007F80
007F00
007E00
007C00
007800
007000
000000
000000
000000
000000
7FFFF0
FFFFF8
FFFFF8
FFFFF8
F800F8
F00078
F00078
F00078
F00078
F80078
F80078
FF0078
FF0078
FF0078
FF0078
FF0078
FF0078
FF0078
FF0078
FF0078
FF0078
FF0078
FF0078
FF0078
7F0078
7E0070
ENDCHAR
STARTCHAR 0145
ENCODING 325
SWIDTH 589 0
DWIDTH 33 0
BBX 27 51 3 -14
BITMAP
7FFFFFC0
FFFFFFE0
FFFFFFE0
FFFFFFE0
FE000FE0
F80003E0
F00003E0
F00001E0
F00001E0
F00001E0
F00001E0
F00001E0
F80001E0
F80001E0
FE0001E0
FF0001E0
FF0001E0
FF0001E0
FF0001E0
FF0001E0
FF0001E0
FF0001E0
FF0001E0
FF0001E0
FF0001E0
FF0001E0
FF0001E0
FF0001E0
FF0001E0
FF0001E0
FF0001E0
FF0001E0
FF0001E0
FF0001E0
FF0001E0
FF0001E0
7E0001E0
00000000
00000000
00000000
001FC000
001FC000
001FC000
001FC000
001FC000
000FC000
0001C000
0001C000
0001C000
0001C000
0000C000
ENDCHAR
STARTCHAR 0146
ENCODING 326
SWIDTH 446 0
DWIDTH 25 0
BBX 21 40 2 -14
BITMAP
7FFFF0
FFFFF8
FFFFF8
FFFFF8
F800F8
F00078
F00078
F00078
F00078
F80078
F80078
FF0078
FF0078
FF0078
FF0078
FF0078
FF0078
FF0078
FF0078
FF0078
FF0078
FF0078
FF0078
FF0078
7F0078
7E0070
000000
000000
000000
00FE00
01FE00
01FE00
01FE00
00FE00
00FE00
000E00
000E00
000E00
000E00
000400
ENDCHAR
STARTCHAR 0147
ENCODING 327
SWIDTH 589 0
DWIDTH 33 0
BBX 27 48 3 0
BITMAP
07E0FC00
07F1FE00
07F1FC00
03F1FC00
01FBF800
00FFF000
007FE000
003FC000
00000000
00000000
00000000
7FFFFFC0
FFFFFFE0
FFFFFFE0
FFFFFFE0
FE000FE0
F80003E0
F00003E0
F00001E0
F00001E0
F00001E0
F00001E0
F00001E0
F80001E0
F80001E0
FE0001E0
FF0001E0
FF0001E0
FF0001E0
FF0001E0
FF0001E0
FF0001E0
FF0001E0
FF0001E0
FF0001E0
FF0001E0
FF0001E0
FF0001E0
FF0001E0
FF0001E0
FF0001E0
FF0001E0
FF0001E0
FF0001E0
FF0001E0
FF0001E0
FF0001E0
7E0001E0
ENDCHAR
STARTCHAR 0148
ENCODING 328
SWIDTH 446 0
DWIDTH 25 0
BBX 21 37 2 0
BITMAP
3F87F0
3F8FF0
3F8FE0
1FCFC0
0FFFC0
07FF80
03FF00
000000
000000
000000
000000
7FFFF0
FFFFF8
FFFFF8
FFFFF8
F800F8
F00078
F00078
F00078
F00078
F80078
F80078
FF0078
FF0078
FF0078
FF0078
FF0078
FF0078
FF0078
FF0078
FF0078
FF0078
FF0078
FF0078
FF0078
7F0078
7E0070
ENDCHAR
STARTCHAR 0149
ENCODING 329
SWIDTH 446 0
DWIDTH 25 0
BBX 27 38 -4 0
BITMAP
18000000
FE000000
FF000000
FF000000
FF000000
FF000000
3F000000
07000000
07000000
07000000
07000000
00000000
01FFFFC0
03FFFFE0
03FFFFE0
03FFFFE0
03E003E0
03C001E0
03C001E0
03C001E0
03C001E0
03E001E0
03E001E0
03FC01E0
03FC01E0
03FC01E0
03FC01E0
03FC01E0
03FC01E0
03FC01E0
03FC01E0
03FC01E0
03FC01E0
03FC01E0
03FC01E0
03FC01E0
01FC01E0
01F801C0
ENDCHAR
STARTCHAR 014C
ENCODING 332
SWIDTH 607 0
DWIDTH 34 0
BBX 29 48 3 0
BITMAP
03FFFE00
07FFFF00
07FFFF00
07FFFE00
0FFE0000
07FC0000
07FC0000
03FC0000
00000000
00000000
00000000
7FFFFFE0
FFFFFFF0
FFFFFFF0
FFFFFFF0
FE007FF8
F8001FF8
F0000FF8
F0000FF8
F0000FF8
F0000FF8
F0000FF8
F00003F8
F00001F8
F00000F8
F00000F8
F00000F8
F00000F8
F00000F8
F00000F8
F00000F8
F00000F8
F00000F8
F00000F8
F00000F8
F00000F8
F00000F8
F00000F8
F00000F8
F00000F8
F00000F8
F80000F8
F80001F8
FFFFFFF8
FFFFFFF0
FFFFFFF0
FFFFFFF0
7FFFFFE0
ENDCHAR
STARTCHAR 014D
ENCODING 333
SWIDTH 446 0
DWIDTH 25 0
BBX 21 37 2 0
BITMAP
3FFFE0
7FFFF0
7FFFF0
7FFFF0
7FF000
7FE000
7FE000
3FC000
000000
000000
000000
7FFFF0
FFFFF8
FFFFF8
FFFFF8
F800F8
F00078
F00078
F00078
F00078
F00078
F80078
FF0078
FF0078
FF0078
FF0078
FF0078
FF0078
FF0078
FF0078
FF0078
FF0078
FF80F8
FFFFF8
FFFFF8
7FFFF0
7FFFF0
ENDCHAR
STARTCHAR 014E
ENCODING 334
SWIDTH 607 0
DWIDTH 34 0
BBX 29 48 3 0
BITMAP
03F01C00
07F81E00
07F81E00
07F81E00
07FFFE00
07FFFE00
03FFFC00
00000000
00000000
00000000
00000000
7FFFFFE0
FFFFFFF0
FFFFFFF0
FFFFFFF0
FE007FF8
F8001FF8
F0000FF8
F0000FF8
F0000FF8
F0000FF8
F0000FF8
F00003F8
F00001F8
F00000F8
F00000F8
F00000F8
F00000F8
F00000F8
F00000F8
F00000F8
F00000F8
F00000F8
F00000F8
F00000F8
F00000F8
F00000F8
F00000F8
F00000F8
F00000F8
F00000F8
F80000F8
F80001F8
FFFFFFF8
FFFFFFF0
FFFFFFF0
FFFFFFF0
7FFFFFE0
ENDCHAR
STARTCHAR 014F
ENCODING 335
SWIDTH 446 0
DWIDTH 25 0
BBX 21 36 2 0
BITMAP
3F80E0
3F81E0
3F81E0
3FC1E0
3FFFE0
3FFFE0
1FFFE0
000000
000000
000000
7FFFF0
FFFFF8
FFFFF8
FFFFF8
F800F8
F00078
F00078
F00078
F00078
F00078
F80078
FF0078
FF0078
FF0078
FF0078
FF0078
FF0078
FF0078
FF0078
FF0078
FF0078
FF80F8
FFFFF8
FFFFF8
7FFFF0
7FFFF0
ENDCHAR
STARTCHAR 0150
ENCODING 336
SWIDTH 607 0
DWIDTH 34 0
BBX 29 48 3 0
BITMAP
00700300
00F00780
01F00F80
03F01F80
07F03F80
07F07F80
07F07F00
00000000
00000000
00000000
00000000
7FFFFFE0
FFFFFFF0
FFFFFFF0
FFFFFFF0
FE007FF8
F8001FF8
F0000FF8
F0000FF8
F0000FF8
F0000FF8
F0000FF8
F00003F8
F00001F8
F00000F8
F00000F8
F00000F8
F00000F8
F00000F8
F00000F8
F00000F8
F00000F8
F00000F8
F00000F8
F00000F8
F00000F8
F00000F8
F00000F8
F00000F8
F00000F8
F00000F8
F80000F8
F80001F8
FFFFFFF8
FFFFFFF0
FFFFFFF0
FFFFFFF0
7FFFFFE0
ENDCHAR
STARTCHAR 0151
ENCODING 337
SWIDTH 446 0
DWIDTH 25 0
BBX 21 37 2 0
BITMAP
070070
0F00F0
1F01F0
3F03F0
7F07F0
FF07F0
7F07F0
000000
000000
000000
000000
7FFFF0
FFFFF8
FFFFF8
FFFFF8
F800F8
F00078
F00078
F00078
F00078
F00078
F80078
FF0078
FF0078
FF0078
FF0078
FF0078
FF0078
FF0078
FF0078
FF0078
FF0078
FF80F8
FFFFF8
FFFFF8
7FFFF0
7FFFF0
ENDCHAR
STARTCHAR 0152
ENCODING 338
SWIDTH 928 0
DWIDTH 52 0
BBX 47 37 3 0
BITMAP
7FFFFFFFFFFC
FFFFFFFFFFFE
FFFFFFFFFFFE
FFFFFFFFFFFC
FE007FFE0000
F8001FF80000
F0000FF80000
F0000FF80000
F0000FF80000
F0000FF80000
F0000FF80000
F00003F80000
F00001F80000
F00000F80000
F00000FFFFFC
F00000FFFFFE
F00000FFFFFE
F00000FFFFFE
F00000FFFFFC
F00000FF8000
F00000FF8000
F00000FF8000
F00000FF8000
F00000FF8000
F00000FF8000
F00000FF8000
F00000FF8000
F00000FF8000
F00000FF8000
F00000FF8000
F80001FF8000
F80001FF8000
FFFFFFFFFFF8
FFFFFFFFFFFE
FFFFFFFFFFFE
FFFFFFFFFFFE
7FFFFFFFFFFC
ENDCHAR
STARTCHAR 0153
ENCODING 339
SWIDTH 750 0
DWIDTH 42 0
BBX 37 26 2 0
BITMAP
7FFFFFFFF8
FFFFFFFFF8
FFFFFFFFF8
FFFFFFFFF8
F800F80078
F000780078
F000780078
F000780078
F000780078
F000780078
F8007FFFF8
FF007FFFF8
FF007FFFF8
FF007FFFF0
FF007F8000
FF007F8000
FF007F0000
FF007F0030
FF007F0078
FF007F8078
FF007F8078
FF80FF80F8
FFFFFFFFF8
FFFFFFFFF8
7FFFFFFFF8
7FFFFFFFF0
ENDCHAR
STARTCHAR 0154
ENCODING 340
SWIDTH 589 0
DWIDTH 33 0
BBX 29 48 3 0
BITMAP
001F8000
003F8000
003F8000
003F0000
003E0000
003C0000
00380000
00300000
00000000
00000000
00000000
7FFFFE00
FFFFFF00
FFFFFF00
FFFFFF00
FC007F80
F8001F80
F8000F80
F0000F80
F0000F80
F0000F80
F0000F80
F0000F80
F8001F80
F8001F80
FFFFFFE0
FFFFFFF0
FFFFFFF8
FFFFFFF8
FFFFFFF8
FFC001F8
FF8001F8
FF0000F8
FF0000F8
FF0000F8
FF0000F8
FF0000F8
FF0000F8
FF0000F8
FF0000F8
FF0000F8
FF0000F8
FF0000F8
FF0000F8
FF0000F8
FF0000F8
FF0000F0
7E0000F0
ENDCHAR
STARTCHAR 0155
ENCODING 341
SWIDTH 321 0
DWIDTH 18 0
BBX 15 37 2 0
BITMAP
07F0
0FF0
0FF0
0FE0
0FC0
0F80
0600
0000
0000
0000
0000
7FFE
FFFE
FFFE
FFFC
F800
F000
F000
F000
F800
FC00
FF00
FF00
FF00
FF00
FF00
FF00
FF00
FF00
FF00
FF00
FF00
FF00
FF00
FF00
7F00
7E00
ENDCHAR
STARTCHAR 0156
ENCODING 342
SWIDTH 589 0
DWIDTH 33 0
BBX 29 51 3 -14
BITMAP
7FFFFE00
FFFFFF00
FFFFFF00
FFFFFF00
FC007F80
F8001F80
F8000F80
F0000F80
F0000F80
F0000F80
F0000F80
F0000F80
F8001F80
F8001F80
FFFFFFE0
FFFFFFF0
FFFFFFF8
FFFFFFF8
FFFFFFF8
FFC001F8
FF8001F8
FF0000F8
FF0000F8
FF0000F8
FF0000F8
FF0000F8
FF0000F8
FF0000F8
FF0000F8
FF0000F8
FF0000F8
FF0000F8
FF0000F8
FF0000F8
FF0000F8
FF0000F0
7E0000F0
00000000
00000000
00000000
001F8000
003FC000
003FC000
003FC000
003FC000
001FC000
0001C000
0001C000
0001C000
0001C000
00008000
ENDCHAR
STARTCHAR 0157
ENCODING 343
SWIDTH 321 0
DWIDTH 18 0
BBX 15 40 2 -14
BITMAP
7FFE
FFFE
FFFE
FFFC
F800
F000
F000
F000
F800
FC00
FF00
FF00
FF00
FF00
FF00
FF00
FF00
FF00
FF00
FF00
FF00
FF00
FF00
FF00
7F00
7E00
0000
0000
0000
7F00
7F00
7F00
7F00
7F00
3F00
0700
0700
0700
0700
0300
ENDCHAR
STARTCHAR 0158
ENCODING 344
SWIDTH 589 0
DWIDTH 33 0
BBX 29 48 3 0
BITMAP
07E0F800
0FE1FC00
0FF1FC00
07F1F800
03F3F000
01FFE000
00FFC000
007F8000
00000000
00000000
00000000
7FFFFE00
FFFFFF00
FFFFFF00
FFFFFF00
FC007F80
F8001F80
F8000F80
F0000F80
F0000F80
F0000F80
F0000F80
F0000F80
F8001F80
F8001F80
FFFFFFE0
FFFFFFF0
FFFFFFF8
FFFFFFF8
FFFFFFF8
FFC001F8
FF8001F8
FF0000F8
FF0000F8
FF0000F8
FF0000F8
FF0000F8
FF0000F8
FF0000F8
FF0000F8
FF0000F8
FF0000F8
FF0000F8
FF0000F8
FF0000F8
FF0000F8
FF0000F0
7E0000F0
ENDCHAR
STARTCHAR 0159
ENCODING 345
SWIDTH 321 0
DWIDTH 18 0
BBX 19 37 -1 0
BITMAP
7F0FC0
FF1FE0
7F1FC0
3F1F80
1FFF00
0FFE00
07FC00
000000
000000
000000
000000
0FFFC0
1FFFC0
1FFFC0
1FFF80
1F0000
1E0000
1E0000
1E0000
1F0000
1F8000
1FE000
1FE000
1FE000
1FE000
1FE000
1FE000
1FE000
1FE000
1FE000
1FE000
1FE000
1FE000
1FE000
1FE000
0FE000
0FC000
ENDCHAR
STARTCHAR 015A
ENCODING 346
SWIDTH 589 0
DWIDTH 33 0
BBX 29 48 2 0
BITMAP
0001F800
0003F800
0003F800
0003F000
0003E000
0003C000
00038000
00030000
00000000
00000000
00000000
3FFFFFF0
7FFFFFF8
FFFFFFF8
FFFFFFF8
FE0003F8
F80000F8
F80000F8
F80000F8
F80000F8
F8000078
F8000070
F8000000
F8000000
FC000000
FFFFFFE0
FFFFFFF0
FFFFFFF8
7FFFFFF8
3FFFFFF8
00001FF8
00000FF8
00000FF8
00000FF8
70000FF8
78000FF8
F8000FF8
F8000FF8
F8000FF8
F8000FF8
F8000FF8
F8000FF8
FC000FF8
FFFFFFF8
FFFFFFF8
7FFFFFF8
7FFFFFF8
3FFFFFE0
ENDCHAR
STARTCHAR 015B
ENCODING 347
SWIDTH 446 0
DWIDTH 25 0
BBX 21 37 2 0
BITMAP
007F00
007F00
007F00
007E00
007C00
007800
007000
000000
000000
000000
000000
7FFFF0
FFFFF8
FFFFF8
FFFFF8
F800F8
F00078
F00078
F00070
F00000
F80000
FFFFF0
FFFFF8
FFFFF8
7FFFF8
000FF8
0007F8
0007F8
7007F8
F007F8
F007F8
F007F8
F80FF8
FFFFF8
FFFFF8
7FFFF0
7FFFF0
ENDCHAR
STARTCHAR 015C
ENCODING 348
SWIDTH 589 0
DWIDTH 33 0
BBX 29 48 2 0
BITMAP
001FE000
003FF000
007FF800
00FCFC00
01F8FE00
03F8FF00
03F87F00
03F87E00
00000000
00000000
00000000
3FFFFFF0
7FFFFFF8
FFFFFFF8
FFFFFFF8
FE0003F8
F80000F8
F80000F8
F80000F8
F80000F8
F8000078
F8000070
F8000000
F8000000
FC000000
FFFFFFE0
FFFFFFF0
FFFFFFF8
7FFFFFF8
3FFFFFF8
00001FF8
00000FF8
00000FF8
00000FF8
70000FF8
78000FF8
F8000FF8
F8000FF8
F8000FF8
F8000FF8
F8000FF8
F8000FF8
FC000FF8
FFFFFFF8
FFFFFFF8
7FFFFFF8
7FFFFFF8
3FFFFFE0
ENDCHAR
STARTCHAR 015D
ENCODING 349
SWIDTH 446 0
DWIDTH 25 0
BBX 21 37 2 0
BITMAP
03FE00
07FF00
0FFF80
1F8FC0
3F8FE0
3F8FF0
3F87F0
000000
000000
000000
000000
7FFFF0
FFFFF8
FFFFF8
FFFFF8
F800F8
F00078
F00078
F00070
F00000
F80000
FFFFF0
FFFFF8
FFFFF8
7FFFF8
000FF8
0007F8
0007F8
7007F8
F007F8
F007F8
F007F8
F80FF8
FFFFF8
FFFFF8
7FFFF0
7FFFF0
ENDCHAR
STARTCHAR 015E
ENCODING 350
SWIDTH 589 0
DWIDTH 33 0
BBX 29 48 2 -11
BITMAP
3FFFFFF0
7FFFFFF8
FFFFFFF8
FFFFFFF8
FE0003F8
F80000F8
F80000F8
F80000F8
F80000F8
F8000078
F8000070
F8000000
F8000000
FC000000
FFFFFFE0
FFFFFFF0
FFFFFFF8
7FFFFFF8
3FFFFFF8
00001FF8
00000FF8
00000FF8
00000FF8
70000FF8
78000FF8
F8000FF8
F8000FF8
F8000FF8
F8000FF8
F8000FF8
F8000FF8
FC000FF8
FFFFFFF8
FFFFFFF8
7FFFFFF8
7FFFFFF8
3FFFFFE0
00060000
00060000
00070000
0007F000
0003F000
0000F000
0000F000
0000F000
000FF000
000FF000
000FE000
ENDCHAR
STARTCHAR 015F
ENCODING 351
SWIDTH 446 0
DWIDTH 25 0
BBX 21 37 2 -11
BITMAP
7FFFF0
FFFFF8
FFFFF8
FFFFF8
F800F8
F00078
F00078
F00070
F00000
F80000
FFFFF0
FFFFF8
FFFFF8
7FFFF8
000FF8
0007F8
0007F8
7007F8
F007F8
F007F8
F007F8
F80FF8
FFFFF8
FFFFF8
7FFFF0
7FFFF0
006000
006000
007000
007F00
003F00
000F00
000F00
000F00
00FF00
00FF00
00FE00
ENDCHAR
STARTCHAR 0160
ENCODING 352
SWIDTH 589 0
DWIDTH 33 0
BBX 29 48 2 0
BITMAP
01F07E00
03F8FF00
03F8FF00
01F8FE00
00FCFC00
007FF800
003FF000
001FE000
00000000
00000000
00000000
3FFFFFF0
7FFFFFF8
FFFFFFF8
FFFFFFF8
FE0003F8
F80000F8
F80000F8
F80000F8
F80000F8
F8000078
F8000070
F8000000
F8000000
FC000000
FFFFFFE0
FFFFFFF0
FFFFFFF8
7FFFFFF8
3FFFFFF8
00001FF8
00000FF8
00000FF8
00000FF8
70000FF8
78000FF8
F8000FF8
F8000FF8
F8000FF8
F8000FF8
F8000FF8
F8000FF8
FC000FF8
FFFFFFF8
FFFFFFF8
7FFFFFF8
7FFFFFF8
3FFFFFE0
ENDCHAR
STARTCHAR 0161
ENCODING 353
SWIDTH 446 0
DWIDTH 25 0
BBX 21 37 2 0
BITMAP
3F87E0
7F8FF0
3F8FE0
1F8FC0
0FFF80
07FF00
03FE00
000000
000000
000000
000000
7FFFF0
FFFFF8
FFFFF8
FFFFF8
F800F8
F00078
F00078
F00070
F00000
F80000
FFFFF0
FFFFF8
FFFFF8
7FFFF8
000FF8
0007F8
0007F8
7007F8
F007F8
F007F8
F007F8
F80FF8
FFFFF8
FFFFF8
7FFFF0
7FFFF0
ENDCHAR
STARTCHAR 0162
ENCODING 354
SWIDTH 535 0
DWIDTH 30 0
BBX 28 51 1 -14
BITMAP
7FFFFFF0
FFFFFFF0
FFFFFFF0
7FFFFFE0
007FC000
001F0000
001F0000
001F0000
001F0000
001F0000
001F0000
001F0000
001F0000
001F8000
001FE000
001FF000
001FF000
001FF000
001FF000
001FF000
001FF000
001FF000
001FF000
001FF000
001FF000
001FF000
001FF000
001FF000
001FF000
001FF000
001FF000
001FF000
001FF000
001FF000
001FF000
000FE000
0007C000
00000000
00000000
00000000
000FE000
000FE000
000FF000
000FF000
000FF000
0007F000
0000F000
00007000
00007000
00006000
00006000
ENDCHAR
STARTCHAR 0163
ENCODING 355
SWIDTH 250 0
DWIDTH 14 0
BBX 12 50 0 -14
BITMAP
0700
0F00
0F00
0F00
0F00
0F00
0F00
0F00
0F00
1F80
FFF0
FFF0
FFF0
7FE0
0F00
0F00
0F00
0F00
0F00
0FC0
0FF0
0FF0
0FF0
0FF0
0FF0
0FF0
0FF0
0FF0
0FF0
0FF0
0FF0
0FF0
0FF0
0FF0
0FF0
07E0
0000
0000
0000
07E0
0FF0
0FF0
0FF0
0FF0
07F0
0070
0070
0070
0070
0020
ENDCHAR
STARTCHAR 0164
ENCODING 356
SWIDTH 535 0
DWIDTH 30 0
BBX 28 48 1 0
BITMAP
03F07C00
07F0FE00
07F8FE00
03F9FC00
01F9F800
00FFF000
007FE000
003FC000
00000000
00000000
00000000
7FFFFFF0
FFFFFFF0
FFFFFFF0
7FFFFFE0
007FC000
001F0000
001F0000
001F0000
001F0000
001F0000
001F0000
001F0000
001F0000
001F8000
001FE000
001FF000
001FF000
001FF000
001FF000
001FF000
001FF000
001FF000
001FF000
001FF000
001FF000
001FF000
001FF000
001FF000
001FF000
001FF000
001FF000
001FF000
001FF000
001FF000
001FF000
000FE000
0007C000
ENDCHAR
STARTCHAR 0165
ENCODING 357
SWIDTH 250 0
DWIDTH 14 0
BBX 18 38 0 0
BITMAP
000600
003FC0
073FC0
0F3FC0
0F3FC0
0F3FC0
0F0FC0
0F01C0
0F01C0
0F01C0
0F01C0
1F8000
FFF000
FFF000
FFF000
7FE000
0F0000
0F0000
0F0000
0F0000
0F0000
0FC000
0FF000
0FF000
0FF000
0FF000
0FF000
0FF000
0FF000
0FF000
0FF000
0FF000
0FF000
0FF000
0FF000
0FF000
0FF000
07E000
ENDCHAR
STARTCHAR 0166
ENCODING 358
SWIDTH 535 0
DWIDTH 30 0
BBX 28 37 1 0
BITMAP
7FFFFFF0
FFFFFFF0
FFFFFFF0
7FFFFFE0
007FC000
001F0000
001F0000
001F0000
001F0000
001F0000
001F0000
01FFFC00
07FFFF00
07FFFF00
07FFFF00
07FFFF00
07FFFC00
07FFF000
03FFF000
003FF000
001FF000
001FF000
001FF000
001FF000
001FF000
001FF000
001FF000
001FF000
001FF000
001FF000
001FF000
001FF000
001FF000
001FF000
001FF000
000FE000
0007C000
ENDCHAR
STARTCHAR 0167
ENCODING 359
SWIDTH 250 0
DWIDTH 14 0
BBX 12 36 0 0
BITMAP
0700
0F00
0F00
0F00
0F00
0F00
0F00
0F00
0F00
1F80
FFF0
FFF0
FFF0
7FE0
0F00
0F00
0F00
7FE0
FFF0
FFF0
FFF0
3FF0
0FF0
0FF0
0FF0
0FF0
0FF0
0FF0
0FF0
0FF0
0FF0
0FF0
0FF0
0FF0
0FF0
07E0
ENDCHAR
STARTCHAR 0168
ENCODING 360
SWIDTH 589 0
DWIDTH 33 0
BBX 27 48 3 0
BITMAP
03FE0E00
0FFF0E00
0FFF8E00
0F7F8E00
0E3FFE00
0E3FFE00
0E1FFE00
0E07F000
00000000
00000000
00000000
F00001E0
F00001E0
F00001E0
F00001E0
F00001E0
F00001E0
F00001E0
F00001E0
F00001E0
F00001E0
F00001E0
F00001E0
F80001E0
F80001E0
FE0001E0
FF0001E0
FF0001E0
FF0001E0
FF0001E0
FF0001E0
FF0001E0
FF0001E0
FF0001E0
FF0001E0
FF0001E0
FF0001E0
FF0001E0
FF0001E0
FF0001E0
FF0001E0
FF8003E0
FF8003E0
FFFFFFE0
FFFFFFE0
FFFFFFE0
FFFFFFE0
3FFFFFC0
ENDCHAR
STARTCHAR 0169
ENCODING 361
SWIDTH 446 0
DWIDTH 25 0
BBX 21 37 2 0
BITMAP
1FF070
7FF870
7FFC70
7BFC70
71FFF0
71FFF0
70FFF0
700000
000000
000000
000000
700070
F00078
F00078
F00078
F00078
F00078
F00078
F00078
F80078
FC0078
FF0078
FF0078
FF0078
FF0078
FF0078
FF0078
FF0078
FF0078
FF0078
FF0078
FF0078
FF80F8
FFFFF8
FFFFF8
7FFFF0
7FFFF0
ENDCHAR
STARTCHAR 016A
ENCODING 362
SWIDTH 589 0
DWIDTH 33 0
BBX 27 48 3 0
BITMAP
03FFFC00
07FFFE00
0FFFFE00
0FFFFE00
0FFE0000
0FFC0000
0FFC0000
07F80000
00000000
00000000
00000000
F00001E0
F00001E0
F00001E0
F00001E0
F00001E0
F00001E0
F00001E0
F00001E0
F00001E0
F00001E0
F00001E0
F00001E0
F80001E0
F80001E0
FE0001E0
FF0001E0
FF0001E0
FF0001E0
FF0001E0
FF0001E0
FF0001E0
FF0001E0
FF0001E0
FF0001E0
FF0001E0
FF0001E0
FF0001E0
FF0001E0
FF0001E0
FF0001E0
FF8003E0
FF8003E0
FFFFFFE0
FFFFFFE0
FFFFFFE0
FFFFFFE0
3FFFFFC0
ENDCHAR
STARTCHAR 016B
ENCODING 363
SWIDTH 446 0
DWIDTH 25 0
BBX 21 37 2 0
BITMAP
3FFFE0
7FFFF0
7FFFF0
7FFFE0
7FE000
7FE000
7FC000
3FC000
000000
000000
000000
700070
F00078
F00078
F00078
F00078
F00078
F00078
F00078
F80078
FC0078
FF0078
FF0078
FF0078
FF0078
FF0078
FF0078
FF0078
FF0078
FF0078
FF0078
FF0078
FF80F8
FFFFF8
FFFFF8
7FFFF0
7FFFF0
ENDCHAR
STARTCHAR 016C
ENCODING 364
SWIDTH 589 0
DWIDTH 33 0
BBX 27 48 3 0
BITMAP
03E01C00
07F03C00
07F03C00
0FF03C00
0FFFFC00
07FFFC00
07FFFC00
00000000
00000000
00000000
00000000
F00001E0
F00001E0
F00001E0
F00001E0
F00001E0
F00001E0
F00001E0
F00001E0
F00001E0
F00001E0
F00001E0
F00001E0
F80001E0
F80001E0
FE0001E0
FF0001E0
FF0001E0
FF0001E0
FF0001E0
FF0001E0
FF0001E0
FF0001E0
FF0001E0
FF0001E0
FF0001E0
FF0001E0
FF0001E0
FF0001E0
FF0001E0
FF0001E0
FF8003E0
FF8003E0
FFFFFFE0
FFFFFFE0
FFFFFFE0
FFFFFFE0
3FFFFFC0
ENDCHAR
STARTCHAR 016D
ENCODING 365
SWIDTH 446 0
DWIDTH 25 0
BBX 21 36 2 0
BITMAP
3F01E0
3F81E0
7F81E0
7FC1E0
7FFFE0
3FFFE0
1FFFC0
000000
000000
000000
700070
F00078
F00078
F00078
F00078
F00078
F00078
F00078
F80078
FC0078
FF0078
FF0078
FF0078
FF0078
FF0078
FF0078
FF0078
FF0078
FF0078
FF0078
FF0078
FF80F8
FFFFF8
FFFFF8
7FFFF0
7FFFF0
ENDCHAR
STARTCHAR 016E
ENCODING 366
SWIDTH 589 0
DWIDTH 33 0
BBX 27 48 3 0
BITMAP
003FC000
003FC000
003DC000
0038C000
0038C000
003FC000
003FC000
001FC000
00000000
00000000
00000000
F00001E0
F00001E0
F00001E0
F00001E0
F00001E0
F00001E0
F00001E0
F00001E0
F00001E0
F00001E0
F00001E0
F00001E0
F80001E0
F80001E0
FE0001E0
FF0001E0
FF0001E0
FF0001E0
FF0001E0
FF0001E0
FF0001E0
FF0001E0
FF0001E0
FF0001E0
FF0001E0
FF0001E0
FF0001E0
FF0001E0
FF0001E0
FF0001E0
FF8003E0
FF8003E0
FFFFFFE0
FFFFFFE0
FFFFFFE0
FFFFFFE0
3FFFFFC0
ENDCHAR
STARTCHAR 016F
ENCODING 367
SWIDTH 446 0
DWIDTH 25 0
BBX 21 38 2 0
BITMAP
01FC00
03FE00
03DE00
038E00
038E00
03FE00
03FE00
01FC00
000000
000000
000000
000000
700070
F00078
F00078
F00078
F00078
F00078
F00078
F00078
F80078
FC0078
FF0078
FF0078
FF0078
FF0078
FF0078
FF0078
FF0078
FF0078
FF0078
FF0078
FF0078
FF80F8
FFFFF8
FFFFF8
7FFFF0
7FFFF0
ENDCHAR
STARTCHAR 0170
ENCODING 368
SWIDTH 589 0
DWIDTH 33 0
BBX 27 48 3 0
BITMAP
00600700
00F00F00
01F01F00
03F03F00
07F07F00
0FF0FF00
0FE0FF00
00000000
00000000
00000000
00000000
F00001E0
F00001E0
F00001E0
F00001E0
F00001E0
F00001E0
F00001E0
F00001E0
F00001E0
F00001E0
F00001E0
F00001E0
F80001E0
F80001E0
FE0001E0
FF0001E0
FF0001E0
FF0001E0
FF0001E0
FF0001E0
FF0001E0
FF0001E0
FF0001E0
FF0001E0
FF0001E0
FF0001E0
FF0001E0
FF0001E0
FF0001E0
FF0001E0
FF8003E0
FF8003E0
FFFFFFE0
FFFFFFE0
FFFFFFE0
FFFFFFE0
3FFFFFC0
ENDCHAR
STARTCHAR 0171
ENCODING 369
SWIDTH 446 0
DWIDTH 25 0
BBX 21 37 2 0
BITMAP
070030
0F0078
1F00F8
3F01F8
7F03F8
7F07F8
7F07F0
000000
000000
000000
000000
700070
F00078
F00078
F00078
F00078
F00078
F00078
F00078
F80078
FC0078
FF0078
FF0078
FF0078
FF0078
FF0078
FF0078
FF0078
FF0078
FF0078
FF0078
FF0078
FF80F8
FFFFF8
FFFFF8
7FFFF0
7FFFF0
ENDCHAR
STARTCHAR 0172
ENCODING 370
SWIDTH 589 0
DWIDTH 33 0
BBX 27 45 3 -7
BITMAP
F00001E0
F00001E0
F00001E0
F00001E0
F00001E0
F00001E0
F00001E0
F00001E0
F00001E0
F00001E0
F00001E0
F00001E0
F80001E0
F80001E0
FE0001E0
FF0001E0
FF0001E0
FF0001E0
FF0001E0
FF0001E0
FF0001E0
FF0001E0
FF0001E0
FF0001E0
FF0001E0
FF0001E0
FF0001E0
FF0001E0
FF0001E0
FF0001E0
FF8003E0
FF8003E0
FFFFFFE0
FFFFFFE0
FFFFFFE0
FFFFFFE0
3FFFFFC0
00078000
00078000
00078000
00078000
00078000
00078000
0007FC00
0007F800
ENDCHAR
STARTCHAR 0173
ENCODING 371
SWIDTH 446 0
DWIDTH 25 0
BBX 21 35 2 -9
BITMAP
700070
F00078
F00078
F00078
F00078
F00078
F00078
F00078
F80078
FC0078
FF0078
FF0078
FF0078
FF0078
FF0078
FF0078
FF0078
FF0078
FF0078
FF0078
FF0078
FF80F8
FFFFF8
FFFFF8
7FFFF0
7FFFF0
007800
007800
007800
007800
007800
007800
007F80
003FC0
001F80
ENDCHAR
STARTCHAR 0174
ENCODING 372
SWIDTH 803 0
DWIDTH 45 0
BBX 39 48 3 0
BITMAP
00007F0000
0001FF8000
0003FFC000
0007F7E000
000FE3F000
001FE3F800
001FE3F800
000FC1F800
0000000000
0000000000
0000080008
F0001C001E
F0003E001E
F0003E003E
F0003E003E
F0003E003E
F0003E003E
F0003E003E
F0003E003E
F0003E003E
F0003E003E
F0003E003E
F0003E003E
F8003E003E
F8003E003E
FE003E003E
FF003E003E
FF003E003E
FF003E003E
FF003E003E
FF003E003E
FF003E003E
FF003E003E
FF003E003E
FF003E003E
FF003E003E
FF003E003E
FF003E003E
FF003E003E
FF003E003E
FF003E003E
FF803E003E
FF807F003E
FFFFFFFFFE
FFFFFFFFFE
FFFFFFFFFE
FFFFFFFFFE
7FFFFFFFF8
ENDCHAR
STARTCHAR 0175
ENCODING 373
SWIDTH 607 0
DWIDTH 34 0
BBX 30 37 2 0
BITMAP
003FE000
007FF000
00FFF800
01FCFC00
03F8FE00
03F8FF00
03F87F00
00000000
00000000
00000000
00000000
70078038
F007803C
F007803C
F007803C
F007803C
F007803C
F007803C
F007803C
F807803C
FC07E03C
FF07F03C
FF07F83C
FF07F83C
FF07F83C
FF07F83C
FF07F83C
FF07F83C
FF07F83C
FF07F83C
FF07F83C
FF07F87C
FF8FF87C
FFFFFFFC
FFFFFFFC
7FFFFFF8
7FFFFFF8
ENDCHAR
STARTCHAR 0176
ENCODING 374
SWIDTH 517 0
DWIDTH 29 0
BBX 26 48 2 0
BITMAP
007F0000
00FFC000
01FFE000
03F7F000
07E3F800
0FE3F800
0FE3FC00
0FC1F800
00000000
00000000
40000100
F00003C0
F00007C0
F00007C0
F00007C0
F00007C0
F00007C0
F00007C0
F00007C0
F00007C0
F00007C0
F00007C0
F00007C0
F00007C0
F8000FC0
FFFFFFC0
FFFFFFC0
FFFFFFC0
FFFFFF80
3FFFFF00
01FFC000
00FF8000
00FF8000
00FF8000
00FF8000
00FF8000
00FF8000
00FF8000
00FF8000
00FF8000
00FF8000
00FF8000
00FF8000
00FF8000
00FF8000
007F8000
007F0000
003E0000
ENDCHAR
STARTCHAR 0177
ENCODING 375
SWIDTH 446 0
DWIDTH 25 0
BBX 21 47 2 -10
BITMAP
03FE00
07FF00
0FFF80
1F8FC0
3F8FE0
3F8FF0
3F8FE0
000000
000000
000000
000000
7E0070
FF0078
FF0078
FF0078
FF0078
FF0078
FF0078
FF0078
FF0078
FF0078
FF0078
FF0078
FF0078
FF0078
FF0078
FE0078
F80078
F00078
F00078
F00078
F00078
F800F8
FFFFF8
FFFFF8
7FFFF8
7FFFF8
0000F8
000078
000078
000078
000078
0001F8
7FFFF8
FFFFF8
FFFFF0
3FFFE0
ENDCHAR
STARTCHAR 0178
ENCODING 376
SWIDTH 517 0
DWIDTH 29 0
BBX 26 47 2 0
BITMAP
1FC1FC00
1FC1FE00
1FC1FE00
1FC1FE00
1FC1FC00
1FC1FC00
00000000
00000000
00000000
40000100
F00003C0
F00007C0
F00007C0
F00007C0
F00007C0
F00007C0
F00007C0
F00007C0
F00007C0
F00007C0
F00007C0
F00007C0
F00007C0
F8000FC0
FFFFFFC0
FFFFFFC0
FFFFFFC0
FFFFFF80
3FFFFF00
01FFC000
00FF8000
00FF8000
00FF8000
00FF8000
00FF8000
00FF8000
00FF8000
00FF8000
00FF8000
00FF8000
00FF8000
00FF8000
00FF8000
00FF8000
007F8000
007F0000
003E0000
ENDCHAR
STARTCHAR 0179
ENCODING 377
SWIDTH 589 0
DWIDTH 33 0
BBX 28 48 2 0
BITMAP
0007E000
000FF000
000FF000
000FE000
000FC000
000F8000
000F0000
00060000
00000000
00000000
00000000
3FFFFFE0
7FFFFFF0
7FFFFFF0
FFFFFFF0
FE0007F0
FC0001F0
F80001F0
F80001F0
780000F0
780000F0
700001F0
000001F0
000003F0
00003FF0
007FFFF0
3FFFFFF0
7FFFFFE0
7FFFFF80
FFFF8000
FFC00000
FFC00000
FF800000
FF800000
FF800060
FF8000F0
FF8000F0
FF8000F0
FF8000F0
FF8000F0
FF8001F0
FF8001F0
FFC001F0
FFFFFFF0
FFFFFFF0
7FFFFFF0
7FFFFFF0
3FFFFFE0
ENDCHAR
STARTCHAR 017A
ENCODING 378
SWIDTH 446 0
DWIDTH 25 0
BBX 21 37 2 0
BITMAP
007F00
00FF00
00FE00
00FE00
00F800
00F000
00E000
000000
000000
000000
000000
7FFFF0
FFFFF8
FFFFF8
FFFFF8
F800F8
F00078
F00078
700078
000078
0000F8
007FF8
3FFFF8
7FFFF0
FFFFE0
FFE000
FF0000
FF0020
FF0078
FF0078
FF0078
FF0078
FF80F8
FFFFF8
FFFFF8
7FFFF8
7FFFF0
ENDCHAR
STARTCHAR 017B
ENCODING 379
SWIDTH 589 0
DWIDTH 33 0
BBX 28 47 2 0
BITMAP
000FC000
001FE000
001FE000
001FE000
001FC000
001FC000
00000000
00000000
00000000
00000000
3FFFFFE0
7FFFFFF0
7FFFFFF0
FFFFFFF0
FE0007F0
FC0001F0
F80001F0
F80001F0
780000F0
780000F0
700001F0
000001F0
000003F0
00003FF0
007FFFF0
3FFFFFF0
7FFFFFE0
7FFFFF80
FFFF8000
FFC00000
FFC00000
FF800000
FF800000
FF800060
FF8000F0
FF8000F0
FF8000F0
FF8000F0
FF8000F0
FF8001F0
FF8001F0
FFC001F0
FFFFFFF0
FFFFFFF0
7FFFFFF0
7FFFFFF0
3FFFFFE0
ENDCHAR
STARTCHAR 017C
ENCODING 380
SWIDTH 446 0
DWIDTH 25 0
BBX 21 37 2 0
BITMAP
00FC00
01FE00
01FE00
01FE00
01FE00
00FC00
000000
000000
000000
000000
000000
7FFFF0
FFFFF8
FFFFF8
FFFFF8
F800F8
F00078
F00078
700078
000078
0000F8
007FF8
3FFFF8
7FFFF0
FFFFE0
FFE000
FF0000
FF0020
FF0078
FF0078
FF0078
FF0078
FF80F8
FFFFF8
FFFFF8
7FFFF8
7FFFF0
ENDCHAR
STARTCHAR 017D
ENCODING 381
SWIDTH 589 0
DWIDTH 33 0
BBX 28 48 2 0
BITMAP
03F07E00
03F8FF00
03F8FE00
01F8FE00
00FDFC00
007FF800
003FF000
001FE000
00000000
00000000
00000000
3FFFFFE0
7FFFFFF0
7FFFFFF0
FFFFFFF0
FE0007F0
FC0001F0
F80001F0
F80001F0
780000F0
780000F0
700001F0
000001F0
000003F0
00003FF0
007FFFF0
3FFFFFF0
7FFFFFE0
7FFFFF80
FFFF8000
FFC00000
FFC00000
FF800000
FF800000
FF800060
FF8000F0
FF8000F0
FF8000F0
FF8000F0
FF8000F0
FF8001F0
FF8001F0
FFC001F0
FFFFFFF0
FFFFFFF0
7FFFFFF0
7FFFFFF0
3FFFFFE0
ENDCHAR
STARTCHAR 017E
ENCODING 382
SWIDTH 446 0
DWIDTH 25 0
BBX 21 37 2 0
BITMAP
3F87E0
3F8FF0
3F8FE0
1F8FC0
0FFF80
07FF00
03FE00
000000
000000
000000
000000
7FFFF0
FFFFF8
FFFFF8
FFFFF8
F800F8
F00078
F00078
700078
000078
0000F8
007FF8
3FFFF8
7FFFF0
FFFFE0
FFE000
FF0000
FF0020
FF0078
FF0078
FF0078
FF0078
FF80F8
FFFFF8
FFFFF8
7FFFF8
7FFFF0
ENDCHAR
STARTCHAR 0192
ENCODING 402
SWIDTH 357 0
DWIDTH 20 0
BBX 16 47 2 -10
BITMAP
07FF
07FF
07FF
07FE
0780
0780
0780
0780
0780
0780
0FC0
7FF8
FFF8
7FF8
7FF0
0F80
0780
0780
0780
0780
07C0
07F0
07F0
07F0
07F0
07F0
07F0
07F0
07F0
07F0
07F0
07F0
07F0
07F0
07F0
07F0
03F0
00F0
00F0
00F0
00F0
00F0
03F0
7FF0
FFF0
7FF0
3FC0
ENDCHAR
STARTCHAR 0218
ENCODING 536
SWIDTH 589 0
DWIDTH 33 0
BBX 29 51 2 -14
BITMAP
3FFFFFF0
7FFFFFF8
FFFFFFF8
FFFFFFF8
FE0003F8
F80000F8
F80000F8
F80000F8
F80000F8
F8000078
F8000070
F8000000
F8000000
FC000000
FFFFFFE0
FFFFFFF0
FFFFFFF8
7FFFFFF8
3FFFFFF8
00001FF8
00000FF8
00000FF8
00000FF8
70000FF8
78000FF8
F8000FF8
F8000FF8
F8000FF8
F8000FF8
F8000FF8
F8000FF8
FC000FF8
FFFFFFF8
FFFFFFF8
7FFFFFF8
7FFFFFF8
3FFFFFE0
00000000
00000000
00000000
000FC000
001FE000
001FE000
001FE000
001FE000
000FE000
0000E000
0000E000
0000E000
0000E000
00004000
ENDCHAR
STARTCHAR 0219
ENCODING 537
SWIDTH 446 0
DWIDTH 25 0
BBX 21 40 2 -14
BITMAP
7FFFF0
FFFFF8
FFFFF8
FFFFF8
F800F8
F00078
F00078
F00070
F00000
F80000
FFFFF0
FFFFF8
FFFFF8
7FFFF8
000FF8
0007F8
0007F8
7007F8
F007F8
F007F8
F007F8
F80FF8
FFFFF8
FFFFF8
7FFFF0
7FFFF0
000000
000000
000000
00FC00
01FE00
01FE00
01FE00
01FE00
00FE00
001E00
000E00
000E00
000E00
000400
ENDCHAR
STARTCHAR 021A
ENCODING 538
SWIDTH 535 0
DWIDTH 30 0
BBX 28 51 1 -14
BITMAP
7FFFFFF0
FFFFFFF0
FFFFFFF0
7FFFFFE0
007FC000
001F0000
001F0000
001F0000
001F0000
001F0000
001F0000
001F0000
001F0000
001F8000
001FE000
001FF000
001FF000
001FF000
001FF000
001FF000
001FF000
001FF000
001FF000
001FF000
001FF000
001FF000
001FF000
001FF000
001FF000
001FF000
001FF000
001FF000
001FF000
001FF000
001FF000
000FE000
0007C000
00000000
00000000
00000000
000FE000
000FE000
000FF000
000FF000
000FF000
0007F000
0000F000
00007000
00007000
00006000
00006000
ENDCHAR
STARTCHAR 021B
ENCODING 539
SWIDTH 250 0
DWIDTH 14 0
BBX 12 50 0 -14
BITMAP
0700
0F00
0F00
0F00
0F00
0F00
0F00
0F00
0F00
1F80
FFF0
FFF0
FFF0
7FE0
0F00
0F00
0F00
0F00
0F00
0FC0
0FF0
0FF0
0FF0
0FF0
0FF0
0FF0
0FF0
0FF0
0FF0
0FF0
0FF0
0FF0
0FF0
0FF0
0FF0
07E0
0000
0000
0000
07E0
0FF0
0FF0
0FF0
0FF0
07F0
0070
0070
0070
0070
0020
ENDCHAR
STARTCHAR 0237
ENCODING 567
SWIDTH 214 0
DWIDTH 12 0
BBX 12 36 -2 -10
BITMAP
0700
0F00
0F00
0F00
0F00
0F00
0F00
0F00
0F80
0FC0
0FF0
0FF0
0FF0
0FF0
0FF0
0FF0
0FF0
0FF0
0FF0
0FF0
0FF0
0FF0
0FF0
0FF0
07F0
07F0
01F0
00F0
00F0
00F0
00F0
03F0
FFF0
FFF0
FFF0
7FC0
ENDCHAR
STARTCHAR 02C6
ENCODING 710
SWIDTH 464 0
DWIDTH 26 0
BBX 18 7 4 30
BITMAP
0FF800
1FFC00
3FFE00
7F3F00
FE3F80
FE3FC0
FE1FC0
ENDCHAR
STARTCHAR 02C7
ENCODING 711
SWIDTH 464 0
DWIDTH 26 0
BBX 18 7 4 30
BITMAP
FE1FC0
FE3FC0
FE3F80
7F3F00
3FFF00
1FFE00
0FFC00
ENDCHAR
STARTCHAR 02C9
ENCODING 713
SWIDTH 500 0
DWIDTH 28 0
BBX 19 8 5 29
BITMAP
7FFFC0
FFFFE0
FFFFE0
FFFFC0
FFC000
FFC000
FF8000
7F8000
ENDCHAR
STARTCHAR 02D8
ENCODING 728
SWIDTH 500 0
DWIDTH 28 0
BBX 18 7 5 29
BITMAP
7E0380
FE03C0
FF03C0
FF07C0
FFFFC0
FFFF80
7FFF80
ENDCHAR
STARTCHAR 02D9
ENCODING 729
SWIDTH 267 0
DWIDTH 15 0
BBX 8 6 4 31
BITMAP
FE
FE
FF
FF
FE
FE
ENDCHAR
STARTCHAR 02DA
ENCODING 730
SWIDTH 285 0
DWIDTH 16 0
BBX 9 8 4 30
BITMAP
FF00
FF00
F700
E380
E380
FF00
FF00
7F00
ENDCHAR
STARTCHAR 02DB
ENCODING 731
SWIDTH 500 0
DWIDTH 28 0
BBX 8 11 10 -11
BITMAP
FE
FC
F0
E0
E0
E0
E0
E0
FE
FF
7E
ENDCHAR
STARTCHAR 02DC
ENCODING 732
SWIDTH 482 0
DWIDTH 27 0
BBX 19 8 4 29
BITMAP
3FE0E0
FFF0E0
FFF8E0
F7F9E0
E3FFE0
E3FFE0
E1FFC0
C00000
ENDCHAR
STARTCHAR 02DD
ENCODING 733
SWIDTH 500 0
DWIDTH 28 0
BBX 20 7 4 30
BITMAP
0E0060
1E00F0
3E01F0
7E03F0
FE07F0
FE0FF0
FE0FE0
ENDCHAR
STARTCHAR 0394
ENCODING 916
SWIDTH 625 0
DWIDTH 35 0
BBX 33 36 1 0
BITMAP
0007E00000
000FE00000
000FF00000
000FF00000
001FF80000
001FF80000
001FF80000
003FFC0000
003E7C0000
007E7E0000
007C7E0000
007C3E0000
00FC3F0000
00F83F0000
00F81F8000
01F81F8000
01F00F8000
03F00FC000
03F00FC000
03E007E000
07E007E000
07C003E000
0FC003F000
0FC003F000
0F8001F800
1F8001F800
1F8000F800
1F0000FC00
3F0000FC00
3F00007E00
7E00007E00
7FFFFFFE00
7FFFFFFF00
FFFFFFFF00
FFFFFFFF80
FFFFFFFF80
ENDCHAR
STARTCHAR 03A9
ENCODING 937
SWIDTH 678 0
DWIDTH 38 0
BBX 33 36 2 0
BITMAP
001FFC0000
007FFF8000
01FFFFE000
03FFFFF000
07FFFFF800
0FFC0FFC00
1FE003FE00
3FC000FE00
3F80007F00
7F00007F00
7F00003F80
7E00003F80
7E00001F80
FE00001F80
FC00001F80
FC00001F80
FC00001F80
FC00001F80
FE00001F80
7E00001F80
7E00001F80
7F00003F00
3F00007F00
3F80007E00
1FC000FE00
0FF003FC00
07FC1FF800
03FC1FE000
00FC1FC000
007C1F0000
007C1F0000
FFFC1FFF80
FFFC1FFF80
FFFC1FFF80
FFFC1FFF80
FFFC1FFF80
ENDCHAR
STARTCHAR 03BC
ENCODING 956
SWIDTH 535 0
DWIDTH 30 0
BBX 21 35 4 -11
BITMAP
F800F8
F800F8
F800F8
F800F8
F800F8
F800F8
F800F8
F800F8
F800F8
F800F8
F800F8
F800F8
F800F8
F800F8
F800F8
F800F8
FC01F8
FC01F8
FE03F8
FF07F8
FFFFF8
FFFF78
FFFE78
F9FC78
F80000
F80000
F80000
F80000
F80000
F80000
F80000
F80000
F80000
F80000
F80000
ENDCHAR
STARTCHAR 03C0
ENCODING 960
SWIDTH 535 0
DWIDTH 30 0
BBX 29 24 0 0
BITMAP
FFFFFFF8
FFFFFFF8
FFFFFFF8
FFFFFFF8
FFFFFFF8
0F801F80
0F801F80
0F801F80
0F801F80
0F801F80
0F801F80
0F801F80
0F801F80
0F801F80
0F801F80
0F801F80
0F801F80
0F801F80
0F801F80
0F801F88
0F801FF8
0F800FF8
0F800FF8
0F8007F0
ENDCHAR
STARTCHAR 2013
ENCODING 8211
SWIDTH 607 0
DWIDTH 34 0
BBX 40 5 -3 10
BITMAP
FFFFFFFFFF
FFFFFFFFFF
FFFFFFFFFF
FFFFFFFFFF
3FFFFFFFFE
ENDCHAR
STARTCHAR 2014
ENCODING 8212
SWIDTH 1000 0
DWIDTH 56 0
BBX 38 5 9 10
BITMAP
7FFFFFFFF8
FFFFFFFFFC
FFFFFFFFFC
7FFFFFFFF8
3FFFFFFFE0
ENDCHAR
STARTCHAR 2018
ENCODING 8216
SWIDTH 250 0
DWIDTH 14 0
BBX 8 11 3 27
BITMAP
40
E0
E0
E0
E0
FE
FF
FF
FF
FF
7E
ENDCHAR
STARTCHAR 2019
ENCODING 8217
SWIDTH 250 0
DWIDTH 14 0
BBX 8 11 3 27
BITMAP
18
7F
FF
FF
FF
7F
3F
07
07
07
07
ENDCHAR
STARTCHAR 201A
ENCODING 8218
SWIDTH 250 0
DWIDTH 14 0
BBX 8 11 3 -5
BITMAP
7E
FF
FF
FF
FF
7F
07
07
07
07
02
ENDCHAR
STARTCHAR 201C
ENCODING 8220
SWIDTH 428 0
DWIDTH 24 0
BBX 18 11 3 27
BITMAP
401000
E03800
E03800
E03800
E03800
FE3F00
FF3F80
FF3FC0
FF3FC0
FF3FC0
7E3F80
ENDCHAR
STARTCHAR 201D
ENCODING 8221
SWIDTH 428 0
DWIDTH 24 0
BBX 18 11 3 27
BITMAP
180600
7F3F80
FF3FC0
FF3FC0
FF3FC0
7F3FC0
3F0FC0
0703C0
0701C0
0701C0
070180
ENDCHAR
STARTCHAR 201E
ENCODING 8222
SWIDTH 428 0
DWIDTH 24 0
BBX 18 11 3 -5
BITMAP
7E1F80
FF3FC0
FF3FC0
FF3FC0
FF3FC0
7F1FC0
0703C0
0701C0
0701C0
0701C0
020180
ENDCHAR
STARTCHAR 2020
ENCODING 8224
SWIDTH 428 0
DWIDTH 24 0
BBX 19 48 2 -10
BITMAP
001000
007800
007C00
007C00
007C00
007C00
007C00
007C00
007C00
007C00
007C00
007C00
007C00
007C00
00FC00
3FFFC0
7FFFE0
FFFFE0
FFFFE0
FFFC00
FFFC00
7FFC00
7FFC00
07FC00
07FC00
07FC00
07FC00
07FC00
07FC00
07FC00
07FC00
07FC00
07FC00
07FC00
07FC00
07FC00
07FC00
07FC00
07FC00
07FC00
07FC00
07FC00
07FC00
07FC00
07FC00
07FC00
03F800
01F000
ENDCHAR
STARTCHAR 2021
ENCODING 8225
SWIDTH 428 0
DWIDTH 24 0
BBX 20 48 2 -10
BITMAP
001000
003C00
007C00
007C00
007C00
007C00
007C00
007C00
007C00
007C00
007C00
007C00
007C00
007C00
00FC00
3FFFC0
7FFFE0
FFFFF0
FFFFE0
FFFC00
FFFC00
7FFC00
7FFC00
07FC00
07FC00
07FC00
7FFFE0
FFFFE0
FFFFE0
FFFFC0
FFFC00
FFFC00
7FFC00
0FFC00
07FC00
07FC00
07FC00
07FC00
07FC00
07FC00
07FC00
07FC00
07FC00
07FC00
07FC00
07FC00
03F800
01F000
ENDCHAR
STARTCHAR 2022
ENCODING 8226
SWIDTH 392 0
DWIDTH 22 0
BBX 16 17 3 10
BITMAP
07C0
1FF8
3FFC
7FFE
7FFE
FFFF
FFFF
FFFF
FFFF
FFFF
FFFF
FFFF
7FFE
7FFC
3FF8
0FF0
03C0
ENDCHAR
STARTCHAR 2026
ENCODING 8230
SWIDTH 1000 0
DWIDTH 56 0
BBX 46 7 5 0
BITMAP
7E000FC001F0
FF001FE003FC
FF801FE007FC
FF801FE007FC
FF801FE007FC
FF001FE007FC
7F000FC003F8
ENDCHAR
STARTCHAR 2030
ENCODING 8240
SWIDTH 1035 0
DWIDTH 58 0
BBX 53 39 3 -1
BITMAP
0000003C000000
FFFC003C000000
FFFC007C000000
FFFC00FC000000
E03C00F8000000
E01C01F8000000
E01C01F0000000
E01C03E0000000
E07C07E0000000
E0FC07C0000000
E0FC0FC0000000
E0FC0F80000000
E0FC1F80000000
E0FC1F00000000
E0FC3E00000000
E0FC7E00000000
FFFC7C00000000
FFFCFC00000000
FFF8F800000000
0001F000000000
0003F3FFF1FFF0
0003E3FFF3FFF0
0007E3FFF3FFF8
0007C38073C078
000FC380738078
000F8380738078
001F0380738078
003F0381F380F8
003E0383F381F8
007E0383F381F8
007C0383F381F8
00FC0383F381F8
01F80383F381F8
01F00383F381F8
03F00383F3C3F8
03E003FFF3FFF0
07E003FFF3FFF0
07C003FFE1FFF0
03800000000000
ENDCHAR
STARTCHAR 2039
ENCODING 8249
SWIDTH 232 0
DWIDTH 13 0
BBX 7 20 3 3
BITMAP
04
0E
1E
3E
7E
FE
FE
FC
E0
E0
E0
E0
F0
FE
FE
FE
7E
3E
1E
0E
ENDCHAR
STARTCHAR 203A
ENCODING 8250
SWIDTH 232 0
DWIDTH 13 0
BBX 7 20 3 3
BITMAP
C0
E0
F0
F8
FC
FE
FE
7E
0E
0E
0E
0E
1E
FE
FE
FE
FC
F8
F0
E0
ENDCHAR
STARTCHAR 2044
ENCODING 8260
SWIDTH 500 0
DWIDTH 28 0
BBX 25 39 1 -1
BITMAP
00000780
00000F80
00000F80
00001F80
00001F00
00003F00
00007E00
00007C00
0000FC00
0000F800
0001F800
0001F000
0003E000
0007E000
0007C000
000FC000
000F8000
001F8000
001F0000
003E0000
007E0000
007C0000
00FC0000
00F80000
01F00000
03F00000
03E00000
07E00000
07C00000
0FC00000
0F800000
1F000000
3F000000
3E000000
7E000000
7C000000
F8000000
F8000000
70000000
ENDCHAR
STARTCHAR 20AC
ENCODING 8364
SWIDTH 607 0
DWIDTH 34 0
BBX 34 37 -2 0
BITMAP
03FFFFFF00
07FFFFFF80
07FFFFFF80
07FFFFFF80
07E0001FC0
07C0000FC0
07C00007C0
07800007C0
07800007C0
0780000780
0780000780
07C0000000
0FC0000000
0FC0000000
7FFFFFF000
FFFFFFF800
FFFFFFF800
FFFFFFF800
7FFFFFF000
0FFC000000
0FFC000000
07FC000000
07FC000000
07FC000300
07FC000780
07FC000780
07FC0007C0
07FC0007C0
07FC0007C0
07FC0007C0
07FC0007C0
07FC000FC0
07FFFFFFC0
07FFFFFF80
07FFFFFF80
07FFFFFF80
03FFFFFF00
ENDCHAR
STARTCHAR 2113
ENCODING 8467
SWIDTH 535 0
DWIDTH 30 0
BBX 22 38 3 -1
BITMAP
003FC0
007FE0
00FFF0
01FFF8
03F0F8
03F0F8
03E0F8
07E078
07E078
07E0F8
07E0F8
07E0F8
07E0F8
07E1F0
07E1F0
07E3E0
07E3C0
07E7C0
07EF80
07FF00
07FF00
07FE00
07FC00
07F800
07F000
1FE000
3FE000
7FE000
FFE000
7FE000
77E000
07F000
03F038
03FFFC
03FFFC
01FFF8
00FFE0
001F00
ENDCHAR
STARTCHAR 2122
ENCODING 8482
SWIDTH 660 0
DWIDTH 37 0
BBX 35 19 1 19
BITMAP
7FF07FFF80
FFF9FFFFC0
FFF9FFFFE0
0701C0E0E0
070180E0E0
070180E0E0
070180E0E0
0701C0E0E0
0781E0E0E0
07C1E0E0E0
07C1E0E0E0
07C1E0E0E0
07C1E0E0E0
07C1E0E0E0
07C1E0E0E0
07C1E0E0E0
07C1E0E0E0
0781E0E0E0
0781E0C0E0
ENDCHAR
STARTCHAR 2126
ENCODING 8486
SWIDTH 678 0
DWIDTH 38 0
BBX 33 36 2 0
BITMAP
001FFC0000
007FFF8000
01FFFFE000
03FFFFF000
07FFFFF800
0FFC0FFC00
1FE003FE00
3FC000FE00
3F80007F00
7F00007F00
7F00003F80
7E00003F80
7E00001F80
FE00001F80
FC00001F80
FC00001F80
FC00001F80
FC00001F80
FE00001F80
7E00001F80
7E00001F80
7F00003F00
3F00007F00
3F80007E00
1FC000FE00
0FF003FC00
07FC1FF800
03FC1FE000
00FC1FC000
007C1F0000
007C1F0000
FFFC1FFF80
FFFC1FFF80
FFFC1FFF80
FFFC1FFF80
FFFC1FFF80
ENDCHAR
STARTCHAR 212E
ENCODING 8494
SWIDTH 732 0
DWIDTH 41 0
BBX 36 38 2 -1
BITMAP
0007FF0000
003FFFE000
007E03F000
01F000FC00
03C0003E00
0780000F00
0F00000F80
0F00000F80
1F00000FC0
3F00000FC0
3F00000FE0
3F00000FE0
7F00000FE0
7F00000FF0
7F00000FF0
7F00000FF0
7FFFFFFFF0
FFFFFFFFF0
FFFFFFFFF0
FF00000000
7F00000000
7F00000000
7F00000000
7F00000000
7F00000000
7F00000000
3F00000000
3F00000100
1F000001C0
1F000003C0
0F00000780
0700000F00
07C0001E00
03E0003C00
00F800F800
007FFFF000
001FFFC000
0003FE0000
ENDCHAR
STARTCHAR 2202
ENCODING 8706
SWIDTH 500 0
DWIDTH 28 0
BBX 24 37 2 -1
BITMAP
03FE00
0FFF80
3FFFC0
3FFFE0
1F07F0
1C01F8
0000FC
0000FC
00007C
00007E
00003E
00003E
00003E
00003F
01FC3F
07FF3F
0FFFFF
1FFFFF
3FC3FF
7F00FF
7E007F
7C003F
FC003F
FC003F
FC003E
FC003E
FC003E
FC007E
FC007C
7C00FC
7E01F8
3F03F8
3FFFF0
1FFFE0
0FFFC0
03FF80
007800
ENDCHAR
STARTCHAR 2206
ENCODING 8710
SWIDTH 625 0
DWIDTH 35 0
BBX 33 36 1 0
BITMAP
0007E00000
000FE00000
000FF00000
000FF00000
001FF80000
001FF80000
001FF80000
003FFC0000
003E7C0000
007E7E0000
007C7E0000
007C3E0000
00FC3F0000
00F83F0000
00F81F8000
01F81F8000
01F00F8000
03F00FC000
03F00FC000
03E007E000
07E007E000
07C003E000
0FC003F000
0FC003F000
0F8001F800
1F8001F800
1F8000F800
1F0000FC00
3F0000FC00
3F00007E00
7E00007E00
7FFFFFFE00
7FFFFFFF00
FFFFFFFF00
FFFFFFFF80
FFFFFFFF80
ENDCHAR
STARTCHAR 220F
ENCODING 8719
SWIDTH 660 0
DWIDTH 37 0
BBX 31 51 3 -11
BITMAP
FFFFFFFE
FFFFFFFE
FFFFFFFE
FFFFFFFE
FFFFFFFE
FFFFFFFE
FC00007E
FC00007E
FC00007E
FC00007E
FC00007E
FC00007E
FC00007E
FC00007E
FC00007E
FC00007E
FC00007E
FC00007E
FC00007E
FC00007E
FC00007E
FC00007E
FC00007E
FC00007E
FC00007E
FC00007E
FC00007E
FC00007E
FC00007E
FC00007E
FC00007E
FC00007E
FC00007E
FC00007E
FC00007E
FC00007E
FC00007E
FC00007E
FC00007E
FC00007E
FC00007E
FC00007E
FC00007E
FC00007E
FC00007E
FC00007E
FC00007E
FC00007E
FC00007E
FC00007E
FC00007E
ENDCHAR
STARTCHAR 2211
ENCODING 8721
SWIDTH 589 0
DWIDTH 33 0
BBX 30 51 1 -11
BITMAP
7FFFFFFC
7FFFFFFC
7FFFFFFC
7FFFFFFC
7FFFFFFC
7FFFFFFC
3F800000
1FC00000
1FE00000
0FE00000
07F00000
03F80000
03F80000
01FC0000
00FE0000
007F0000
007F0000
003F8000
001FC000
001FC000
000FE000
0007F000
0003F000
0003F800
0001FC00
0001FC00
0001F800
0003F800
0007F000
000FE000
000FE000
001FC000
003F8000
003F0000
007F0000
00FE0000
01FC0000
01FC0000
03F80000
07F00000
0FE00000
0FE00000
1FC00000
3F800000
3F000000
7F000000
FFFFFFFC
FFFFFFFC
FFFFFFFC
FFFFFFFC
FFFFFFFC
ENDCHAR
STARTCHAR 2212
ENCODING 8722
SWIDTH 535 0
DWIDTH 30 0
BBX 26 6 2 10
BITMAP
FFFFFFC0
FFFFFFC0
FFFFFFC0
FFFFFFC0
FFFFFFC0
FFFFFFC0
ENDCHAR
STARTCHAR 2215
ENCODING 8725
SWIDTH 500 0
DWIDTH 28 0
BBX 25 39 1 -1
BITMAP
00000780
00000F80
00000F80
00001F80
00001F00
00003F00
00007E00
00007C00
0000FC00
0000F800
0001F800
0001F000
0003E000
0007E000
0007C000
000FC000
000F8000
001F8000
001F0000
003E0000
007E0000
007C0000
00FC0000
00F80000
01F00000
03F00000
03E00000
07E00000
07C00000
0FC00000
0F800000
1F000000
3F000000
3E000000
7E000000
7C000000
F8000000
F8000000
70000000
ENDCHAR
STARTCHAR 2219
ENCODING 8729
SWIDTH 250 0
DWIDTH 14 0
BBX 8 7 3 15
BITMAP
7E
FF
FF
FF
FF
FF
7E
ENDCHAR
STARTCHAR 221A
ENCODING 8730
SWIDTH 482 0
DWIDTH 27 0
BBX 29 51 -1 -11
BITMAP
000001F8
000001F0
000003F0
000003F0
000003F0
000003F0
000003E0
000007E0
000007E0
000007E0
000007E0
000007C0
00000FC0
00000FC0
00000FC0
00000F80
00000F80
00001F80
00001F80
00001F80
00001F00
00003F00
00003F00
00003F00
00003F00
00003E00
00007E00
00007E00
01007E00
07007E00
1F807C00
FF80FC00
7FC0FC00
7FC0FC00
3FE0F800
37E0F800
03F1F800
03F1F800
01F9F800
01F9F000
00FDF000
00FFF000
007FF000
007FF000
003FE000
003FE000
001FE000
001FE000
000FE000
000FC000
0007C000
ENDCHAR
STARTCHAR 221E
ENCODING 8734
SWIDTH 732 0
DWIDTH 41 0
BBX 37 18 2 4
BITMAP
07F0007F00
1FFC01FFC0
3FFE03FFE0
3FFF07FFE0
7FFF8FFFF0
7C1FDF81F0
F807FF00F8
F803FE00F8
F801FC00F8
F801FC00F8
F803FE00F8
7C07FF00F0
7E1FDFC1F0
7FFF8FFFF0
3FFF07FFE0
1FFE03FFC0
0FFC01FF80
03E0003E00
ENDCHAR
STARTCHAR 222B
ENCODING 8747
SWIDTH 553 0
DWIDTH 31 0
BBX 19 51 5 -11
BITMAP
000E00
003FC0
007FE0
00F3E0
01F3E0
01F1E0
01F1C0
01F000
01F000
01F000
01F000
01F000
01F000
01F000
01F000
01F000
01F000
01F000
01F000
01F000
01F000
01F000
01F000
01F000
01F000
01F000
01F000
01F000
01F000
01F000
01F000
01F000
01F000
01F000
01F000
01F000
01F000
01F000
01F000
01F000
01F000
01F000
01F000
01F000
61F000
F1F000
F9F000
F9E000
FFC000
7F8000
1F0000
ENDCHAR
STARTCHAR 2248
ENCODING 8776
SWIDTH 535 0
DWIDTH 30 0
BBX 27 19 1 4
BITMAP
03C000E0
0FF800E0
1FFF01E0
3FFFF7E0
3FFFFFE0
7EFFFFC0
781FFF80
7803FF00
F0007E00
00000000
00000000
0FF000E0
1FFE01E0
3FFFC3E0
3FFFFFE0
7FFFFFC0
783FFFC0
780FFF80
F001FF00
ENDCHAR
STARTCHAR 2260
ENCODING 8800
SWIDTH 535 0
DWIDTH 30 0
BBX 26 32 2 -3
BITMAP
00002000
00007C00
00007E00
0000FC00
0000FC00
0001F800
0001F800
FFFFFFC0
FFFFFFC0
FFFFFFC0
FFFFFFC0
FFFFFFC0
FFFFFFC0
001F8000
001F8000
003F0000
003F0000
007E0000
007E0000
FFFFFFC0
FFFFFFC0
FFFFFFC0
FFFFFFC0
FFFFFFC0
03F00000
07E00000
07E00000
0FC00000
0FC00000
1F800000
07800000
01000000
ENDCHAR
STARTCHAR 2264
ENCODING 8804
SWIDTH 535 0
DWIDTH 30 0
BBX 26 30 2 -2
BITMAP
000000C0
000007C0
00003FC0
0001FFC0
000FFFC0
007FFFC0
03FFFE00
1FFFF000
FFFF8000
FFFC0000
FFC00000
FE000000
FFE00000
FFFC0000
7FFF8000
0FFFF800
01FFFF00
003FFFC0
0007FFC0
0000FFC0
00001FC0
000003C0
00000040
00000000
FFFFFFC0
FFFFFFC0
FFFFFFC0
FFFFFFC0
FFFFFFC0
FFFFFFC0
ENDCHAR
STARTCHAR 2265
ENCODING 8805
SWIDTH 535 0
DWIDTH 30 0
BBX 26 30 2 -2
BITMAP
C0000000
F8000000
FF000000
FFE00000
FFFC0000
FFFF8000
1FFFF000
03FFFC00
007FFF80
000FFFC0
0001FFC0
00001FC0
0001FFC0
000FFFC0
007FFF80
07FFFC00
3FFFE000
FFFF0000
FFF80000
FFC00000
FE000000
F0000000
00000000
00000000
FFFFFFC0
FFFFFFC0
FFFFFFC0
FFFFFFC0
FFFFFFC0
FFFFFFC0
ENDCHAR
STARTCHAR 25CA
ENCODING 9674
SWIDTH 535 0
DWIDTH 30 0
BBX 22 40 4 -2
BITMAP
00F800
00FC00
01FC00
01FE00
03FE00
03FF00
03FF00
07CF80
07CF80
0F8FC0
0F87C0
1F87E0
1F03E0
3F03E0
3E01F0
3E01F0
7C01F8
7C00F8
FC00FC
F8007C
F8007C
FC00FC
7C00F8
7C01F8
7E01F0
3E01F0
3F03F0
1F03E0
1F07E0
0F87C0
0F87C0
07CF80
07CF80
03DF00
03FF00
03FE00
01FE00
01FC00
00FC00
00FC00
ENDCHAR
STARTCHAR E300
ENCODING 58112
SWIDTH 267 0
DWIDTH 15 0
BBX 7 8 4 40
BITMAP
FC
FE
FE
7E
3E
1E
0E
06
ENDCHAR
STARTCHAR E301
ENCODING 58113
SWIDTH 267 0
DWIDTH 15 0
BBX 7 8 4 40
BITMAP
7E
FE
FE
FE
F8
F0
E0
C0
ENDCHAR
STARTCHAR E302
ENCODING 58114
SWIDTH 464 0
DWIDTH 26 0
BBX 18 8 4 40
BITMAP
07F800
0FFC00
1FFE00
3F3F00
7E3F80
FE3FC0
FE1FC0
FC1F80
ENDCHAR
STARTCHAR E303
ENCODING 58115
SWIDTH 464 0
DWIDTH 26 0
BBX 18 8 4 40
BITMAP
7C0F80
FE1FC0
FE3FC0
7E3F80
3F3F00
1FFE00
0FFC00
07F800
ENDCHAR
STARTCHAR E304
ENCODING 58116
SWIDTH 482 0
DWIDTH 27 0
BBX 19 8 4 40
BITMAP
3FE0E0
FFF0E0
FFF8E0
FFF8E0
E3FFE0
E3FFE0
E1FFE0
E07F00
ENDCHAR
STARTCHAR E305
ENCODING 58117
SWIDTH 500 0
DWIDTH 28 0
BBX 20 6 4 41
BITMAP
FE07E0
FE0FF0
FF0FF0
FF0FF0
FE0FF0
FE07E0
ENDCHAR
STARTCHAR E306
ENCODING 58118
SWIDTH 500 0
DWIDTH 28 0
BBX 19 8 5 40
BITMAP
7FFFC0
FFFFE0
FFFFE0
FFFFE0
FFE000
FFC000
FF8000
7F8000
ENDCHAR
STARTCHAR E307
ENCODING 58119
SWIDTH 500 0
DWIDTH 28 0
BBX 18 7 5 41
BITMAP
7C0380
FE0380
FF03C0
FF07C0
FFFFC0
FFFFC0
FFFF80
ENDCHAR
STARTCHAR E308
ENCODING 58120
SWIDTH 285 0
DWIDTH 16 0
BBX 9 8 4 40
BITMAP
FF00
FF00
F700
E380
E380
FF00
FF00
7F00
ENDCHAR
STARTCHAR E309
ENCODING 58121
SWIDTH 500 0
DWIDTH 28 0
BBX 20 7 4 41
BITMAP
0E0060
1E00F0
3E01F0
7E03F0
FE07F0
FE0FF0
FE0FE0
ENDCHAR
STARTCHAR E30A
ENCODING 58122
SWIDTH 267 0
DWIDTH 15 0
BBX 8 6 4 41
BITMAP
FE
FE
FF
FF
FE
FE
ENDCHAR
STARTCHAR E30B
ENCODING 58123
SWIDTH 250 0
DWIDTH 14 0
BBX 8 11 3 27
BITMAP
18
7F
FF
FF
FF
7F
3F
07
07
07
07
ENDCHAR
STARTCHAR E30C
ENCODING 58124
SWIDTH 250 0
DWIDTH 14 0
BBX 8 11 3 -14
BITMAP
7E
FF
FF
FF
FF
7F
07
07
07
07
02
ENDCHAR
STARTCHAR E30D
ENCODING 58125
SWIDTH 250 0
DWIDTH 14 0
BBX 8 11 3 29
BITMAP
E0
E0
E0
E0
FC
FF
FF
FF
FF
FF
3C
ENDCHAR
STARTCHAR FB01
ENCODING 64257
SWIDTH 464 0
DWIDTH 26 0
BBX 24 37 0 0
BITMAP
07FFF0
0FFFF8
0FFFF0
0FFFE0
0F8000
0F0000
0F0000
0F0000
0F0000
0F0000
1F8000
FFFFF0
FFFFF0
FFFFF0
7FFFF0
0F00F0
0F00F0
0F00F0
0F00F0
0F00F0
0FC0FC
0FF0FF
0FF0FF
0FF0FF
0FF0FF
0FF0FF
0FF0FF
0FF0FF
0FF0FF
0FF0FF
0FF0FF
0FF0FF
0FF0FF
0FF0FF
0FF0FF
0FF07F
07E07E
ENDCHAR
STARTCHAR FB02
ENCODING 64258
SWIDTH 464 0
DWIDTH 26 0
BBX 24 37 0 0
BITMAP
07FFF0
0FFFF0
0FFFF0
0FFFF0
0F80F0
0F00F0
0F00F0
0F00F0
0F00F0
0F00F0
1F80FC
FFF0FF
FFF0FF
FFF0FF
7FE0FF
0F00FF
0F00FF
0F00FF
0F00FF
0F00FF
0FC0FF
0FF0FF
0FF0FF
0FF0FF
0FF0FF
0FF0FF
0FF0FF
0FF0FF
0FF0FF
0FF0FF
0FF0FF
0FF0FF
0FF0FF
0FF0FF
0FF0FF
0FF0FF
07E07E
ENDCHAR
ENDFONT
